<?xml version="1.0" standalone="no"?>
<!DOCTYPE svg PUBLIC "-//W3C//DTD SVG 1.1//EN" "http://www.w3.org/Graphics/SVG/1.1/DTD/svg11.dtd" >
<svg xmlns="http://www.w3.org/2000/svg" version="1.1">
<metadata>
This is a custom SVG webfont generated by Typotheque.
</metadata>
<defs>
<font id="typotheque_webfonts_service" horiz-adv-x="689" >
<font-face units-per-em="1000" ascent="780" descent="-220" />
<missing-glyph horiz-adv-x="239" />
<glyph unicode=" "  horiz-adv-x="239" />
<glyph unicode="&#x09;" horiz-adv-x="239" />
<glyph unicode="&#xa0;" horiz-adv-x="239" />
<glyph unicode="A" horiz-adv-x="721" d="M710 53q0 -14 -1 -27.5t-5 -25.5h-299q-5 14 -6 27t-1 30l60 20q16 5 24 17t8 28q0 9 -2 16.5t-5 16.5l-39 120h-233l-46 -119q-6 -17 -6 -29q0 -23 12.5 -34.5t29.5 -16.5l66 -19q0 -11 -1 -28t-4 -29h-260q-3 12 -4 26t-1 28q20 17 33 31t23 37l246 575l129 24 l225 -596q8 -20 24 -38.5t33 -33.5zM363 523l-22 83h-7l-27 -81l-66 -174h178z" />
<glyph unicode="B" horiz-adv-x="711" d="M676 217q0 -47 -16.5 -86.5t-51.5 -68.5t-88.5 -45.5t-127.5 -16.5h-350q-4 14 -5 28t-1 29l49 14q17 5 31 18.5t14 36.5l3 152v315q0 21 -14.5 32.5t-30.5 16.5l-47 15q0 16 1 27.5t4 22.5h316q124 0 193.5 -42.5t69.5 -136.5q0 -32 -11 -56t-28.5 -41t-38.5 -28.5 t-40 -18.5v-4q19 -2 48 -10.5t56 -27.5t46 -49t19 -76zM473 517q0 59 -31.5 84.5t-102.5 25.5h-67v-224h77q39 0 63 9t37.5 24.5t18.5 36t5 44.5zM524 202q0 63 -43 92t-146 29h-63v-47l4 -195h98q75 0 112.5 29t37.5 92z" />
<glyph unicode="C" d="M650 30q-21 -8 -43 -15t-48.5 -12t-58.5 -8t-73 -3q-92 0 -164.5 21t-122.5 64.5t-76.5 111t-26.5 159.5q0 78 28.5 145.5t79.5 117.5t122 78.5t156 28.5q43 0 73.5 -3t55.5 -8.5t46.5 -13.5t45.5 -18v-164q-8 -2 -26 -2.5t-31 1.5q-21 57 -61 88t-107 31 q-50 0 -93 -14.5t-74.5 -47t-49.5 -84t-18 -125.5q0 -64 19 -112t53.5 -80.5t82 -48.5t104.5 -16q59 0 100.5 6.5t78.5 14.5l28 -92v0z" />
<glyph unicode="D" horiz-adv-x="806" d="M767 368q0 -92 -30.5 -161t-85 -115t-131 -69t-168.5 -23h-309q-2 13 -4 27.5t-2 30.5l54 15q18 5 28 16.5t11 34.5l3 155v292q0 26 -11.5 41t-28.5 23l-50 19q-1 11 -0.5 25.5t4.5 27.5h299q89 0 166 -14.5t133.5 -52.5t89 -103.5t32.5 -168.5zM614 347 q0 133 -68.5 205.5t-202.5 72.5h-69v-347l6 -197h83q128 0 189.5 68.5t61.5 197.5z" />
<glyph unicode="E" horiz-adv-x="664" d="M610 0h-570q-3 15 -4 30.5t0 28.5l52 13q17 5 29.5 15.5t12.5 27.5l3 164v298q0 25 -8 35t-20 15l-63 26v25q1 8 1.5 15t3.5 14h549v-164q-13 -2 -32.5 -3t-30.5 -1q-10 48 -29.5 65t-52.5 17l-178 5v-230l271 5v-92l-271 5v-36l5 -197l151 4q54 2 90.5 25.5t54.5 73.5 l61 -13z" />
<glyph unicode="F" horiz-adv-x="618" d="M595 541q-15 -3 -31 -4t-30 0q-9 43 -30.5 62t-59.5 20l-172 7v-251l275 6v-93l-275 5v-17l3 -150q1 -17 5.5 -27.5t19.5 -13.5l109 -22q0 -14 -1 -31t-6 -32h-359q-3 13 -4 27.5t-1 28.5l55 16q16 5 26 20t10 34l3 153v302q0 16 -6 28.5t-23 19.5l-61 22q0 10 0.5 26.5 t3.5 29.5h549v-166v0z" />
<glyph unicode="G" horiz-adv-x="719" d="M427 -8q-92 0 -164.5 21t-122.5 64.5t-76.5 111t-26.5 159.5q0 78 28.5 145.5t79.5 117.5t122 78.5t156 28.5q43 0 75 -3t59 -9t51.5 -14.5t51.5 -19.5v-165q-8 -1 -25.5 -1t-31.5 1q-21 57 -66 90t-118 33q-50 0 -93 -15.5t-74.5 -49t-49.5 -86.5t-18 -127 q0 -70 22 -119t59.5 -80.5t88.5 -46t110 -15.5q5 0 13.5 0.5l17 1t16.5 1.5t11 2v200h140v-264q-54 -22 -112.5 -31t-122.5 -9z" />
<glyph unicode="H" horiz-adv-x="875" d="M844 55q0 -16 -1.5 -30.5t-4.5 -24.5h-320q-2 11 -3.5 23.5t-1.5 29.5l56 20q20 7 29 21.5t9 40.5l2 143v36h-341v-36l3 -164q1 -20 8.5 -28.5t27.5 -13.5l72 -18q0 -14 -1.5 -29.5t-4.5 -24.5h-328q-2 12 -3.5 25t-0.5 27l50 19q21 8 28.5 20.5t8.5 41.5l1 145v312 q0 21 -7.5 33t-25.5 18l-52 18q0 13 0.5 24.5t4.5 23.5h297q6 -23 4 -49l-50 -15q-17 -5 -24.5 -16.5t-7.5 -34.5v-197h341v190q0 28 -9.5 40.5t-27.5 17.5l-47 16q-3 27 1 48h296q2 -14 2 -26.5t-1 -22.5l-46 -15q-14 -5 -21.5 -13.5t-7.5 -28.5v-323l3 -154q0 -43 22 -48 l71 -21v0z" />
<glyph unicode="I" horiz-adv-x="403" d="M367 61q0 -14 -0.5 -30t-5.5 -31h-314q-6 24 -4 54l43 15q17 6 30 20.5t14 40.5l3 148v294q0 25 -15 41.5t-36 24.5l-37 16q-1 12 -1 25.5t3 27.5h308q2 -17 2 -31.5t-2 -27.5l-43 -10q-23 -6 -31 -24t-8 -39v-297l2 -170q1 -16 6 -22t19 -10l67 -15v0z" />
<glyph unicode="J" horiz-adv-x="384" d="M310 639q-23 -6 -30.5 -14t-7.5 -30v-501q0 -56 -21 -98t-55 -75t-76.5 -57.5t-85.5 -43.5l-44 78q42 26 69.5 48t43.5 49t22 62.5t6 88.5v419q0 25 -12 45.5t-36 28.5l-44 15q0 13 1 29t4 24h310q2 -11 3 -28.5t0 -27.5z" />
<glyph unicode="K" horiz-adv-x="753" d="M41 0q-3 14 -3.5 27t0.5 27l47 15q17 6 30 22t14 39l3 148v298q0 23 -14 38.5t-29 21.5l-45 18q-1 13 -1 26t4 27h307q4 -32 0 -57l-46 -14q-21 -6 -28.5 -23t-7.5 -37v-295l2 -171q0 -16 4.5 -22.5t17.5 -9.5l63 -17q0 -14 -1 -30t-6 -31h-311zM746 -16q-21 0 -50 3.5 t-60 12.5t-61.5 25t-53.5 42l-246 270v29l215 202q9 8 13 16.5t4 16.5q0 28 -19 35l-36 15q0 14 0.5 27.5t4.5 28.5h264v-47l-315 -271l183 -189q40 -42 83 -80.5t88 -64.5z" />
<glyph unicode="L" horiz-adv-x="617" d="M584 0h-542q-5 26 -3 56l47 13q16 5 29.5 19.5t13.5 37.5l3 151v299q0 23 -14 38.5t-28 21.5l-47 18q0 13 0.5 27t3.5 26h308q1 -17 1 -31.5t-2 -27.5l-45 -11q-21 -5 -29 -18t-8 -30v-311l4 -196l153 9q22 1 41.5 13t35.5 29.5t27.5 38t18.5 38.5l64 -11z" />
<glyph unicode="M" horiz-adv-x="1051" d="M959 707q2 -11 3.5 -27t0.5 -26l-49 -13q-18 -5 -30 -23.5t-6 -51.5l81 -451q6 -31 34 -41l51 -22v-10t-0.5 -15t-1.5 -15.5t-2 -11.5h-309q-2 11 -3 25.5t-1 24.5l32 11q14 4 23 15t13.5 24.5t6 28.5t0.5 29q0 2 -1 9t-2 15t-2 15t-1 9l-35 254l-10 85h-5l-185 -534 l-115 -30l-185 569h-6l-9 -81l-55 -354q-5 -28 11 -32l88 -30v-10.5t-0.5 -15.5t-1.5 -15.5t-2 -11.5h-272q-2 11 -3.5 25.5t-0.5 24.5l36 18q21 11 35 33t18 45l82 437q4 17 -5 30.5t-23 18.5l-64 21v10.5t0.5 15.5t1.5 16t2 12h266l123 -374l39 -132h9l43 136l133 370h253 z" />
<glyph unicode="N" horiz-adv-x="844" d="M768 638q-17 -8 -29 -27t-12 -42v-563l-108 -29l-397 552h-7l6 -80v-176l3 -155q0 -18 3.5 -25.5t20.5 -12.5l85 -25v-10.5t-1 -16t-2 -16.5t-2 -12h-293q-2 11 -3.5 27t-0.5 26l51 15q23 6 35 32t13 55l2 118v308q0 17 -8 30.5t-21 20.5l-61 27v23.5t2 24.5h221 l374 -512h7l-7 105v268q0 23 -11 39.5t-26 24.5l-63 27q0 7 0.5 23.5t3.5 24.5h274q2 -11 3 -23.5t1 -22.5z" />
<glyph unicode="O" horiz-adv-x="821" d="M783 382q0 -81 -26.5 -152.5t-76.5 -125.5t-122 -85t-162 -31q-177 0 -267.5 87t-90.5 248q0 84 28.5 156t80 125t123 83.5t158.5 30.5q91 0 158 -23.5t110.5 -67.5t65 -106t21.5 -139zM624 358q0 57 -11.5 106t-36.5 85t-65.5 57t-97.5 21q-61 0 -102 -22t-66.5 -59.5 t-36.5 -87.5t-11 -106q0 -55 10.5 -104t35 -86t64.5 -59t99 -22q63 0 104.5 22t67 59.5t36 88t10.5 107.5z" />
<glyph unicode="P" horiz-adv-x="695" d="M677 497q0 -51 -19 -94.5t-56 -76t-90 -50.5t-121 -18h-56v72l31 1q83 2 120 40t37 110q0 63 -36 103t-119 42l-95 2v-355l3 -152q0 -17 4 -26.5t18 -11.5l102 -24v-11.5t-1 -17.5t-2 -17.5t-2 -12.5h-352q-2 11 -3 28t0 27l51 14q17 4 27.5 21.5t11.5 40.5l3 142v315 q0 12 -5.5 23.5t-18.5 16.5l-68 26v10t0.5 15t1.5 15.5t3 12.5h389q53 0 97.5 -12t76.5 -37.5t50 -65.5t18 -95z" />
<glyph unicode="Q" horiz-adv-x="820" d="M728 -194q-58 0 -122 48l-173 136q-5 -1 -18.5 -1.5t-18.5 -0.5q-177 0 -267.5 87t-90.5 248q0 84 28.5 156t80 125t123 83.5t158.5 30.5q91 0 158 -23.5t110.5 -67.5t65 -106t21.5 -139q0 -63 -16 -120.5t-47 -105.5t-75 -85t-101 -58l105 -62q52 -35 107 -35q11 0 38 3 t72 14l15 -72q-43 -31 -83.5 -43t-69.5 -12zM406 81q63 0 104.5 22t67 59.5t36 88t10.5 107.5t-11.5 106t-36.5 85t-65.5 57t-97.5 21q-61 0 -102 -22t-66.5 -59.5t-36.5 -87.5t-11 -106q0 -55 10.5 -104t35 -86t64.5 -59t99 -22z" />
<glyph unicode="R" horiz-adv-x="778" d="M783 -13q-10 -1 -20.5 -1.5t-21.5 0.5q-49 2 -103.5 18.5t-103.5 61.5q-23 21 -44 47.5t-40.5 56.5t-36 60.5t-29.5 59.5q-3 -1 -16 -1.5t-17 -0.5h-78l4 -175q0 -14 4 -21.5t15 -10.5l70 -20v-11.5t-0.5 -18t-1.5 -18.5t-2 -13h-315q-2 11 -3 28t0 27l48 14 q19 5 28.5 22.5t10.5 39.5l3 142v319q0 11 -6.5 21t-17.5 15l-68 26v10t0.5 15t1.5 15.5t3 12.5h356q53 0 100 -10.5t82.5 -34.5t56 -62t20.5 -93q0 -28 -8 -55.5t-24 -52.5t-39 -45.5t-54 -33.5q17 -33 45.5 -77.5t60.5 -82.5q38 -43 72 -68.5t76 -35.5zM506 495 q0 68 -43 100t-127 32l-63 1v-264h81q81 1 116.5 32t35.5 99z" />
<glyph unicode="S" horiz-adv-x="606" d="M569 203q0 -56 -26.5 -96.5t-69 -66.5t-95.5 -38.5t-105 -12.5q-27 0 -58 3t-63 9.5t-62.5 16.5t-55.5 24l15 176h65q3 -36 18.5 -63.5t39.5 -46.5t55 -29t66 -10q28 0 52 5t41.5 15.5t27.5 27.5t10 41q0 21 -11.5 36.5t-32 29t-47.5 25t-57 24.5q-36 15 -74 34t-68.5 45 t-50 60t-19.5 81q0 48 21.5 88.5t57.5 70t83 46.5t98 17q24 0 53 -3t58 -8.5t56 -13.5t49 -19v-156h-56q-6 29 -22.5 51t-39 36.5t-49.5 22t-54 7.5q-51 0 -87.5 -20.5t-36.5 -64.5q0 -21 10.5 -37t30 -29.5t48 -26.5t65.5 -28q39 -17 78 -35.5t70.5 -44t51.5 -60.5t20 -83z " />
<glyph unicode="T" horiz-adv-x="699" d="M686 522q-5 -2 -13 -2.5t-16.5 -1t-16 -0.5t-11.5 1q-9 47 -30.5 73.5t-63.5 28.5l-116 4v-352l5 -159q0 -17 3.5 -25t17.5 -11l89 -18v-11.5t-0.5 -18t-1.5 -18t-2 -12.5h-359q-2 11 -3.5 30.5t-0.5 29.5l68 19q17 5 28.5 27t12.5 42l3 125v352l-125 -4q-37 -2 -56 -30 t-27 -72q-3 -1 -11 -1.5t-16.5 0t-17 1.5t-13.5 3v185h673v-185z" />
<glyph unicode="U" horiz-adv-x="811" d="M740 636q-10 -4 -18.5 -10.5t-8.5 -29.5v-327q0 -82 -29.5 -136t-74 -86t-97.5 -45t-100 -13q-51 0 -105.5 8t-99.5 34.5t-73.5 76.5t-28.5 134v339q0 17 -7.5 32t-21.5 20l-57 21v10.5t0.5 15.5t1.5 15.5t2 11.5h317q2 -11 2.5 -29.5t-0.5 -28.5l-63 -12 q-15 -3 -20.5 -10.5t-5.5 -21.5v-343q0 -57 17.5 -93t44.5 -56.5t59.5 -28t63.5 -7.5q33 0 62.5 9.5t52 33t36 64t13.5 102.5v287q0 20 -10.5 39t-45.5 29l-43 13q0 3 -0.5 10.5t-0.5 15.5t0.5 15.5t1.5 11.5h282q2 -11 3.5 -28t0.5 -27z" />
<glyph unicode="V" horiz-adv-x="715" d="M71 584q-6 15 -13 29t-21 23l-34 21q0 13 1 25.5t4 24.5h301q7 -27 7 -58q-3 -2 -12 -4l-18 -4q-11 -3 -23 -5q-32 -9 -32 -39q0 -15 6 -31l144 -403l162 381q4 9 5 18.5t1 17.5q-1 20 -11 33t-22 18l-50 21v26t5 29h258q4 -14 4.5 -26t-0.5 -26l-31 -17q-14 -8 -25 -23 t-19 -34l-252 -575l-104 -27z" />
<glyph unicode="W" horiz-adv-x="1083" d="M1095 707q6 -24 4 -52l-26 -14q-15 -8 -25.5 -23t-18.5 -34l-223 -579l-103 -26l-157 421l-186 -395l-101 -26l-185 612q-3 11 -11 22.5t-19 19.5l-41 24q0 14 0.5 26t4.5 24h296q2 -14 3 -27t0 -28l-48 -16q-17 -6 -23 -18.5t-6 -29.5q1 -14 6 -31l109 -395l161 345 l-26 81q-2 3 -6 11t-7 10q-2 5 -7 11.5t-11.5 13l-12.5 12.5t-9 11q0 14 0.5 26t2.5 24h274q4 -14 5 -27.5t0 -27.5l-37 -16q-30 -16 -30 -47q0 -16 6 -32l134 -396l137 389q7 18 7 35q0 19 -8.5 31.5t-19.5 17.5l-44 18q0 11 0.5 26t5.5 29h235z" />
<glyph unicode="X" horiz-adv-x="714" d="M709 50v-10t-1 -14.5t-2 -14.5t-2 -11h-294q-2 11 -3 25.5t0 24.5l37 23q14 8 14 21.5t-11 30.5l-106 152l-119 -145q-6 -7 -8.5 -15t-2.5 -16t3 -14.5t10 -9.5l54 -27v-10t-1 -14.5t-2 -14.5t-2 -11h-265q-2 11 -3 25.5t0 24.5l29 18q24 16 43.5 35.5t39.5 42.5l170 204 l-173 222q-21 26 -43.5 46.5t-42.5 37.5q-2 11 -2 25.5t2 25.5h275q2 -11 3 -26t0 -25l-37 -18q-9 -5 -11 -18t11 -30l100 -142l112 136q11 13 10.5 29t-11.5 22l-40 22v10v14.5t0.5 14.5t2.5 11h244q2 -11 2 -25.5t-1 -24.5q-29 -12 -54 -32t-45 -45l-165 -203l188 -236 q11 -14 21.5 -25.5t21.5 -22t24 -21t30 -22.5z" />
<glyph unicode="Y" horiz-adv-x="679" d="M681 707q3 -14 4 -26t1 -26q-21 -11 -37.5 -24.5t-31.5 -35.5l-208 -313l3 -166q0 -15 7.5 -26t21.5 -14l66 -17q0 -14 -1 -29t-6 -30h-321q-4 15 -5 29t-1 28l50 13q17 5 30 19t13 37l3 148l-207 316q-17 26 -32.5 40t-30.5 27q-1 10 -1 24t3 26h288q2 -12 3.5 -25.5 t1.5 -29.5l-43 -17q-14 -5 -21 -16t-7 -25q0 -9 2.5 -18.5t8.5 -18.5l133 -208l131 205q10 16 9 31q0 17 -11 28t-21 16l-48 23q-1 12 -0.5 26t3.5 29h251z" />
<glyph unicode="Z" horiz-adv-x="649" d="M595 0h-541l-23 72l375 550l-200 -4q-22 -2 -36.5 -10t-23.5 -21.5t-15 -32t-10 -41.5q-10 -2 -18 -2.5t-16 -0.5q-8 1 -15.5 1.5t-18.5 2.5v193h531l17 -54l-386 -565l229 9q22 2 39.5 12.5t31 27t23.5 36t17 39.5l64 -12z" />
<glyph unicode="&#xc1;" horiz-adv-x="721" d="M0 0zM710 53q0 -14 -1 -27.5t-5 -25.5h-299q-5 14 -6 27t-1 30l60 20q16 5 24 17t8 28q0 9 -2 16.5t-5 16.5l-39 120h-233l-46 -119q-6 -17 -6 -29q0 -23 12.5 -34.5t29.5 -16.5l66 -19q0 -11 -1 -28t-4 -29h-260q-3 12 -4 26t-1 28q20 17 33 31t23 37l246 575l129 24 l225 -596q8 -20 24 -38.5t33 -33.5zM363 523l-22 83h-7l-27 -81l-66 -174h178zM265 806q67 23 133 50t128 62l43 -96q-29 -12 -63.5 -23.5t-72 -21.5t-76 -19t-74.5 -16z" />
<glyph unicode="&#xc2;" horiz-adv-x="721" d="M0 0zM710 53q0 -14 -1 -27.5t-5 -25.5h-299q-5 14 -6 27t-1 30l60 20q16 5 24 17t8 28q0 9 -2 16.5t-5 16.5l-39 120h-233l-46 -119q-6 -17 -6 -29q0 -23 12.5 -34.5t29.5 -16.5l66 -19q0 -11 -1 -28t-4 -29h-260q-3 12 -4 26t-1 28q20 17 33 31t23 37l246 575l129 24 l225 -596q8 -20 24 -38.5t33 -33.5zM363 523l-22 83h-7l-27 -81l-66 -174h178zM183 785q29 18 53.5 34.5t47 34t44.5 36t46 41.5q38 -35 85 -71t92 -66l-39 -61q-40 17 -80 38.5t-70 42.5q-29 -18 -66.5 -39.5t-82.5 -41.5z" />
<glyph unicode="&#xc4;" horiz-adv-x="721" d="M0 0zM710 53q0 -14 -1 -27.5t-5 -25.5h-299q-5 14 -6 27t-1 30l60 20q16 5 24 17t8 28q0 9 -2 16.5t-5 16.5l-39 120h-233l-46 -119q-6 -17 -6 -29q0 -23 12.5 -34.5t29.5 -16.5l66 -19q0 -11 -1 -28t-4 -29h-260q-3 12 -4 26t-1 28q20 17 33 31t23 37l246 575l129 24 l225 -596q8 -20 24 -38.5t33 -33.5zM363 523l-22 83h-7l-27 -81l-66 -174h178zM242 756q-6 0 -18 9.5t-24 21.5t-21 24t-9 18t9.5 18t21.5 24.5t24 21.5t17 9q6 0 18.5 -9.5t24.5 -22t21.5 -24.5t9.5 -17t-9 -16.5t-21 -24.5t-24.5 -22.5t-19.5 -9.5zM475 756q-6 0 -18 9.5 t-24.5 21.5t-21.5 24t-9 18t9.5 18t21.5 24.5t24 21.5t18 9t18 -9.5t24.5 -22t22 -24.5t9.5 -17t-9 -16.5t-21 -24.5t-24.5 -22.5t-19.5 -9.5z" />
<glyph unicode="&#xc5;" horiz-adv-x="721" d="M0 0zM710 53q0 -14 -1 -27.5t-5 -25.5h-299q-5 14 -6 27t-1 30l60 20q16 5 24 17t8 28q0 9 -2 16.5t-5 16.5l-39 120h-233l-46 -119q-6 -17 -6 -29q0 -23 12.5 -34.5t29.5 -16.5l66 -19q0 -11 -1 -28t-4 -29h-260q-3 12 -4 26t-1 28q20 17 33 31t23 37l246 575l129 24 l225 -596q8 -20 24 -38.5t33 -33.5zM363 523l-22 83h-7l-27 -81l-66 -174h178zM483 843q0 -25 -11.5 -44t-28.5 -31.5t-37.5 -19t-39.5 -6.5q-10 0 -30.5 2.5t-41.5 13t-36.5 30.5t-15.5 56q0 27 10.5 47t27 33t38 19.5t44.5 6.5q19 0 40.5 -4.5t39.5 -16.5t29.5 -33 t11.5 -53zM415 845q0 26 -14 42.5t-39 16.5q-27 0 -39 -15t-12 -42t13.5 -44t39.5 -17q27 0 39 15.5t12 43.5z" />
<glyph unicode="&#xc0;" horiz-adv-x="721" d="M0 0zM443 742q-36 7 -74.5 16t-76 19t-72.5 21.5t-64 23.5l44 96q62 -35 128 -62t133 -50l-18 -64v0zM710 53q0 -14 -1 -27.5t-5 -25.5h-299q-5 14 -6 27t-1 30l60 20q16 5 24 17t8 28q0 9 -2 16.5t-5 16.5l-39 120h-233l-46 -119q-6 -17 -6 -29q0 -23 12.5 -34.5 t29.5 -16.5l66 -19q0 -11 -1 -28t-4 -29h-260q-3 12 -4 26t-1 28q20 17 33 31t23 37l246 575l129 24l225 -596q8 -20 24 -38.5t33 -33.5zM363 523l-22 83h-7l-27 -81l-66 -174h178z" />
<glyph unicode="&#xc3;" horiz-adv-x="721" d="M0 0zM710 53q0 -14 -1 -27.5t-5 -25.5h-299q-5 14 -6 27t-1 30l60 20q16 5 24 17t8 28q0 9 -2 16.5t-5 16.5l-39 120h-233l-46 -119q-6 -17 -6 -29q0 -23 12.5 -34.5t29.5 -16.5l66 -19q0 -11 -1 -28t-4 -29h-260q-3 12 -4 26t-1 28q20 17 33 31t23 37l246 575l129 24 l225 -596q8 -20 24 -38.5t33 -33.5zM363 523l-22 83h-7l-27 -81l-66 -174h178zM448 753q-15 0 -40.5 6t-52.5 13.5t-51 14t-37 6.5q-20 0 -36.5 -6.5t-33.5 -17.5l-28 35q12 13 24.5 27.5t27 26.5t32 19.5t39.5 7.5q19 0 45.5 -6t52.5 -13t48 -13t33 -6q29 0 45 7.5t21 12.5 l29 -33q-9 -14 -20 -28.5t-25 -26t-32 -19t-41 -7.5z" />
<glyph unicode="&#x1fa;" horiz-adv-x="721" d="M0 0zM710 53q0 -14 -1 -27.5t-5 -25.5h-299q-5 14 -6 27t-1 30l60 20q16 5 24 17t8 28q0 9 -2 16.5t-5 16.5l-39 120h-233l-46 -119q-6 -17 -6 -29q0 -23 12.5 -34.5t29.5 -16.5l66 -19q0 -11 -1 -28t-4 -29h-260q-3 12 -4 26t-1 28q20 17 33 31t23 37l246 575l129 24 l225 -596q8 -20 24 -38.5t33 -33.5zM363 523l-22 83h-7l-27 -81l-66 -174h178zM227 962q67 23 133 50t128 62l43 -96q-29 -12 -63.5 -23.5t-72 -21.5t-76 -19t-74.5 -16zM492.305 777.401q0 -26.5244 -12.2012 -46.6826q-12.2012 -20.1592 -30.2383 -33.4209 q-18.0361 -13.2627 -39.7861 -20.1592q-21.75 -6.89551 -41.9092 -6.89551q-10.6094 0 -32.3594 2.65234t-44.0303 13.792q-22.2803 11.1406 -38.7256 32.3604t-16.4453 59.4141q0 28.6465 11.1406 49.8662q11.1396 21.2197 28.6465 35.0117q17.5059 13.793 40.3164 20.6895 q22.8115 6.89648 47.2139 6.89648q20.1582 0 42.9688 -4.77441q22.8115 -4.77441 41.9092 -17.5068q19.0977 -12.7314 31.2988 -35.0117t12.2012 -56.2314zM420.158 779.523q0 27.585 -14.8535 45.0908q-14.8535 17.5068 -41.3779 17.5068q-28.6465 0 -41.3779 -15.915 q-12.7324 -15.915 -12.7324 -44.5605q0 -28.6465 14.3232 -46.6836q14.3232 -18.0361 41.9092 -18.0361q28.6455 0 41.3779 16.4453q12.7314 16.4443 12.7314 46.1523z" />
<glyph unicode="&#xc7;" d="M37 0zM650 30q-21 -8 -43 -15t-48.5 -12t-58.5 -8t-73 -3q-92 0 -164.5 21t-122.5 64.5t-76.5 111t-26.5 159.5q0 78 28.5 145.5t79.5 117.5t122 78.5t156 28.5q43 0 73.5 -3t55.5 -8.5t46.5 -13.5t45.5 -18v-164q-8 -2 -26 -2.5t-31 1.5q-21 57 -61 88t-107 31 q-50 0 -93 -14.5t-74.5 -47t-49.5 -84t-18 -125.5q0 -64 19 -112t53.5 -80.5t82 -48.5t104.5 -16q59 0 100.5 6.5t78.5 14.5l28 -92v0zM526 -169q0 -23 -12 -45.5t-31.5 -40.5t-44.5 -29t-52 -11q-49 0 -101 34l40 71q20 -14 45 -21.5t46 -7.5q18 0 30 6t12 18q0 15 -11 25 t-30.5 17.5t-45 13t-53.5 10.5l59 138h72l-42 -75q60 -14 89.5 -36t29.5 -67z" />
<glyph unicode="&#x106;" d="M37 0zM650 30q-21 -8 -43 -15t-48.5 -12t-58.5 -8t-73 -3q-92 0 -164.5 21t-122.5 64.5t-76.5 111t-26.5 159.5q0 78 28.5 145.5t79.5 117.5t122 78.5t156 28.5q43 0 73.5 -3t55.5 -8.5t46.5 -13.5t45.5 -18v-164q-8 -2 -26 -2.5t-31 1.5q-21 57 -61 88t-107 31 q-50 0 -93 -14.5t-74.5 -47t-49.5 -84t-18 -125.5q0 -64 19 -112t53.5 -80.5t82 -48.5t104.5 -16q59 0 100.5 6.5t78.5 14.5l28 -92v0zM291 806q67 23 133 50t128 62l43 -96q-29 -12 -63.5 -23.5t-72 -21.5t-76 -19t-74.5 -16z" />
<glyph unicode="&#x10c;" d="M37 0zM601 891q-29 -18 -53.5 -35t-47.5 -34.5t-45 -36.5t-46 -41q-38 36 -85 72t-92 65l40 61q39 -17 79.5 -38t70.5 -42q29 18 66 39t82 41zM650 30q-21 -8 -43 -15t-48.5 -12t-58.5 -8t-73 -3q-92 0 -164.5 21t-122.5 64.5t-76.5 111t-26.5 159.5q0 78 28.5 145.5 t79.5 117.5t122 78.5t156 28.5q43 0 73.5 -3t55.5 -8.5t46.5 -13.5t45.5 -18v-164q-8 -2 -26 -2.5t-31 1.5q-21 57 -61 88t-107 31q-50 0 -93 -14.5t-74.5 -47t-49.5 -84t-18 -125.5q0 -64 19 -112t53.5 -80.5t82 -48.5t104.5 -16q59 0 100.5 6.5t78.5 14.5l28 -92v0z" />
<glyph unicode="&#x110;" horiz-adv-x="806" d="M767 368q0 -92 -30.5 -161t-85 -115t-131 -69t-168.5 -23h-309q-2 13 -4 27.5t-2 30.5l54 15q18 5 28 16.5t11 34.5l3 155v36h-89v80h89v176q0 26 -11.5 41t-28.5 23l-50 19q-1 11 -0.5 25.5t4.5 27.5h299q89 0 166 -14.5t133.5 -52.5t89 -103.5t32.5 -168.5zM614 347 q0 133 -68.5 205.5t-202.5 72.5h-69v-230h163v-80h-163v-37l6 -197h83q128 0 189.5 68.5t61.5 197.5z" />
<glyph unicode="&#xc9;" horiz-adv-x="664" d="M35 0zM220 806q67 23 133 50t128 62l43 -96q-29 -12 -63.5 -23.5t-72 -21.5t-76 -19t-74.5 -16zM610 0h-570q-3 15 -4 30.5t0 28.5l52 13q17 5 29.5 15.5t12.5 27.5l3 164v298q0 25 -8 35t-20 15l-63 26v25q1 8 1.5 15t3.5 14h549v-164q-13 -2 -32.5 -3t-30.5 -1 q-10 48 -29.5 65t-52.5 17l-178 5v-230l271 5v-92l-271 5v-36l5 -197l151 4q54 2 90.5 25.5t54.5 73.5l61 -13z" />
<glyph unicode="&#xca;" horiz-adv-x="664" d="M35 0zM610 0h-570q-3 15 -4 30.5t0 28.5l52 13q17 5 29.5 15.5t12.5 27.5l3 164v298q0 25 -8 35t-20 15l-63 26v25q1 8 1.5 15t3.5 14h549v-164q-13 -2 -32.5 -3t-30.5 -1q-10 48 -29.5 65t-52.5 17l-178 5v-230l271 5v-92l-271 5v-36l5 -197l151 4q54 2 90.5 25.5 t54.5 73.5l61 -13zM161 785q29 18 53.5 34.5t47 34t44.5 36t46 41.5q38 -35 85 -71t92 -66l-39 -61q-40 17 -80 38.5t-70 42.5q-29 -18 -66.5 -39.5t-82.5 -41.5z" />
<glyph unicode="&#xcb;" horiz-adv-x="664" d="M35 0zM224 756q-6 0 -18 9.5t-24 21.5t-21 24t-9 18t9.5 18t21.5 24.5t24 21.5t17 9q6 0 18.5 -9.5t24.5 -22t21.5 -24.5t9.5 -17t-9 -16.5t-21 -24.5t-24.5 -22.5t-19.5 -9.5zM457 756q-6 0 -18 9.5t-24.5 21.5t-21.5 24t-9 18t9.5 18t21.5 24.5t24 21.5t18 9t18 -9.5 t24.5 -22t22 -24.5t9.5 -17t-9 -16.5t-21 -24.5t-24.5 -22.5t-19.5 -9.5zM610 0h-570q-3 15 -4 30.5t0 28.5l52 13q17 5 29.5 15.5t12.5 27.5l3 164v298q0 25 -8 35t-20 15l-63 26v25q1 8 1.5 15t3.5 14h549v-164q-13 -2 -32.5 -3t-30.5 -1q-10 48 -29.5 65t-52.5 17l-178 5 v-230l271 5v-92l-271 5v-36l5 -197l151 4q54 2 90.5 25.5t54.5 73.5l61 -13z" />
<glyph unicode="&#xc8;" horiz-adv-x="664" d="M35 0zM426 742q-36 7 -74.5 16t-76 19t-72.5 21.5t-64 23.5l44 96q62 -35 128 -62t133 -50l-18 -64v0zM610 0h-570q-3 15 -4 30.5t0 28.5l52 13q17 5 29.5 15.5t12.5 27.5l3 164v298q0 25 -8 35t-20 15l-63 26v25q1 8 1.5 15t3.5 14h549v-164q-13 -2 -32.5 -3t-30.5 -1 q-10 48 -29.5 65t-52.5 17l-178 5v-230l271 5v-92l-271 5v-36l5 -197l151 4q54 2 90.5 25.5t54.5 73.5l61 -13z" />
<glyph unicode="&#xcd;" horiz-adv-x="403" d="M41 0zM367 61q0 -14 -0.5 -30t-5.5 -31h-314q-6 24 -4 54l43 15q17 6 30 20.5t14 40.5l3 148v294q0 25 -15 41.5t-36 24.5l-37 16q-1 12 -1 25.5t3 27.5h308q2 -17 2 -31.5t-2 -27.5l-43 -10q-23 -6 -31 -24t-8 -39v-297l2 -170q1 -16 6 -22t19 -10l67 -15v0zM74 806 q67 23 133 50t128 62l43 -96q-29 -12 -63.5 -23.5t-72 -21.5t-76 -19t-74.5 -16z" />
<glyph unicode="&#xce;" horiz-adv-x="403" d="M23 0zM367 61q0 -14 -0.5 -30t-5.5 -31h-314q-6 24 -4 54l43 15q17 6 30 20.5t14 40.5l3 148v294q0 25 -15 41.5t-36 24.5l-37 16q-1 12 -1 25.5t3 27.5h308q2 -17 2 -31.5t-2 -27.5l-43 -10q-23 -6 -31 -24t-8 -39v-297l2 -170q1 -16 6 -22t19 -10l67 -15v0zM23 785 q29 18 53.5 34.5t47 34t44.5 36t46 41.5q38 -35 85 -71t92 -66l-39 -61q-40 17 -80 38.5t-70 42.5q-29 -18 -66.5 -39.5t-82.5 -41.5z" />
<glyph unicode="&#xcf;" horiz-adv-x="403" d="M96 756q-6 0 -18 9.5t-24 21.5t-21 24t-9 18t9.5 18t21.5 24.5t24 21.5t17 9q6 0 18 -9.5t24.5 -22t22 -24.5t9.5 -17t-9 -16.5t-21.5 -24.5t-25 -22.5t-18.5 -9.5zM307 756q-6 0 -18 9.5t-24.5 21.5t-21.5 24t-9 18t9.5 18t21.5 24.5t24 21.5t18 9q5 0 17 -9.5t24.5 -22 t22 -24.5t9.5 -17t-9 -16.5t-21 -24.5t-24.5 -22.5t-18.5 -9.5zM367 61q0 -14 -0.5 -30t-5.5 -31h-314q-6 24 -4 54l43 15q17 6 30 20.5t14 40.5l3 148v294q0 25 -15 41.5t-36 24.5l-37 16q-1 12 -1 25.5t3 27.5h308q2 -17 2 -31.5t-2 -27.5l-43 -10q-23 -6 -31 -24t-8 -39 v-297l2 -170q1 -16 6 -22t19 -10l67 -15v0z" />
<glyph unicode="&#xcc;" horiz-adv-x="403" d="M15 0zM302 742q-36 7 -74.5 16t-76 19t-72.5 21.5t-64 23.5l44 96q62 -35 128 -62t133 -50l-18 -64v0zM367 61q0 -14 -0.5 -30t-5.5 -31h-314q-6 24 -4 54l43 15q17 6 30 20.5t14 40.5l3 148v294q0 25 -15 41.5t-36 24.5l-37 16q-1 12 -1 25.5t3 27.5h308q2 -17 2 -31.5 t-2 -27.5l-43 -10q-23 -6 -31 -24t-8 -39v-297l2 -170q1 -16 6 -22t19 -10l67 -15v0z" />
<glyph unicode="&#x13f;" horiz-adv-x="617" d="M37 0zM527 325q-7 0 -21.5 11t-29.5 26t-26 29.5t-11 21.5t11 21.5t26 29t29.5 25.5t21.5 11t22 -11t29 -25.5t25 -29t11 -21.5q0 -6 -11 -20.5t-25 -29.5t-29 -26.5t-22 -11.5zM584 0h-542q-5 26 -3 56l47 13q16 5 29.5 19.5t13.5 37.5l3 151v299q0 23 -14 38.5 t-28 21.5l-47 18q0 13 0.5 27t3.5 26h308q1 -17 1 -31.5t-2 -27.5l-45 -11q-21 -5 -29 -18t-8 -30v-311l4 -196l153 9q22 1 41.5 13t35.5 29.5t27.5 38t18.5 38.5l64 -11z" />
<glyph unicode="&#xd1;" horiz-adv-x="844" d="M30 0zM522 753q-15 0 -40.5 6t-52.5 13.5t-51 14t-37 6.5q-20 0 -36.5 -6.5t-33.5 -17.5l-28 35q12 13 24.5 27.5t27 26.5t32 19.5t39.5 7.5q19 0 45.5 -6t52.5 -13t48 -13t33 -6q29 0 45 7.5t21 12.5l29 -33q-9 -14 -20 -28.5t-25 -26t-32 -19t-41 -7.5zM768 638 q-17 -8 -29 -27t-12 -42v-563l-108 -29l-397 552h-7l6 -80v-176l3 -155q0 -18 3.5 -25.5t20.5 -12.5l85 -25v-10.5t-1 -16t-2 -16.5t-2 -12h-293q-2 11 -3.5 27t-0.5 26l51 15q23 6 35 32t13 55l2 118v308q0 17 -8 30.5t-21 20.5l-61 27v23.5t2 24.5h221l374 -512h7l-7 105 v268q0 23 -11 39.5t-26 24.5l-63 27q0 7 0.5 23.5t3.5 24.5h274q2 -11 3 -23.5t1 -22.5z" />
<glyph unicode="&#xd2;" horiz-adv-x="821" d="M38 0zM525 742q-36 7 -74.5 16t-76 19t-72.5 21.5t-64 23.5l44 96q62 -35 128 -62t133 -50l-18 -64v0zM783 382q0 -81 -26.5 -152.5t-76.5 -125.5t-122 -85t-162 -31q-177 0 -267.5 87t-90.5 248q0 84 28.5 156t80 125t123 83.5t158.5 30.5q91 0 158 -23.5t110.5 -67.5 t65 -106t21.5 -139zM624 358q0 57 -11.5 106t-36.5 85t-65.5 57t-97.5 21q-61 0 -102 -22t-66.5 -59.5t-36.5 -87.5t-11 -106q0 -55 10.5 -104t35 -86t64.5 -59t99 -22q63 0 104.5 22t67 59.5t36 88t10.5 107.5z" />
<glyph unicode="&#xd6;" horiz-adv-x="821" d="M38 0zM300 756q-6 0 -18 9.5t-24 21.5t-21 24t-9 18t9.5 18t21.5 24.5t24 21.5t17 9q6 0 18.5 -9.5t24.5 -22t21.5 -24.5t9.5 -17t-9 -16.5t-21 -24.5t-24.5 -22.5t-19.5 -9.5zM533 756q-6 0 -18 9.5t-24.5 21.5t-21.5 24t-9 18t9.5 18t21.5 24.5t24 21.5t18 9t18 -9.5 t24.5 -22t22 -24.5t9.5 -17t-9 -16.5t-21 -24.5t-24.5 -22.5t-19.5 -9.5zM783 382q0 -81 -26.5 -152.5t-76.5 -125.5t-122 -85t-162 -31q-177 0 -267.5 87t-90.5 248q0 84 28.5 156t80 125t123 83.5t158.5 30.5q91 0 158 -23.5t110.5 -67.5t65 -106t21.5 -139zM624 358 q0 57 -11.5 106t-36.5 85t-65.5 57t-97.5 21q-61 0 -102 -22t-66.5 -59.5t-36.5 -87.5t-11 -106q0 -55 10.5 -104t35 -86t64.5 -59t99 -22q63 0 104.5 22t67 59.5t36 88t10.5 107.5z" />
<glyph unicode="&#xd5;" horiz-adv-x="821" d="M38 0zM511 753q-15 0 -40.5 6t-52.5 13.5t-51 14t-37 6.5q-20 0 -36.5 -6.5t-33.5 -17.5l-28 35q12 13 24.5 27.5t27 26.5t32 19.5t39.5 7.5q19 0 45.5 -6t52.5 -13t48 -13t33 -6q29 0 45 7.5t21 12.5l29 -33q-9 -14 -20 -28.5t-25 -26t-32 -19t-41 -7.5zM783 382 q0 -81 -26.5 -152.5t-76.5 -125.5t-122 -85t-162 -31q-177 0 -267.5 87t-90.5 248q0 84 28.5 156t80 125t123 83.5t158.5 30.5q91 0 158 -23.5t110.5 -67.5t65 -106t21.5 -139zM624 358q0 57 -11.5 106t-36.5 85t-65.5 57t-97.5 21q-61 0 -102 -22t-66.5 -59.5t-36.5 -87.5 t-11 -106q0 -55 10.5 -104t35 -86t64.5 -59t99 -22q63 0 104.5 22t67 59.5t36 88t10.5 107.5z" />
<glyph unicode="&#xd3;" horiz-adv-x="821" d="M38 0zM318 806q67 23 133 50t128 62l43 -96q-29 -12 -63.5 -23.5t-72 -21.5t-76 -19t-74.5 -16zM783 382q0 -81 -26.5 -152.5t-76.5 -125.5t-122 -85t-162 -31q-177 0 -267.5 87t-90.5 248q0 84 28.5 156t80 125t123 83.5t158.5 30.5q91 0 158 -23.5t110.5 -67.5t65 -106 t21.5 -139zM624 358q0 57 -11.5 106t-36.5 85t-65.5 57t-97.5 21q-61 0 -102 -22t-66.5 -59.5t-36.5 -87.5t-11 -106q0 -55 10.5 -104t35 -86t64.5 -59t99 -22q63 0 104.5 22t67 59.5t36 88t10.5 107.5z" />
<glyph unicode="&#xd4;" horiz-adv-x="821" d="M38 0zM243 785q29 18 53.5 34.5t47 34t44.5 36t46 41.5q38 -35 85 -71t92 -66l-39 -61q-40 17 -80 38.5t-70 42.5q-29 -18 -66.5 -39.5t-82.5 -41.5zM783 382q0 -81 -26.5 -152.5t-76.5 -125.5t-122 -85t-162 -31q-177 0 -267.5 87t-90.5 248q0 84 28.5 156t80 125 t123 83.5t158.5 30.5q91 0 158 -23.5t110.5 -67.5t65 -106t21.5 -139zM624 358q0 57 -11.5 106t-36.5 85t-65.5 57t-97.5 21q-61 0 -102 -22t-66.5 -59.5t-36.5 -87.5t-11 -106q0 -55 10.5 -104t35 -86t64.5 -59t99 -22q63 0 104.5 22t67 59.5t36 88t10.5 107.5z" />
<glyph unicode="&#xd8;" horiz-adv-x="821" d="M777 699q-16 -19 -34 -39.5t-38 -42.5q39 -43 58.5 -102.5t19.5 -132.5q0 -81 -26.5 -152.5t-76.5 -125.5t-122 -85t-162 -31q-147 0 -237 64q-23 -23 -45.5 -43.5t-43.5 -40.5l-46 45q20 19 42 39.5t45 42.5q-73 87 -73 228q0 84 28.5 156t80 125t123 83.5t158.5 30.5 q72 0 129 -15t100 -44q20 23 38.5 43.5t35.5 40.5zM566 562q-25 30 -62.5 47.5t-90.5 17.5q-61 0 -102 -22t-66.5 -59.5t-36.5 -87.5t-11 -106q0 -41 5.5 -78.5t18.5 -69.5q88 88 177.5 180.5t167.5 177.5zM624 358q0 41 -5.5 77t-19.5 67q-79 -85 -168 -176.5t-177 -179.5 q26 -31 62.5 -48t89.5 -17q63 0 104.5 22t67 59.5t36 88t10.5 107.5z" />
<glyph unicode="&#x1fe;" horiz-adv-x="821" d="M24 0zM777 699q-16 -19 -34 -39.5t-38 -42.5q39 -43 58.5 -102.5t19.5 -132.5q0 -81 -26.5 -152.5t-76.5 -125.5t-122 -85t-162 -31q-147 0 -237 64q-23 -23 -45.5 -43.5t-43.5 -40.5l-46 45q20 19 42 39.5t45 42.5q-73 87 -73 228q0 84 28.5 156t80 125t123 83.5 t158.5 30.5q72 0 129 -15t100 -44q20 23 38.5 43.5t35.5 40.5zM566 562q-25 30 -62.5 47.5t-90.5 17.5q-61 0 -102 -22t-66.5 -59.5t-36.5 -87.5t-11 -106q0 -41 5.5 -78.5t18.5 -69.5q88 88 177.5 180.5t167.5 177.5zM624 358q0 41 -5.5 77t-19.5 67q-79 -85 -168 -176.5 t-177 -179.5q26 -31 62.5 -48t89.5 -17q63 0 104.5 22t67 59.5t36 88t10.5 107.5zM299 806q67 23 133 50t128 62l43 -96q-29 -12 -63.5 -23.5t-72 -21.5t-76 -19t-74.5 -16z" />
<glyph unicode="&#x160;" horiz-adv-x="606" d="M34 0zM511 891q-29 -18 -53.5 -35t-47.5 -34.5t-45 -36.5t-46 -41q-38 36 -85 72t-92 65l40 61q39 -17 79.5 -38t70.5 -42q29 18 66 39t82 41zM569 203q0 -56 -26.5 -96.5t-69 -66.5t-95.5 -38.5t-105 -12.5q-27 0 -58 3t-63 9.5t-62.5 16.5t-55.5 24l15 176h65 q3 -36 18.5 -63.5t39.5 -46.5t55 -29t66 -10q28 0 52 5t41.5 15.5t27.5 27.5t10 41q0 21 -11.5 36.5t-32 29t-47.5 25t-57 24.5q-36 15 -74 34t-68.5 45t-50 60t-19.5 81q0 48 21.5 88.5t57.5 70t83 46.5t98 17q24 0 53 -3t58 -8.5t56 -13.5t49 -19v-156h-56q-6 29 -22.5 51 t-39 36.5t-49.5 22t-54 7.5q-51 0 -87.5 -20.5t-36.5 -64.5q0 -21 10.5 -37t30 -29.5t48 -26.5t65.5 -28q39 -17 78 -35.5t70.5 -44t51.5 -60.5t20 -83z" />
<glyph unicode="&#xda;" horiz-adv-x="811" d="M19 0zM320 806q67 23 133 50t128 62l43 -96q-29 -12 -63.5 -23.5t-72 -21.5t-76 -19t-74.5 -16zM740 636q-10 -4 -18.5 -10.5t-8.5 -29.5v-327q0 -82 -29.5 -136t-74 -86t-97.5 -45t-100 -13q-51 0 -105.5 8t-99.5 34.5t-73.5 76.5t-28.5 134v339q0 17 -7.5 32t-21.5 20 l-57 21v10.5t0.5 15.5t1.5 15.5t2 11.5h317q2 -11 2.5 -29.5t-0.5 -28.5l-63 -12q-15 -3 -20.5 -10.5t-5.5 -21.5v-343q0 -57 17.5 -93t44.5 -56.5t59.5 -28t63.5 -7.5q33 0 62.5 9.5t52 33t36 64t13.5 102.5v287q0 20 -10.5 39t-45.5 29l-43 13q0 3 -0.5 10.5t-0.5 15.5 t0.5 15.5t1.5 11.5h282q2 -11 3.5 -28t0.5 -27z" />
<glyph unicode="&#xdb;" horiz-adv-x="811" d="M19 0zM740 636q-10 -4 -18.5 -10.5t-8.5 -29.5v-327q0 -82 -29.5 -136t-74 -86t-97.5 -45t-100 -13q-51 0 -105.5 8t-99.5 34.5t-73.5 76.5t-28.5 134v339q0 17 -7.5 32t-21.5 20l-57 21v10.5t0.5 15.5t1.5 15.5t2 11.5h317q2 -11 2.5 -29.5t-0.5 -28.5l-63 -12 q-15 -3 -20.5 -10.5t-5.5 -21.5v-343q0 -57 17.5 -93t44.5 -56.5t59.5 -28t63.5 -7.5q33 0 62.5 9.5t52 33t36 64t13.5 102.5v287q0 20 -10.5 39t-45.5 29l-43 13q0 3 -0.5 10.5t-0.5 15.5t0.5 15.5t1.5 11.5h282q2 -11 3.5 -28t0.5 -27zM250 785q29 18 53.5 34.5t47 34 t44.5 36t46 41.5q38 -35 85 -71t92 -66l-39 -61q-40 17 -80 38.5t-70 42.5q-29 -18 -66.5 -39.5t-82.5 -41.5z" />
<glyph unicode="&#xd9;" horiz-adv-x="811" d="M19 0zM522 742q-36 7 -74.5 16t-76 19t-72.5 21.5t-64 23.5l44 96q62 -35 128 -62t133 -50l-18 -64v0zM740 636q-10 -4 -18.5 -10.5t-8.5 -29.5v-327q0 -82 -29.5 -136t-74 -86t-97.5 -45t-100 -13q-51 0 -105.5 8t-99.5 34.5t-73.5 76.5t-28.5 134v339q0 17 -7.5 32 t-21.5 20l-57 21v10.5t0.5 15.5t1.5 15.5t2 11.5h317q2 -11 2.5 -29.5t-0.5 -28.5l-63 -12q-15 -3 -20.5 -10.5t-5.5 -21.5v-343q0 -57 17.5 -93t44.5 -56.5t59.5 -28t63.5 -7.5q33 0 62.5 9.5t52 33t36 64t13.5 102.5v287q0 20 -10.5 39t-45.5 29l-43 13q0 3 -0.5 10.5 t-0.5 15.5t0.5 15.5t1.5 11.5h282q2 -11 3.5 -28t0.5 -27z" />
<glyph unicode="&#xdc;" horiz-adv-x="811" d="M19 0zM311 756q-6 0 -18 9.5t-24 21.5t-21 24t-9 18t9.5 18t21.5 24.5t24 21.5t17 9q6 0 18.5 -9.5t24.5 -22t21.5 -24.5t9.5 -17t-9 -16.5t-21 -24.5t-24.5 -22.5t-19.5 -9.5zM544 756q-6 0 -18 9.5t-24.5 21.5t-21.5 24t-9 18t9.5 18t21.5 24.5t24 21.5t18 9t18 -9.5 t24.5 -22t22 -24.5t9.5 -17t-9 -16.5t-21 -24.5t-24.5 -22.5t-19.5 -9.5zM740 636q-10 -4 -18.5 -10.5t-8.5 -29.5v-327q0 -82 -29.5 -136t-74 -86t-97.5 -45t-100 -13q-51 0 -105.5 8t-99.5 34.5t-73.5 76.5t-28.5 134v339q0 17 -7.5 32t-21.5 20l-57 21v10.5t0.5 15.5 t1.5 15.5t2 11.5h317q2 -11 2.5 -29.5t-0.5 -28.5l-63 -12q-15 -3 -20.5 -10.5t-5.5 -21.5v-343q0 -57 17.5 -93t44.5 -56.5t59.5 -28t63.5 -7.5q33 0 62.5 9.5t52 33t36 64t13.5 102.5v287q0 20 -10.5 39t-45.5 29l-43 13q0 3 -0.5 10.5t-0.5 15.5t0.5 15.5t1.5 11.5h282 q2 -11 3.5 -28t0.5 -27z" />
<glyph unicode="&#x178;" horiz-adv-x="679" d="M0 0zM681 707q3 -14 4 -26t1 -26q-21 -11 -37.5 -24.5t-31.5 -35.5l-208 -313l3 -166q0 -15 7.5 -26t21.5 -14l66 -17q0 -14 -1 -29t-6 -30h-321q-4 15 -5 29t-1 28l50 13q17 5 30 19t13 37l3 148l-207 316q-17 26 -32.5 40t-30.5 27q-1 10 -1 24t3 26h288 q2 -12 3.5 -25.5t1.5 -29.5l-43 -17q-14 -5 -21 -16t-7 -25q0 -9 2.5 -18.5t8.5 -18.5l133 -208l131 205q10 16 9 31q0 17 -11 28t-21 16l-48 23q-1 12 -0.5 26t3.5 29h251zM248 756q-6 0 -18 9.5t-24 21.5t-21 24t-9 18t9.5 18t21.5 24.5t24 21.5t17 9q6 0 18.5 -9.5 t24.5 -22t21.5 -24.5t9.5 -17t-9 -16.5t-21 -24.5t-24.5 -22.5t-19.5 -9.5zM481 756q-6 0 -18 9.5t-24.5 21.5t-21.5 24t-9 18t9.5 18t21.5 24.5t24 21.5t18 9t18 -9.5t24.5 -22t22 -24.5t9.5 -17t-9 -16.5t-21 -24.5t-24.5 -22.5t-19.5 -9.5z" />
<glyph unicode="&#xdd;" horiz-adv-x="679" d="M0 0zM681 707q3 -14 4 -26t1 -26q-21 -11 -37.5 -24.5t-31.5 -35.5l-208 -313l3 -166q0 -15 7.5 -26t21.5 -14l66 -17q0 -14 -1 -29t-6 -30h-321q-4 15 -5 29t-1 28l50 13q17 5 30 19t13 37l3 148l-207 316q-17 26 -32.5 40t-30.5 27q-1 10 -1 24t3 26h288 q2 -12 3.5 -25.5t1.5 -29.5l-43 -17q-14 -5 -21 -16t-7 -25q0 -9 2.5 -18.5t8.5 -18.5l133 -208l131 205q10 16 9 31q0 17 -11 28t-21 16l-48 23q-1 12 -0.5 26t3.5 29h251zM268 806q67 23 133 50t128 62l43 -96q-29 -12 -63.5 -23.5t-72 -21.5t-76 -19t-74.5 -16z" />
<glyph unicode="&#x17d;" horiz-adv-x="649" d="M31 0zM526 891q-29 -18 -53.5 -35t-47.5 -34.5t-45 -36.5t-46 -41q-38 36 -85 72t-92 65l40 61q39 -17 79.5 -38t70.5 -42q29 18 66 39t82 41zM595 0h-541l-23 72l375 550l-200 -4q-22 -2 -36.5 -10t-23.5 -21.5t-15 -32t-10 -41.5q-10 -2 -18 -2.5t-16 -0.5 q-8 1 -15.5 1.5t-18.5 2.5v193h531l17 -54l-386 -565l229 9q22 2 39.5 12.5t31 27t23.5 36t17 39.5l64 -12z" />
<glyph unicode="&#xde;" d="M673 381q0 -51 -19.5 -94t-56 -73.5t-89 -47.5t-117.5 -17h-57v72l31 1q78 2 116 36.5t38 106.5q0 68 -37 100t-121 34l-89 1v-227l4 -155q0 -15 4 -24t17 -11l102 -24v-11.5t-0.5 -17.5t-1.5 -17.5t-2 -12.5h-348q-2 11 -3 28t0 27l48 14q17 5 27.5 23.5t11.5 38.5 l2 142v311q0 20 -13.5 32.5t-26.5 18.5l-52 20q0 5 -0.5 10.5t-0.5 10.5q0 13 5 31h309q3 -35 -1 -59l-43 -10q-16 -4 -24.5 -16t-11.5 -26l-1 -17h155q53 0 98 -10t77.5 -33.5t51 -61.5t18.5 -93z" />
<glyph unicode="&#xd0;" horiz-adv-x="806" d="M767 368q0 -92 -30.5 -161t-85 -115t-131 -69t-168.5 -23h-309q-2 13 -4 27.5t-2 30.5l54 15q18 5 28 16.5t11 34.5l3 155v36h-89v80h89v176q0 26 -11.5 41t-28.5 23l-50 19q-1 11 -0.5 25.5t4.5 27.5h299q89 0 166 -14.5t133.5 -52.5t89 -103.5t32.5 -168.5zM614 347 q0 133 -68.5 205.5t-202.5 72.5h-69v-230h163v-80h-163v-37l6 -197h83q128 0 189.5 68.5t61.5 197.5z" />
<glyph unicode="&#xc6;" horiz-adv-x="999" d="M947 0h-572q-3 15 -4 30.5t0 28.5q1 0 8.5 2t16.5 4q11 3 23 7q17 5 29.5 15.5t13.5 27.5l2 164v29h-198l-90 -156q-5 -10 -7 -17.5t-2 -13.5q0 -17 10.5 -26.5t21.5 -12.5l82 -22q0 -11 -0.5 -28.5t-5.5 -31.5h-290q-4 13 -4.5 26.5t0.5 27.5l24 16q29 21 49 52l351 585 h522v-164q-14 -4 -31 -5t-32 1q-9 48 -29 65t-53 17l-179 5v-236l292 5v-92l-292 5v-30l5 -197l159 4q54 2 90 25.5t54 73.5l60 -13zM313 390h151v221q0 7 0.5 22.5t1.5 20.5z" />
<glyph unicode="&#x1fc;" horiz-adv-x="999" d="M0 0zM536 806q67 23 133 50t128 62l43 -96q-29 -12 -63.5 -23.5t-72 -21.5t-76 -19t-74.5 -16zM947 0h-572q-3 15 -4 30.5t0 28.5q1 0 8.5 2t16.5 4q11 3 23 7q17 5 29.5 15.5t13.5 27.5l2 164v29h-198l-90 -156q-5 -10 -7 -17.5t-2 -13.5q0 -17 10.5 -26.5t21.5 -12.5 l82 -22q0 -11 -0.5 -28.5t-5.5 -31.5h-290q-4 13 -4.5 26.5t0.5 27.5l24 16q29 21 49 52l351 585h522v-164q-14 -4 -31 -5t-32 1q-9 48 -29 65t-53 17l-179 5v-236l292 5v-92l-292 5v-30l5 -197l159 4q54 2 90 25.5t54 73.5l60 -13zM313 390h151v221q0 7 0.5 22.5t1.5 20.5z " />
<glyph unicode="&#x152;" horiz-adv-x="1059" d="M1007 0h-497q-50 -12 -107 -12q-88 0 -156 26.5t-114.5 74t-70.5 114t-24 146.5q0 84 27.5 152t78 116t121 74.5t157.5 26.5q55 0 105 -11h460v-164q-14 -4 -31.5 -5t-31.5 1q-10 48 -30 65t-53 17l-177 5v-230l283 5v-92l-283 5v-36l4 -197l158 4q54 2 90.5 25.5 t53.5 73.5l61 -13zM524 577q0 6 -1 11.5t-2 10.5q-45 28 -108 28q-61 0 -102 -21.5t-66.5 -58t-36.5 -86t-11 -105.5q0 -55 10.5 -105t35 -87.5t64.5 -60t99 -22.5q42 0 72 9.5t43 35.5l3 153v298z" />
<glyph unicode="&#x132;" horiz-adv-x="764" d="M41 0zM367 61q0 -14 -0.5 -30t-5.5 -31h-314q-6 24 -4 54l43 15q17 6 30 20.5t14 40.5l3 148v294q0 25 -15 41.5t-36 24.5l-37 16q-1 12 -1 25.5t3 27.5h308q2 -17 2 -31.5t-2 -27.5l-43 -10q-23 -6 -31 -24t-8 -39v-297l2 -170q1 -16 6 -22t19 -10l67 -15v0zM690 639 q-23 -6 -30.5 -14t-7.5 -30v-501q0 -56 -21 -98t-55 -75t-76.5 -57.5t-85.5 -43.5l-44 78q42 26 69.5 48t43.5 49t22 62.5t6 88.5v419q0 25 -12 45.5t-36 28.5l-44 15q0 13 1 29t4 24h310q2 -11 3 -28.5t0 -27.5z" />
<glyph unicode="a" horiz-adv-x="573" d="M570 47q-12 -11 -29 -21t-35.5 -17.5t-36.5 -12t-33 -4.5q-28 0 -46 5.5t-28.5 16t-15.5 26.5t-6 38q-11 -11 -28 -26t-39.5 -28.5t-49.5 -23t-57 -9.5q-63 0 -103 30.5t-40 95.5q0 45 18 76t47.5 51.5t67 32t76.5 17.5q33 5 62.5 8t42.5 4v63q0 42 -23.5 61t-89.5 19 q-27 0 -63.5 -5t-78.5 -16l-24 95q50 19 97.5 27.5t95.5 8.5q21 0 45.5 -0.5t49 -5t47.5 -14t40.5 -26.5t28 -42.5t10.5 -62.5v-135l7 -183h84zM337 239q-7 -1 -32 -3.5t-49 -7.5q-45 -9 -70 -27t-25 -52q0 -22 14.5 -36.5t46.5 -14.5q16 0 33.5 4t33.5 9t29 10t19 7v111z " />
<glyph unicode="b" horiz-adv-x="618" d="M582 290q0 -65 -22 -119.5t-61.5 -94.5t-93.5 -62t-117 -22q-47 0 -80.5 2t-59 6t-44 8.5t-34.5 9.5l6 262v398h-93v61q42 9 88.5 17t88.5 8q29 0 39.5 -10t10.5 -40v-435l5 -188q14 -2 30.5 -4.5t45.5 -2.5q37 0 64.5 15.5t45.5 42.5t26.5 63t8.5 78q0 40 -6 73.5 t-20.5 57.5t-38 37.5t-59.5 13.5q-16 0 -32 -1t-28 -3l-14 66q7 4 19 8.5t26.5 8.5t29.5 7t29 3q58 0 103 -12.5t75.5 -42.5t46 -81t15.5 -128z" />
<glyph unicode="c" horiz-adv-x="530" d="M502 464q0 -23 -14 -47t-44 -37q-17 19 -33.5 36t-33.5 30t-36 20.5t-41 7.5q-26 0 -48.5 -10.5t-39.5 -33.5t-27 -58.5t-10 -85.5q0 -93 40.5 -141.5t125.5 -48.5q31 0 65 5.5t66 11.5l23 -72q-35 -23 -81.5 -38t-115.5 -15q-72 0 -122.5 18t-81.5 52t-45 82t-14 107 q0 72 19.5 130t57 98.5t92.5 62t127 21.5q26 0 56 -4t55.5 -15t42.5 -29.5t17 -46.5z" />
<glyph unicode="d" horiz-adv-x="644" d="M634 41q-32 -18 -72 -33.5t-96 -15.5q-19 0 -31.5 7.5t-20 19.5t-10.5 26.5t-3 28.5q-13 -15 -28 -29.5t-33 -26t-40 -18.5t-47 -7q-41 0 -79.5 10.5t-69.5 39t-49.5 79t-18.5 130.5q0 69 22 124t60 94t89 59.5t110 20.5q29 0 49 -1.5t38 -3.5v133h-93v65q20 4 43.5 8 t47 7t45.5 4.5t40 1.5q29 0 40.5 -10t11.5 -40v-435l4 -188h81zM404 464q-17 4 -38.5 7.5t-51.5 3.5q-39 0 -65 -15.5t-41.5 -43.5t-22 -67t-6.5 -85q0 -83 32 -121.5t92 -38.5q28 0 51 6.5t46 17.5l4 152v184z" />
<glyph unicode="e" horiz-adv-x="568" d="M176 257q2 -50 16 -80.5t36.5 -48t53.5 -23.5t67 -6q29 0 67.5 3.5t84.5 14.5l23 -75q-52 -28 -103.5 -40.5t-113.5 -12.5q-54 0 -103.5 11t-87 39.5t-60 77.5t-22.5 125q0 69 19 127.5t55 100.5t87 65.5t116 23.5q60 0 102.5 -20t69.5 -55t39.5 -82.5t12.5 -103.5v-41 h-359zM389 324q0 71 -21.5 115t-73.5 44q-28 0 -50 -12.5t-37.5 -34t-24 -50.5t-9.5 -62h216z" />
<glyph unicode="f" horiz-adv-x="410" d="M511 689q0 -31 -14.5 -50.5t-41.5 -31.5q-12 15 -25.5 29t-27 25.5t-26 18.5t-21.5 7q-57 0 -80 -29t-23 -77v-37h119v-73h-119v-191l5 -164q0 -17 8.5 -25t23.5 -11l108 -21q0 -13 -1.5 -28.5t-5.5 -30.5h-354q-3 15 -4 28t-1 26q2 1 9.5 4t15.5 5q10 3 21 6 q19 7 27 23.5t8 39.5l3 148v191h-80v58l80 16v17q0 41 20 78.5t52 65.5t72.5 44.5t81.5 16.5q30 0 60.5 -4t55 -13t39.5 -24t15 -37z" />
<glyph unicode="g" horiz-adv-x="610" d="M497 450q5 -10 9 -27.5t4 -43.5q0 -41 -17 -75t-47 -58t-72.5 -37t-93.5 -13q-29 0 -59 4t-56 14v-89h180q67 0 111 -10t69.5 -28t35.5 -44t10 -59q0 -50 -26 -89t-70 -65t-102.5 -39.5t-123.5 -13.5q-41 0 -80.5 5.5t-71 20t-50.5 38.5t-19 60q0 22 8 40.5t21 33.5 t28.5 26t30.5 18q-8 0 -18 3.5t-19 11t-15.5 19.5t-6.5 29q0 35 19.5 73.5t47.5 76.5q-33 20 -52 52.5t-19 80.5q0 37 14 72t42.5 62t71 43t99.5 16q55 0 98 -12.5t66 -29.5l158 36v-102h-105zM370 372q0 50 -22.5 82t-67.5 32q-29 0 -47.5 -9.5t-30 -25.5t-16 -36t-4.5 -41 q0 -23 5 -43t16 -34.5t29.5 -22.5t44.5 -8q47 0 70 29t23 77zM435 -43q0 30 -24 42t-73 12h-168q-11 -11 -20 -27t-9 -34q0 -38 34 -63.5t115 -25.5q69 0 107 26t38 70z" />
<glyph unicode="h" horiz-adv-x="697" d="M683 58q0 -38 -7 -58h-271q-2 14 -3.5 27t0.5 29l38 17q13 6 17.5 17t5.5 28l2 156v64q0 27 -2 49.5t-11 38t-26.5 24t-48.5 8.5q-20 0 -40.5 -2.5t-40 -7t-35.5 -9.5t-26 -9v-156l3 -158q0 -16 3 -25.5t14 -14.5l58 -18q0 -19 -1 -32.5t-4 -25.5h-282q-7 28 -5 53l48 18 q27 9 27 50l3 153v406h-87v63q20 4 44.5 8t49 7t47 5t40.5 2q22 0 30.5 -8.5t8.5 -26.5v-241q15 11 33.5 23t42.5 22.5t52.5 17t62.5 6.5q64 0 100 -13.5t53 -37.5t21 -57.5t4 -72.5v-103l3 -173q1 -13 4 -19.5t12 -8.5l63 -15v0z" />
<glyph unicode="i" horiz-adv-x="363" d="M35 0q-4 19 -4 56l61 19q14 4 20.5 16t6.5 28l3 154v197h-92v65q20 4 44 8t48.5 7t47 5t40.5 2q24 0 36 -9t12 -35v-240l2 -161q1 -19 5 -26.5t12 -9.5l74 -18q0 -14 -1 -30t-5 -28h-310zM187 636q-8 0 -22.5 11.5t-29 26.5t-25.5 29.5t-11 20.5q0 8 11 22.5t26 29 t29.5 25.5t21.5 11q6 0 20.5 -11t30 -26t27 -29.5t11.5 -21.5q0 -5 -11 -19.5t-26 -29.5t-30 -27t-22 -12z" />
<glyph unicode="j" horiz-adv-x="312" d="M18 -225q-26 0 -49 4.5t-41 13.5l33 106q16 -8 34.5 -13t41.5 -5q35 0 50.5 23t15.5 77v489h-89v65q20 4 44 8t48 7t46 5t40 2q24 0 35.5 -9t11.5 -35v-240l1 -229q0 -54 -21 -102.5t-53.5 -85.5t-72 -59t-75.5 -22zM170 636q-7 0 -21.5 11.5t-29 26.5t-25.5 29.5 t-11 21.5t11 22t25.5 29.5t29 25.5t21.5 11q6 0 21 -11t30 -26t26.5 -29.5t11.5 -21.5q0 -5 -11 -19.5t-26 -30t-30 -27.5t-22 -12z" />
<glyph unicode="k" horiz-adv-x="631" d="M615 -17q-43 2 -78.5 10t-65.5 23t-56 38t-50 56l-123 163l2 -147q1 -17 5.5 -30.5t16.5 -21.5l30 -20q0 -19 -1 -30.5t-5 -23.5h-269q-3 15 -3.5 25.5t0.5 27.5l56 18q17 5 23 18t6 31l3 154v404h-90v65q20 4 44 8t48 7t46.5 4.5t40.5 1.5q23 0 35 -9t12 -35v-403v-28 l157 144q14 11 14 26q0 8 -4 15.5t-12 9.5l-37 17q0 8 0.5 21t3.5 24h218v-47l-210 -180l113 -142q38 -48 76 -80.5t68 -43.5z" />
<glyph unicode="l" horiz-adv-x="348" d="M335 58q0 -19 -1 -32.5t-4 -25.5h-309q-2 14 -3 25t-1 28l57 17q16 5 22 16.5t6 29.5l4 158v404h-90v65q17 4 40.5 8t48.5 7t48.5 4.5t41.5 1.5q23 0 35 -9t12 -35v-446l3 -163q1 -14 3 -23.5t11 -11.5l76 -18v0z" />
<glyph unicode="m" horiz-adv-x="1061" d="M1049 57q0 -37 -7 -57h-270q-6 25 -4 57l36 17q22 12 22 43l3 156v65q0 27 -2 49.5t-10.5 38t-26 24t-48.5 8.5q-36 0 -74 -8t-61 -17v-10.5t0.5 -16.5t0.5 -17v-12v-103l3 -172q0 -25 14 -29l70 -16q0 -20 -1 -33t-5 -24h-272q-2 14 -3.5 27t-0.5 29l36 16q11 6 15.5 17 t5.5 22l3 162v65q0 27 -2 49.5t-10.5 38t-25.5 24t-48 8.5q-39 0 -77 -9.5t-58 -19.5v-155l2 -159q0 -14 2.5 -25t12.5 -13l63 -18q0 -19 -1 -33t-4 -26h-287q-4 14 -4 25v28l47 17q14 5 22 16t8 32l2 156v196h-85v65q20 4 44 8t48 7t46.5 4.5t40.5 1.5q22 0 30.5 -8.5 t8.5 -27.5v-31q15 11 32.5 23t40 22.5t50 17t61.5 6.5q77 0 113.5 -19t49.5 -52q15 11 34 23.5t43 23t52.5 17.5t63.5 7q64 0 99.5 -13.5t53 -37.5t21 -57.5t3.5 -72.5v-103l3 -172q0 -14 3 -20.5t13 -8.5l65 -16v0z" />
<glyph unicode="n" horiz-adv-x="711" d="M698 57q0 -20 -1 -33t-5 -24h-268q-2 14 -3.5 27t0.5 29l32 17q14 8 18.5 19.5t4.5 24.5l3 157v63q0 27 -2 49.5t-11 38t-27 24t-49 8.5q-19 0 -39 -2.5t-39 -6.5t-34.5 -9t-25.5 -10v-155l2 -161q0 -14 2 -23.5t13 -13.5l62 -18q0 -19 -0.5 -32.5t-4.5 -25.5h-285 q-2 11 -3 25.5t0 27.5l47 18q15 6 21.5 18t6.5 29l3 156v196h-87v65q20 4 44.5 8t49 7t47 4.5t40.5 1.5q22 0 30 -8.5t8 -27.5v-31q15 11 33 23t41.5 22.5t51.5 17t62 6.5q64 0 100.5 -13.5t53.5 -37.5t21 -57.5t4 -72.5v-103l3 -176q1 -12 3 -17.5t11 -7.5l66 -16v0z" />
<glyph unicode="o" horiz-adv-x="608" d="M575 277q0 -54 -21 -106t-58.5 -92.5t-88 -65t-110.5 -24.5q-124 0 -194 67t-70 210q0 55 21.5 107.5t58 93.5t86.5 66.5t107 25.5q269 0 269 -282zM428 274q0 35 -5 70.5t-19 64t-40.5 46.5t-68.5 18q-40 0 -63 -19.5t-35 -48.5t-15.5 -64.5t-3.5 -66.5q0 -38 6 -73.5 t21 -62.5t41 -43t67 -16q36 0 58.5 16t35 43t17 62t4.5 74z" />
<glyph unicode="p" horiz-adv-x="646" d="M610 284q0 -86 -25 -142.5t-66.5 -89.5t-94.5 -46.5t-108 -13.5q-24 0 -39.5 0.5t-29.5 2.5l3 -98q0 -18 8 -27t25 -14l74 -15q0 -15 -1.5 -30t-6.5 -31h-321q-4 17 -5.5 31.5t-1.5 25.5l37 13q23 8 32.5 25t9.5 36l4 360v199h-91v63q15 3 36.5 7t46 7.5t50 6t49.5 2.5 q42 0 42 -41v-19q26 26 61.5 43t74.5 17q55 0 98.5 -13.5t74.5 -45.5t47.5 -84t16.5 -129zM464 265q0 41 -7 77.5t-22 64t-38.5 43.5t-56.5 16q-31 0 -58 -9.5t-41 -16.5v-171l3 -195q7 -2 13.5 -3t14.5 -2.5t19.5 -2t28.5 -0.5q37 0 64.5 15.5t45 42.5t26 63t8.5 78z" />
<glyph unicode="q" horiz-adv-x="611" d="M624 -160v-27t-4 -33h-314q-3 14 -3 31v26l51 14q26 8 33 28.5t8 43.5l3 138q-13 -11 -27.5 -23t-32 -21.5t-37 -16t-42.5 -6.5q-41 0 -81 10t-71.5 38.5t-51 81t-19.5 138.5q0 69 22 123.5t60 93t89 59t110 20.5q62 0 118 -8t104 -23v-306l5 -333q2 -19 8 -25.5 t20 -10.5zM402 465q-16 4 -36.5 8.5t-50.5 4.5q-40 0 -66.5 -16.5t-42 -45.5t-22 -68.5t-6.5 -84.5q0 -88 31 -125t92 -37q30 0 54 5t44 13l3 155v191z" />
<glyph unicode="r" horiz-adv-x="490" d="M455 415q-22 12 -44 17t-44 5q-40 0 -68.5 -8t-43.5 -20v-134l4 -162q0 -14 2.5 -18.5t10.5 -6.5l120 -25q0 -15 -0.5 -33.5t-5.5 -29.5h-347q-3 14 -4 29t-1 26l45 17q18 7 27.5 18t10.5 38l2 147v196h-90v65q37 7 86.5 14t91.5 7q18 0 31.5 -8t13.5 -31v-40 q10 14 25 28t33.5 25.5t40.5 18.5t46 7q33 0 56.5 -6.5t40.5 -15.5z" />
<glyph unicode="s" horiz-adv-x="500" d="M464 161q0 -49 -21.5 -82t-56 -53.5t-76.5 -29t-83 -8.5q-55 0 -103.5 12t-90.5 31l9 149l54 -1q7 -55 45 -84t94 -29q43 0 68 13.5t25 42.5q0 16 -8 27.5t-23 21t-37.5 19.5t-51.5 22q-27 11 -54.5 25.5t-49 35t-35 49t-13.5 67.5q0 43 17 75t46.5 53t68 31t81.5 10 q38 0 86 -9t99 -32l-19 -140l-49 6q-3 16 -12 33t-24 31t-37 22.5t-53 8.5q-46 0 -64 -16t-18 -36q0 -17 8.5 -28.5t24 -21.5t38 -19t49.5 -21q32 -13 62 -28t53 -35t37 -47.5t14 -64.5z" />
<glyph unicode="t" horiz-adv-x="458" d="M442 43q-30 -21 -77.5 -37.5t-108.5 -16.5q-42 0 -72.5 8.5t-50 28.5t-28.5 53t-9 82l3 298h-80v53l190 146h29v-112h183v-87h-183v-183l4 -113q1 -35 20 -49.5t61 -14.5q45 0 101 15z" />
<glyph unicode="u" d="M680 33q-27 -14 -65 -27t-83 -13q-38 0 -60 18t-24 62q-38 -35 -82 -59.5t-99 -24.5q-60 0 -94 13.5t-50.5 37t-20 55t-3.5 66.5v309h-85v60q41 9 82.5 17.5t76.5 8.5q30 0 46.5 -13t16.5 -42v-210l1 -104q0 -22 3 -39.5t10 -30t19.5 -19t32.5 -6.5q34 0 71 13t69 30 l4 138v197h-83v60q35 11 77 18.5t78 7.5q29 0 46.5 -13t17.5 -42v-229l5 -181h83z" />
<glyph unicode="v" horiz-adv-x="546" d="M53 426q-7 20 -18 32.5t-29 25.5q0 17 0.5 29.5t4.5 32.5h242v-13t-0.5 -23t-1 -22t-0.5 -11h-65l110 -334l112 274q5 10 2.5 21t-7.5 16q-5 11 -15 16.5t-18 8.5q-1 3 -7 10.5t-6 13.5q0 11 1 22.5t4 20.5h189v-10.5v-18t-0.5 -18t-0.5 -9.5q-13 -13 -27 -32t-28 -54 l-174 -400l-102 -28z" />
<glyph unicode="w" horiz-adv-x="860" d="M425 340l-129 -338l-105 -22l-134 442q-8 28 -19 39t-28 22q0 17 0.5 30t5.5 33h243v-13.5t-0.5 -22t-1 -21t-1.5 -12.5h-69l83 -330l130 383l95 25l141 -408l85 283q3 13 -3 26.5t-20 19.5l-30 11q0 3 -0.5 9.5t-0.5 14.5q0 9 1 18t3 17h190v-10v-17v-17v-9 q-14 -11 -29 -30t-28 -56l-144 -407l-100 -20z" />
<glyph unicode="x" horiz-adv-x="600" d="M582 60q0 -10 -1 -28t-6 -32h-240q-3 15 -4 29t-1 24l9 5q7 3 12 10.5t5 18.5q0 12 -10 25l-70 92l-86 -113q-5 -8 -5 -12q0 -7 10 -9l53 -12q0 -13 -1.5 -29.5t-6.5 -28.5h-215q-3 15 -4 28t-1 26q7 3 25 14t32 26l153 167l-130 169q-17 21 -31 32.5t-40 24.5 q0 6 -0.5 13t-0.5 14q0 17 3 32h248v-12.5t-0.5 -22.5t-1 -22t-1.5 -12h-52l103 -137l77 92q10 13 10 25q0 13 -11 19l-24 16q0 13 1 26.5t4 27.5h190q0 -15 -0.5 -27t-4.5 -24q-8 -2 -26.5 -16t-33.5 -31l-142 -159l153 -182q7 -9 13.5 -15.5t13 -11t15 -9.5t20.5 -11z" />
<glyph unicode="y" horiz-adv-x="559" d="M560 546v-11.5v-18.5t-0.5 -18t-0.5 -10q-17 -10 -31 -28t-29 -54l-215 -513q-20 -49 -55.5 -80t-75.5 -50l-78 112q26 11 51.5 25.5t45.5 31.5q18 14 29.5 28t18.5 28l-157 440q-7 20 -24 32.5t-43 24.5v28.5t5 32.5h260v-13.5v-22t-0.5 -21.5t-0.5 -12h-68l114 -348 l107 288q6 16 1 32.5t-19 22.5q-5 5 -17 7.5t-16 4.5q0 2 -0.5 9.5t-0.5 15.5q0 9 1 19t3 18h195v0z" />
<glyph unicode="z" horiz-adv-x="552" d="M497 0h-448l-22 58l330 384h-200q-26 0 -44.5 -21t-37.5 -47q-14 5 -24.5 9t-15.5 9l41 154h410l6 -77l-309 -364h190q16 0 33 8t31.5 20.5t26.5 27.5t19 28q22 -4 32 -8l15 -6z" />
<glyph unicode="&#xe1;" horiz-adv-x="573" d="M23 0zM570 47q-12 -11 -29 -21t-35.5 -17.5t-36.5 -12t-33 -4.5q-28 0 -46 5.5t-28.5 16t-15.5 26.5t-6 38q-11 -11 -28 -26t-39.5 -28.5t-49.5 -23t-57 -9.5q-63 0 -103 30.5t-40 95.5q0 45 18 76t47.5 51.5t67 32t76.5 17.5q33 5 62.5 8t42.5 4v63q0 42 -23.5 61 t-89.5 19q-27 0 -63.5 -5t-78.5 -16l-24 95q50 19 97.5 27.5t95.5 8.5q21 0 45.5 -0.5t49 -5t47.5 -14t40.5 -26.5t28 -42.5t10.5 -62.5v-135l7 -183h84zM337 239q-7 -1 -32 -3.5t-49 -7.5q-45 -9 -70 -27t-25 -52q0 -22 14.5 -36.5t46.5 -14.5q16 0 33.5 4t33.5 9t29 10 t19 7v111zM440 760q-32 -24 -61 -44.5t-58 -38.5t-59 -34t-63 -31l-34 52q31 22 58 43t51 42t47.5 43.5t48.5 48.5z" />
<glyph unicode="&#xe0;" horiz-adv-x="573" d="M23 0zM570 47q-12 -11 -29 -21t-35.5 -17.5t-36.5 -12t-33 -4.5q-28 0 -46 5.5t-28.5 16t-15.5 26.5t-6 38q-11 -11 -28 -26t-39.5 -28.5t-49.5 -23t-57 -9.5q-63 0 -103 30.5t-40 95.5q0 45 18 76t47.5 51.5t67 32t76.5 17.5q33 5 62.5 8t42.5 4v63q0 42 -23.5 61 t-89.5 19q-27 0 -63.5 -5t-78.5 -16l-24 95q50 19 97.5 27.5t95.5 8.5q21 0 45.5 -0.5t49 -5t47.5 -14t40.5 -26.5t28 -42.5t10.5 -62.5v-135l7 -183h84zM337 239q-7 -1 -32 -3.5t-49 -7.5q-45 -9 -70 -27t-25 -52q0 -22 14.5 -36.5t46.5 -14.5q16 0 33.5 4t33.5 9t29 10 t19 7v111zM191 840q25 -26 49 -48.5t48.5 -43.5t51.5 -41.5t59 -42.5l-34 -52q-67 30 -123.5 65t-119.5 82z" />
<glyph unicode="&#xe2;" horiz-adv-x="573" d="M23 0zM83 660q58 45 105 90.5t89 93.5q18 -20 40.5 -44.5t47 -49t48.5 -46.5t44 -37l-48 -54q-39 23 -77.5 53t-66.5 55q-25 -21 -62.5 -50t-79.5 -58zM570 47q-12 -11 -29 -21t-35.5 -17.5t-36.5 -12t-33 -4.5q-28 0 -46 5.5t-28.5 16t-15.5 26.5t-6 38q-11 -11 -28 -26 t-39.5 -28.5t-49.5 -23t-57 -9.5q-63 0 -103 30.5t-40 95.5q0 45 18 76t47.5 51.5t67 32t76.5 17.5q33 5 62.5 8t42.5 4v63q0 42 -23.5 61t-89.5 19q-27 0 -63.5 -5t-78.5 -16l-24 95q50 19 97.5 27.5t95.5 8.5q21 0 45.5 -0.5t49 -5t47.5 -14t40.5 -26.5t28 -42.5 t10.5 -62.5v-135l7 -183h84zM337 239q-7 -1 -32 -3.5t-49 -7.5q-45 -9 -70 -27t-25 -52q0 -22 14.5 -36.5t46.5 -14.5q16 0 33.5 4t33.5 9t29 10t19 7v111z" />
<glyph unicode="&#xe4;" horiz-adv-x="573" d="M23 0zM151 643q-6 0 -18 9.5t-24 21.5t-21 24t-9 18t9.5 18t21.5 24.5t24 21.5t17 9q6 0 18.5 -9.5t24.5 -21.5t21.5 -24t9.5 -18q0 -5 -9 -16.5t-21 -24.5t-24.5 -22.5t-19.5 -9.5zM379 643q-6 0 -18 9.5t-24 21.5t-21 24t-9 18t9.5 18t21.5 24.5t24 21.5t17 9 q6 0 18 -9.5t24.5 -21.5t22 -24t9.5 -18q0 -5 -9 -16.5t-21 -24.5t-24.5 -22.5t-19.5 -9.5zM570 47q-12 -11 -29 -21t-35.5 -17.5t-36.5 -12t-33 -4.5q-28 0 -46 5.5t-28.5 16t-15.5 26.5t-6 38q-11 -11 -28 -26t-39.5 -28.5t-49.5 -23t-57 -9.5q-63 0 -103 30.5t-40 95.5 q0 45 18 76t47.5 51.5t67 32t76.5 17.5q33 5 62.5 8t42.5 4v63q0 42 -23.5 61t-89.5 19q-27 0 -63.5 -5t-78.5 -16l-24 95q50 19 97.5 27.5t95.5 8.5q21 0 45.5 -0.5t49 -5t47.5 -14t40.5 -26.5t28 -42.5t10.5 -62.5v-135l7 -183h84zM337 239q-7 -1 -32 -3.5t-49 -7.5 q-45 -9 -70 -27t-25 -52q0 -22 14.5 -36.5t46.5 -14.5q16 0 33.5 4t33.5 9t29 10t19 7v111z" />
<glyph unicode="&#xe3;" horiz-adv-x="573" d="M23 0zM570 47q-12 -11 -29 -21t-35.5 -17.5t-36.5 -12t-33 -4.5q-28 0 -46 5.5t-28.5 16t-15.5 26.5t-6 38q-11 -11 -28 -26t-39.5 -28.5t-49.5 -23t-57 -9.5q-63 0 -103 30.5t-40 95.5q0 45 18 76t47.5 51.5t67 32t76.5 17.5q33 5 62.5 8t42.5 4v63q0 42 -23.5 61 t-89.5 19q-27 0 -63.5 -5t-78.5 -16l-24 95q50 19 97.5 27.5t95.5 8.5q21 0 45.5 -0.5t49 -5t47.5 -14t40.5 -26.5t28 -42.5t10.5 -62.5v-135l7 -183h84zM337 239q-7 -1 -32 -3.5t-49 -7.5q-45 -9 -70 -27t-25 -52q0 -22 14.5 -36.5t46.5 -14.5q16 0 33.5 4t33.5 9t29 10 t19 7v111zM466 732l-22 -28t-25 -26t-31.5 -19.5t-40.5 -7.5q-15 0 -39.5 6t-49.5 13.5t-48 14t-35 6.5q-20 0 -37 -5.5t-33 -19.5l-29 36q12 13 24.5 27.5t27 26.5t32.5 19.5t40 7.5q19 0 44 -6t50 -13t45.5 -13t30.5 -6q17 0 29 3t20 7q10 4 17 10l30 -33v0z" />
<glyph unicode="&#xe5;" horiz-adv-x="573" d="M23 0zM570 47q-12 -11 -29 -21t-35.5 -17.5t-36.5 -12t-33 -4.5q-28 0 -46 5.5t-28.5 16t-15.5 26.5t-6 38q-11 -11 -28 -26t-39.5 -28.5t-49.5 -23t-57 -9.5q-63 0 -103 30.5t-40 95.5q0 45 18 76t47.5 51.5t67 32t76.5 17.5q33 5 62.5 8t42.5 4v63q0 42 -23.5 61 t-89.5 19q-27 0 -63.5 -5t-78.5 -16l-24 95q50 19 97.5 27.5t95.5 8.5q21 0 45.5 -0.5t49 -5t47.5 -14t40.5 -26.5t28 -42.5t10.5 -62.5v-135l7 -183h84zM337 239q-7 -1 -32 -3.5t-49 -7.5q-45 -9 -70 -27t-25 -52q0 -22 14.5 -36.5t46.5 -14.5q16 0 33.5 4t33.5 9t29 10 t19 7v111zM400 737q0 -27 -12.5 -48.5t-31.5 -36t-41.5 -22.5t-42.5 -8q-19 0 -41.5 4t-42 15.5t-32.5 32t-13 52.5q0 28 11 50t29.5 37.5t41.5 23.5t47 8q20 0 42.5 -4t41.5 -15.5t31.5 -33t12.5 -55.5zM326 733q0 29 -14.5 46.5t-40.5 17.5q-29 0 -41.5 -16.5t-12.5 -45.5 t14 -47t41 -18q29 0 41.5 17t12.5 46z" />
<glyph unicode="&#x1fb;" horiz-adv-x="573" d="M23 0zM570 47q-12 -11 -29 -21t-35.5 -17.5t-36.5 -12t-33 -4.5q-28 0 -46 5.5t-28.5 16t-15.5 26.5t-6 38q-11 -11 -28 -26t-39.5 -28.5t-49.5 -23t-57 -9.5q-63 0 -103 30.5t-40 95.5q0 45 18 76t47.5 51.5t67 32t76.5 17.5q33 5 62.5 8t42.5 4v63q0 42 -23.5 61 t-89.5 19q-27 0 -63.5 -5t-78.5 -16l-24 95q50 19 97.5 27.5t95.5 8.5q21 0 45.5 -0.5t49 -5t47.5 -14t40.5 -26.5t28 -42.5t10.5 -62.5v-135l7 -183h84zM337 239q-7 -1 -32 -3.5t-49 -7.5q-45 -9 -70 -27t-25 -52q0 -22 14.5 -36.5t46.5 -14.5q16 0 33.5 4t33.5 9t29 10 t19 7v111zM157 910q67 23 133 50t128 62l43 -96q-29 -12 -63.5 -23.5t-72 -21.5t-76 -19t-74.5 -16zM412 728q0 -27 -12.5 -48.5t-31.5 -36t-41.5 -22.5t-42.5 -8q-19 0 -41.5 4t-42 15.5t-32.5 32t-13 52.5q0 28 11 50.5t29.5 38t41.5 23.5t47 8q21 0 43.5 -4t41 -16 t31 -33.5t12.5 -55.5zM338 724q0 29 -14.5 46.5t-40.5 17.5q-29 0 -41.5 -16.5t-12.5 -45.5t14 -47t41 -18q29 0 41.5 17t12.5 46z" />
<glyph unicode="&#xe7;" horiz-adv-x="530" d="M35 0zM502 464q0 -23 -14 -47t-44 -37q-17 19 -33.5 36t-33.5 30t-36 20.5t-41 7.5q-26 0 -48.5 -10.5t-39.5 -33.5t-27 -58.5t-10 -85.5q0 -93 40.5 -141.5t125.5 -48.5q31 0 65 5.5t66 11.5l23 -72q-35 -23 -81.5 -38t-115.5 -15q-72 0 -122.5 18t-81.5 52t-45 82 t-14 107q0 72 19.5 130t57 98.5t92.5 62t127 21.5q26 0 56 -4t55.5 -15t42.5 -29.5t17 -46.5zM415 -169q0 -23 -12 -45.5t-31.5 -40.5t-44.5 -29t-52 -11q-49 0 -101 34l40 71q20 -14 45 -21.5t46 -7.5q18 0 30 6t12 18q0 15 -11 25t-30.5 17.5t-45 13t-53.5 10.5l59 138h72 l-42 -75q60 -14 89.5 -36t29.5 -67z" />
<glyph unicode="&#x107;" horiz-adv-x="530" d="M35 0zM461 760q-32 -24 -61 -44.5t-58 -38.5t-59 -34t-63 -31l-34 52q31 22 58 43t51 42t47.5 43.5t48.5 48.5zM502 464q0 -23 -14 -47t-44 -37q-17 19 -33.5 36t-33.5 30t-36 20.5t-41 7.5q-26 0 -48.5 -10.5t-39.5 -33.5t-27 -58.5t-10 -85.5q0 -93 40.5 -141.5 t125.5 -48.5q31 0 65 5.5t66 11.5l23 -72q-35 -23 -81.5 -38t-115.5 -15q-72 0 -122.5 18t-81.5 52t-45 82t-14 107q0 72 19.5 130t57 98.5t92.5 62t127 21.5q26 0 56 -4t55.5 -15t42.5 -29.5t17 -46.5z" />
<glyph unicode="&#x10d;" horiz-adv-x="530" d="M35 0zM491 787q-58 -45 -104.5 -90.5t-89.5 -93.5q-18 20 -40.5 44.5t-47 49t-48.5 46.5t-44 37l49 53q38 -23 76.5 -53t67.5 -54q24 20 61.5 49t80.5 58l39 -46v0zM502 464q0 -23 -14 -47t-44 -37q-17 19 -33.5 36t-33.5 30t-36 20.5t-41 7.5q-26 0 -48.5 -10.5 t-39.5 -33.5t-27 -58.5t-10 -85.5q0 -93 40.5 -141.5t125.5 -48.5q31 0 65 5.5t66 11.5l23 -72q-35 -23 -81.5 -38t-115.5 -15q-72 0 -122.5 18t-81.5 52t-45 82t-14 107q0 72 19.5 130t57 98.5t92.5 62t127 21.5q26 0 56 -4t55.5 -15t42.5 -29.5t17 -46.5z" />
<glyph unicode="&#x111;" horiz-adv-x="645" d="M539 613v-334l4 -188h81l10 -50q-32 -18 -72 -33t-96 -15q-19 0 -31.5 7.5t-20 19.5t-10.5 26.5t-3 28.5q-11 -12 -25.5 -26.5t-32.5 -26.5t-39.5 -20.5t-46.5 -8.5q-41 0 -80.5 10t-70.5 38t-50.5 79t-19.5 132q0 69 22 124t60 94t89 59.5t110 20.5q29 0 49 -1.5 t38 -3.5v68h-174v79h174v72h135v-72h84v-79h-84zM404 464q-17 4 -38.5 7.5t-51.5 3.5q-40 0 -66 -16.5t-41.5 -45.5t-21.5 -69.5t-6 -88.5q0 -38 9.5 -66.5t26 -47t39.5 -27.5t49 -9q31 0 54 8t43 15l4 152v184z" />
<glyph unicode="&#xe9;" horiz-adv-x="568" d="M34 0zM462 760q-32 -24 -61 -44.5t-58 -38.5t-59 -34t-63 -31l-34 52q31 22 58 43t51 42t47.5 43.5t48.5 48.5zM176 257q2 -50 16 -80.5t36.5 -48t53.5 -23.5t67 -6q29 0 67.5 3.5t84.5 14.5l23 -75q-52 -28 -103.5 -40.5t-113.5 -12.5q-54 0 -103.5 11t-87 39.5 t-60 77.5t-22.5 125q0 69 19 127.5t55 100.5t87 65.5t116 23.5q60 0 102.5 -20t69.5 -55t39.5 -82.5t12.5 -103.5v-41h-359zM389 324q0 71 -21.5 115t-73.5 44q-28 0 -50 -12.5t-37.5 -34t-24 -50.5t-9.5 -62h216z" />
<glyph unicode="&#xe8;" horiz-adv-x="568" d="M34 0zM176 257q2 -50 16 -80.5t36.5 -48t53.5 -23.5t67 -6q29 0 67.5 3.5t84.5 14.5l23 -75q-52 -28 -103.5 -40.5t-113.5 -12.5q-54 0 -103.5 11t-87 39.5t-60 77.5t-22.5 125q0 69 19 127.5t55 100.5t87 65.5t116 23.5q60 0 102.5 -20t69.5 -55t39.5 -82.5t12.5 -103.5 v-41h-359zM389 324q0 71 -21.5 115t-73.5 44q-28 0 -50 -12.5t-37.5 -34t-24 -50.5t-9.5 -62h216zM210 840q25 -26 49 -48.5t48.5 -43.5t51.5 -41.5t59 -42.5l-34 -52q-67 30 -123.5 65t-119.5 82z" />
<glyph unicode="&#xea;" horiz-adv-x="568" d="M34 0zM116 660q58 45 105 90.5t89 93.5q18 -20 40.5 -44.5t47 -49t48.5 -46.5t44 -37l-48 -54q-39 23 -77.5 53t-66.5 55q-25 -21 -62.5 -50t-79.5 -58zM176 257q2 -50 16 -80.5t36.5 -48t53.5 -23.5t67 -6q29 0 67.5 3.5t84.5 14.5l23 -75q-52 -28 -103.5 -40.5 t-113.5 -12.5q-54 0 -103.5 11t-87 39.5t-60 77.5t-22.5 125q0 69 19 127.5t55 100.5t87 65.5t116 23.5q60 0 102.5 -20t69.5 -55t39.5 -82.5t12.5 -103.5v-41h-359zM389 324q0 71 -21.5 115t-73.5 44q-28 0 -50 -12.5t-37.5 -34t-24 -50.5t-9.5 -62h216z" />
<glyph unicode="&#xeb;" horiz-adv-x="568" d="M34 0zM181 643q-6 0 -18 9.5t-24 21.5t-21 24t-9 18t9.5 18t21.5 24.5t24 21.5t17 9q6 0 18.5 -9.5t24.5 -21.5t21.5 -24t9.5 -18q0 -5 -9 -16.5t-21 -24.5t-24.5 -22.5t-19.5 -9.5zM409 643q-6 0 -18 9.5t-24 21.5t-21 24t-9 18t9.5 18t21.5 24.5t24 21.5t17 9 q6 0 18 -9.5t24.5 -21.5t22 -24t9.5 -18q0 -5 -9 -16.5t-21 -24.5t-24.5 -22.5t-19.5 -9.5zM176 257q2 -50 16 -80.5t36.5 -48t53.5 -23.5t67 -6q29 0 67.5 3.5t84.5 14.5l23 -75q-52 -28 -103.5 -40.5t-113.5 -12.5q-54 0 -103.5 11t-87 39.5t-60 77.5t-22.5 125 q0 69 19 127.5t55 100.5t87 65.5t116 23.5q60 0 102.5 -20t69.5 -55t39.5 -82.5t12.5 -103.5v-41h-359zM389 324q0 71 -21.5 115t-73.5 44q-28 0 -50 -12.5t-37.5 -34t-24 -50.5t-9.5 -62h216z" />
<glyph unicode="&#xed;" horiz-adv-x="362" d="M29 0zM353 760q-32 -24 -61 -44.5t-58 -38.5t-59 -34t-63 -31l-34 52q31 22 58 43t51 42t47.5 43.5t48.5 48.5zM350 58q0 -14 -1 -30t-4 -28h-310q-4 19 -4 56l60 19q14 4 20.5 16t7.5 28l3 154v199h-93v65q21 4 45 8t48.5 7t47 4.5t40.5 1.5q23 0 35.5 -8.5t12.5 -34.5 v-242l2 -161q0 -19 4 -26.5t12 -9.5l74 -18v0z" />
<glyph unicode="&#xec;" horiz-adv-x="362" d="M6 0zM350 58q0 -14 -1 -30t-4 -28h-310q-4 19 -4 56l60 19q14 4 20.5 16t7.5 28l3 154v199h-93v65q21 4 45 8t48.5 7t47 4.5t40.5 1.5q23 0 35.5 -8.5t12.5 -34.5v-242l2 -161q0 -19 4 -26.5t12 -9.5l74 -18v0zM75 840q25 -26 49 -48.5t48.5 -43.5t51.5 -41.5t59 -42.5 l-34 -52q-67 30 -123.5 65t-119.5 82z" />
<glyph unicode="&#xee;" horiz-adv-x="362" d="M0 0zM-5 660q58 45 105 90.5t89 93.5q18 -20 40.5 -44.5t47 -49t48.5 -46.5t44 -37l-48 -54q-39 23 -77.5 53t-66.5 55q-25 -21 -62.5 -50t-79.5 -58zM350 58q0 -14 -1 -30t-4 -28h-310q-4 19 -4 56l60 19q14 4 20.5 16t7.5 28l3 154v199h-93v65q21 4 45 8t48.5 7t47 4.5 t40.5 1.5q23 0 35.5 -8.5t12.5 -34.5v-242l2 -161q0 -19 4 -26.5t12 -9.5l74 -18v0z" />
<glyph unicode="&#xef;" horiz-adv-x="362" d="M70 640q-6 0 -18 9.5t-24 21.5t-21.5 24t-9.5 17q0 6 9.5 18.5t21.5 24.5t24 21t18 9t18 -9.5t24.5 -21.5t22 -24t9.5 -18q0 -5 -9 -16.5t-21.5 -24t-25 -22t-18.5 -9.5zM284 640q-6 0 -18 9.5t-24 21.5t-21 24t-9 17q0 6 9.5 18.5t21.5 24.5t24 21t17 9q6 0 18 -9.5 t24.5 -21.5t22 -24t9.5 -18q0 -5 -9 -16.5t-21 -24t-24.5 -22t-19.5 -9.5zM350 58q0 -14 -1 -30t-4 -28h-310q-4 19 -4 56l60 19q14 4 20.5 16t7.5 28l3 154v199h-93v65q21 4 45 8t48.5 7t47 4.5t40.5 1.5q23 0 35.5 -8.5t12.5 -34.5v-242l2 -161q0 -19 4 -26.5t12 -9.5 l74 -18v0z" />
<glyph unicode="&#x131;" horiz-adv-x="362" d="M350 58q0 -14 -1 -30t-4 -28h-310q-4 19 -4 56l60 19q14 4 20.5 16t7.5 28l3 154v199h-93v65q21 4 45 8t48.5 7t47 4.5t40.5 1.5q23 0 35.5 -8.5t12.5 -34.5v-242l2 -161q0 -19 4 -26.5t12 -9.5l74 -18v0z" />
<glyph unicode="&#x140;" horiz-adv-x="473" d="M16 0zM411 269q-8 0 -23.5 12t-31 27.5t-27.5 31t-12 23.5q0 7 12 22.5t27.5 31t31 27.5t23.5 12t23.5 -12t31 -27.5t27 -31t11.5 -22.5t-11.5 -22.5t-27 -31.5t-31 -28t-23.5 -12zM335 58q0 -19 -1 -32.5t-4 -25.5h-309q-2 14 -3 25t-1 28l57 17q16 5 22 16.5t6 29.5 l4 158v404h-90v65q17 4 40.5 8t48.5 7t48.5 4.5t41.5 1.5q23 0 35 -9t12 -35v-446l3 -163q1 -14 3 -23.5t11 -11.5l76 -18v0z" />
<glyph unicode="&#xf1;" horiz-adv-x="711" d="M29 0zM561 732l-22 -28t-25 -26t-31.5 -19.5t-40.5 -7.5q-15 0 -39.5 6t-49.5 13.5t-48 14t-35 6.5q-20 0 -37 -5.5t-33 -19.5l-29 36q12 13 24.5 27.5t27 26.5t32.5 19.5t40 7.5q19 0 44 -6t50 -13t45.5 -13t30.5 -6q17 0 29 3t20 7q10 4 17 10l30 -33v0zM698 57 q0 -20 -1 -33t-5 -24h-268q-2 14 -3.5 27t0.5 29l32 17q14 8 18.5 19.5t4.5 24.5l3 157v63q0 27 -2 49.5t-11 38t-27 24t-49 8.5q-19 0 -39 -2.5t-39 -6.5t-34.5 -9t-25.5 -10v-155l2 -161q0 -14 2 -23.5t13 -13.5l62 -18q0 -19 -0.5 -32.5t-4.5 -25.5h-285q-2 11 -3 25.5 t0 27.5l47 18q15 6 21.5 18t6.5 29l3 156v196h-87v65q20 4 44.5 8t49 7t47 4.5t40.5 1.5q22 0 30 -8.5t8 -27.5v-31q15 11 33 23t41.5 22.5t51.5 17t62 6.5q64 0 100.5 -13.5t53.5 -37.5t21 -57.5t4 -72.5v-103l3 -176q1 -12 3 -17.5t11 -7.5l66 -16v0z" />
<glyph unicode="&#xf3;" horiz-adv-x="608" d="M33 0zM466 760q-32 -24 -61 -44.5t-58 -38.5t-59 -34t-63 -31l-34 52q31 22 58 43t51 42t47.5 43.5t48.5 48.5zM575 277q0 -54 -21 -106t-58.5 -92.5t-88 -65t-110.5 -24.5q-124 0 -194 67t-70 210q0 55 21.5 107.5t58 93.5t86.5 66.5t107 25.5q269 0 269 -282zM428 274 q0 35 -5 70.5t-19 64t-40.5 46.5t-68.5 18q-40 0 -63 -19.5t-35 -48.5t-15.5 -64.5t-3.5 -66.5q0 -38 6 -73.5t21 -62.5t41 -43t67 -16q36 0 58.5 16t35 43t17 62t4.5 74z" />
<glyph unicode="&#xf2;" horiz-adv-x="608" d="M33 0zM219 840q25 -26 49 -48.5t48.5 -43.5t51.5 -41.5t59 -42.5l-34 -52q-67 30 -123.5 65t-119.5 82zM575 277q0 -54 -21 -106t-58.5 -92.5t-88 -65t-110.5 -24.5q-124 0 -194 67t-70 210q0 55 21.5 107.5t58 93.5t86.5 66.5t107 25.5q269 0 269 -282zM428 274 q0 35 -5 70.5t-19 64t-40.5 46.5t-68.5 18q-40 0 -63 -19.5t-35 -48.5t-15.5 -64.5t-3.5 -66.5q0 -38 6 -73.5t21 -62.5t41 -43t67 -16q36 0 58.5 16t35 43t17 62t4.5 74z" />
<glyph unicode="&#xf4;" horiz-adv-x="608" d="M33 0zM123 660q58 45 105 90.5t89 93.5q18 -20 40.5 -44.5t47 -49t48.5 -46.5t44 -37l-48 -54q-39 23 -77.5 53t-66.5 55q-25 -21 -62.5 -50t-79.5 -58zM575 277q0 -54 -21 -106t-58.5 -92.5t-88 -65t-110.5 -24.5q-124 0 -194 67t-70 210q0 55 21.5 107.5t58 93.5 t86.5 66.5t107 25.5q269 0 269 -282zM428 274q0 35 -5 70.5t-19 64t-40.5 46.5t-68.5 18q-40 0 -63 -19.5t-35 -48.5t-15.5 -64.5t-3.5 -66.5q0 -38 6 -73.5t21 -62.5t41 -43t67 -16q36 0 58.5 16t35 43t17 62t4.5 74z" />
<glyph unicode="&#xf6;" horiz-adv-x="608" d="M33 0zM189 643q-6 0 -18 9.5t-24 21.5t-21 24t-9 18t9.5 18t21.5 24.5t24 21.5t17 9q6 0 18.5 -9.5t24.5 -21.5t21.5 -24t9.5 -18q0 -5 -9 -16.5t-21 -24.5t-24.5 -22.5t-19.5 -9.5zM417 643q-6 0 -18 9.5t-24 21.5t-21 24t-9 18t9.5 18t21.5 24.5t24 21.5t17 9 q6 0 18 -9.5t24.5 -21.5t22 -24t9.5 -18q0 -5 -9 -16.5t-21 -24.5t-24.5 -22.5t-19.5 -9.5zM575 277q0 -54 -21 -106t-58.5 -92.5t-88 -65t-110.5 -24.5q-124 0 -194 67t-70 210q0 55 21.5 107.5t58 93.5t86.5 66.5t107 25.5q269 0 269 -282zM428 274q0 35 -5 70.5t-19 64 t-40.5 46.5t-68.5 18q-40 0 -63 -19.5t-35 -48.5t-15.5 -64.5t-3.5 -66.5q0 -38 6 -73.5t21 -62.5t41 -43t67 -16q36 0 58.5 16t35 43t17 62t4.5 74z" />
<glyph unicode="&#xf5;" horiz-adv-x="608" d="M33 0zM575 277q0 -54 -21 -106t-58.5 -92.5t-88 -65t-110.5 -24.5q-124 0 -194 67t-70 210q0 55 21.5 107.5t58 93.5t86.5 66.5t107 25.5q269 0 269 -282zM428 274q0 35 -5 70.5t-19 64t-40.5 46.5t-68.5 18q-40 0 -63 -19.5t-35 -48.5t-15.5 -64.5t-3.5 -66.5 q0 -38 6 -73.5t21 -62.5t41 -43t67 -16q36 0 58.5 16t35 43t17 62t4.5 74zM499 732l-22 -28t-25 -26t-31.5 -19.5t-40.5 -7.5q-15 0 -39.5 6t-49.5 13.5t-48 14t-35 6.5q-20 0 -37 -5.5t-33 -19.5l-29 36q12 13 24.5 27.5t27 26.5t32.5 19.5t40 7.5q19 0 44 -6t50 -13 t45.5 -13t30.5 -6q17 0 29 3t20 7q10 4 17 10l30 -33v0z" />
<glyph unicode="&#xf8;" horiz-adv-x="607" d="M572 549q-13 -16 -26.5 -33.5t-30.5 -37.5q60 -69 60 -201q0 -54 -21 -105.5t-58.5 -91.5t-88 -64t-110.5 -24q-50 0 -91 10.5t-73 32.5q-39 -42 -72 -75l-45 40q17 19 35 38t36 39q-26 33 -40 79.5t-14 109.5q0 55 21 107t58 93t87 66t107 25q101 0 166 -41 q15 20 29.5 37t27.5 34zM394 424q-15 21 -39 34.5t-60 13.5q-40 0 -63 -19t-35 -48.5t-15.5 -64.5t-3.5 -66q0 -47 9 -86q54 60 106.5 119.5t100.5 116.5zM428 274q0 23 -2 45t-7 43q-49 -58 -101.5 -119t-103.5 -118q15 -20 39.5 -32.5t59.5 -12.5q36 0 58.5 16t35 42.5 t17 61.5t4.5 74z" />
<glyph unicode="&#x1ff;" horiz-adv-x="607" d="M16 0zM572 549q-13 -16 -26.5 -33.5t-30.5 -37.5q60 -69 60 -201q0 -54 -21 -105.5t-58.5 -91.5t-88 -64t-110.5 -24q-50 0 -91 10.5t-73 32.5q-39 -42 -72 -75l-45 40q17 19 35 38t36 39q-26 33 -40 79.5t-14 109.5q0 55 21 107t58 93t87 66t107 25q101 0 166 -41 q15 20 29.5 37t27.5 34zM394 424q-15 21 -39 34.5t-60 13.5q-40 0 -63 -19t-35 -48.5t-15.5 -64.5t-3.5 -66q0 -47 9 -86q54 60 106.5 119.5t100.5 116.5zM428 274q0 23 -2 45t-7 43q-49 -58 -101.5 -119t-103.5 -118q15 -20 39.5 -32.5t59.5 -12.5q36 0 58.5 16t35 42.5 t17 61.5t4.5 74zM462 760q-32 -24 -61 -44.5t-58 -38.5t-59 -34t-63 -31l-34 52q31 22 58 43t51 42t47.5 43.5t48.5 48.5z" />
<glyph unicode="&#x161;" horiz-adv-x="500" d="M33 0zM449 787q-58 -45 -104.5 -90.5t-89.5 -93.5q-18 20 -40.5 44.5t-47 49t-48.5 46.5t-44 37l49 53q38 -23 76.5 -53t67.5 -54q24 20 61.5 49t80.5 58l39 -46v0zM464 161q0 -49 -21.5 -82t-56 -53.5t-76.5 -29t-83 -8.5q-55 0 -103.5 12t-90.5 31l9 149l54 -1 q7 -55 45 -84t94 -29q43 0 68 13.5t25 42.5q0 16 -8 27.5t-23 21t-37.5 19.5t-51.5 22q-27 11 -54.5 25.5t-49 35t-35 49t-13.5 67.5q0 43 17 75t46.5 53t68 31t81.5 10q38 0 86 -9t99 -32l-19 -140l-49 6q-3 16 -12 33t-24 31t-37 22.5t-53 8.5q-46 0 -64 -16t-18 -36 q0 -17 8.5 -28.5t24 -21.5t38 -19t49.5 -21q32 -13 62 -28t53 -35t37 -47.5t14 -64.5z" />
<glyph unicode="&#xdf;" horiz-adv-x="739" d="M725 152q0 -47 -19 -78.5t-49.5 -50.5t-70 -27t-80.5 -8q-28 0 -50 3t-42 8.5t-38.5 13.5t-39.5 18l9 141h23h17.5t11.5 -1q8 -49 34.5 -79t77.5 -30q40 0 62.5 16t22.5 47q0 23 -17.5 40.5t-43 33t-56 32t-56 37t-43 48.5t-17.5 67q0 38 18.5 65t41 50.5t41 46.5 t18.5 53q0 25 -9.5 42t-25 28t-36.5 16t-44 5t-43.5 -6t-36 -18.5t-24.5 -31.5t-9 -44v-309l7 -280h-224q-2 12 -3.5 26t-0.5 28l51 18q17 5 23.5 23t6.5 37l3 148v191h-80v57l80 18v21q0 41 20 78t55.5 64.5t83 43.5t102.5 16q28 0 68 -5t76.5 -22t62.5 -49.5t26 -87.5 q0 -29 -9.5 -50t-23.5 -37t-30.5 -29t-30.5 -24.5t-23.5 -23.5t-9.5 -26q0 -21 18 -36t45 -29t58.5 -29.5t58.5 -37.5t45 -53.5t18 -77.5z" />
<glyph unicode="&#xfa;" d="M14 0zM516 760q-32 -24 -61 -44.5t-58 -38.5t-59 -34t-63 -31l-34 52q31 22 58 43t51 42t47.5 43.5t48.5 48.5zM680 33q-27 -14 -65 -27t-83 -13q-38 0 -60 18t-24 62q-38 -35 -82 -59.5t-99 -24.5q-60 0 -94 13.5t-50.5 37t-20 55t-3.5 66.5v309h-85v60q41 9 82.5 17.5 t76.5 8.5q30 0 46.5 -13t16.5 -42v-210l1 -104q0 -22 3 -39.5t10 -30t19.5 -19t32.5 -6.5q34 0 71 13t69 30l4 138v197h-83v60q35 11 77 18.5t78 7.5q29 0 46.5 -13t17.5 -42v-229l5 -181h83z" />
<glyph unicode="&#xf9;" d="M14 0zM680 33q-27 -14 -65 -27t-83 -13q-38 0 -60 18t-24 62q-38 -35 -82 -59.5t-99 -24.5q-60 0 -94 13.5t-50.5 37t-20 55t-3.5 66.5v309h-85v60q41 9 82.5 17.5t76.5 8.5q30 0 46.5 -13t16.5 -42v-210l1 -104q0 -22 3 -39.5t10 -30t19.5 -19t32.5 -6.5q34 0 71 13 t69 30l4 138v197h-83v60q35 11 77 18.5t78 7.5q29 0 46.5 -13t17.5 -42v-229l5 -181h83zM224 844q25 -26 49 -48.5t48.5 -43.5t51.5 -41.5t59 -42.5l-34 -52q-67 30 -123.5 65t-119.5 82z" />
<glyph unicode="&#xfb;" d="M14 0zM144 660q58 45 105 90.5t89 93.5q18 -20 40.5 -44.5t47 -49t48.5 -46.5t44 -37l-48 -54q-39 23 -77.5 53t-66.5 55q-25 -21 -62.5 -50t-79.5 -58zM680 33q-27 -14 -65 -27t-83 -13q-38 0 -60 18t-24 62q-38 -35 -82 -59.5t-99 -24.5q-60 0 -94 13.5t-50.5 37 t-20 55t-3.5 66.5v309h-85v60q41 9 82.5 17.5t76.5 8.5q30 0 46.5 -13t16.5 -42v-210l1 -104q0 -22 3 -39.5t10 -30t19.5 -19t32.5 -6.5q34 0 71 13t69 30l4 138v197h-83v60q35 11 77 18.5t78 7.5q29 0 46.5 -13t17.5 -42v-229l5 -181h83z" />
<glyph unicode="&#xfc;" d="M14 0zM214 643q-6 0 -18 9.5t-24 21.5t-21 24t-9 18t9.5 18t21.5 24.5t24 21.5t17 9q6 0 18.5 -9.5t24.5 -21.5t21.5 -24t9.5 -18q0 -5 -9 -16.5t-21 -24.5t-24.5 -22.5t-19.5 -9.5zM442 643q-6 0 -18 9.5t-24 21.5t-21 24t-9 18t9.5 18t21.5 24.5t24 21.5t17 9 q6 0 18 -9.5t24.5 -21.5t22 -24t9.5 -18q0 -5 -9 -16.5t-21 -24.5t-24.5 -22.5t-19.5 -9.5zM680 33q-27 -14 -65 -27t-83 -13q-38 0 -60 18t-24 62q-38 -35 -82 -59.5t-99 -24.5q-60 0 -94 13.5t-50.5 37t-20 55t-3.5 66.5v309h-85v60q41 9 82.5 17.5t76.5 8.5 q30 0 46.5 -13t16.5 -42v-210l1 -104q0 -22 3 -39.5t10 -30t19.5 -19t32.5 -6.5q34 0 71 13t69 30l4 138v197h-83v60q35 11 77 18.5t78 7.5q29 0 46.5 -13t17.5 -42v-229l5 -181h83z" />
<glyph unicode="&#xff;" horiz-adv-x="559" d="M0 0zM181 643q-6 0 -18 9.5t-24 21.5t-21 24t-9 18t9.5 18t21.5 24.5t24 21.5t17 9q6 0 18.5 -9.5t24.5 -21.5t21.5 -24t9.5 -18q0 -5 -9 -16.5t-21 -24.5t-24.5 -22.5t-19.5 -9.5zM409 643q-6 0 -18 9.5t-24 21.5t-21 24t-9 18t9.5 18t21.5 24.5t24 21.5t17 9 q6 0 18 -9.5t24.5 -21.5t22 -24t9.5 -18q0 -5 -9 -16.5t-21 -24.5t-24.5 -22.5t-19.5 -9.5zM560 546v-11.5v-18.5t-0.5 -18t-0.5 -10q-17 -10 -31 -28t-29 -54l-215 -513q-20 -49 -55.5 -80t-75.5 -50l-78 112q26 11 51.5 25.5t45.5 31.5q18 14 29.5 28t18.5 28l-157 440 q-7 20 -24 32.5t-43 24.5v28.5t5 32.5h260v-13.5v-22t-0.5 -21.5t-0.5 -12h-68l114 -348l107 288q6 16 1 32.5t-19 22.5q-5 5 -17 7.5t-16 4.5q0 2 -0.5 9.5t-0.5 15.5q0 9 1 19t3 18h195v0z" />
<glyph unicode="&#xfd;" horiz-adv-x="559" d="M0 0zM560 546v-11.5v-18.5t-0.5 -18t-0.5 -10q-17 -10 -31 -28t-29 -54l-215 -513q-20 -49 -55.5 -80t-75.5 -50l-78 112q26 11 51.5 25.5t45.5 31.5q18 14 29.5 28t18.5 28l-157 440q-7 20 -24 32.5t-43 24.5v28.5t5 32.5h260v-13.5v-22t-0.5 -21.5t-0.5 -12h-68 l114 -348l107 288q6 16 1 32.5t-19 22.5q-5 5 -17 7.5t-16 4.5q0 2 -0.5 9.5t-0.5 15.5q0 9 1 19t3 18h195v0zM475 760q-32 -24 -61 -44.5t-58 -38.5t-59 -34t-63 -31l-34 52q31 22 58 43t51 42t47.5 43.5t48.5 48.5z" />
<glyph unicode="&#x17e;" horiz-adv-x="552" d="M27 0zM466 787q-58 -45 -104.5 -90.5t-89.5 -93.5q-18 20 -40.5 44.5t-47 49t-48.5 46.5t-44 37l49 53q38 -23 76.5 -53t67.5 -54q24 20 61.5 49t80.5 58l39 -46v0zM497 0h-448l-22 58l330 384h-200q-26 0 -44.5 -21t-37.5 -47q-14 5 -24.5 9t-15.5 9l41 154h410l6 -77 l-309 -364h190q16 0 33 8t31.5 20.5t26.5 27.5t19 28q22 -4 32 -8l15 -6z" />
<glyph unicode="&#xfe;" horiz-adv-x="621" d="M584 284q0 -86 -25 -142.5t-66.5 -89.5t-94 -46.5t-107.5 -13.5q-24 0 -40 0.5t-30 2.5l4 -106q0 -18 7.5 -23t24.5 -10l74 -15q1 -15 0.5 -28.5t-5.5 -32.5h-322q-5 19 -5 32.5v24.5l34 13q22 8 32 25t10 36l3 360v408h-90v62q15 4 36.5 8.5t45.5 8t49.5 5.5t49.5 2 q42 0 42 -42v-221q28 25 63 40t73 15q55 0 98.5 -14t74.5 -46t47.5 -84t16.5 -129zM438 265q0 41 -7 78t-22 64.5t-38.5 43.5t-55.5 16q-30 0 -58.5 -6.5t-41.5 -11.5v-180l4 -199q6 -1 12 -1.5t14.5 -1t20 -1t29.5 -0.5q37 0 64.5 15.5t44.5 42.5t25.5 63t8.5 78z" />
<glyph unicode="&#xf0;" horiz-adv-x="626" d="M298 -8q-62 0 -111 16t-83 49.5t-52 85.5t-18 123q0 55 21 107t58 93t87 66t107 25q29 0 55.5 -5t52.5 -17q-8 28 -22.5 54t-34.5 49l-126 -48l-18 57l101 37q-19 17 -39 31.5t-40 28.5l67 66q35 -18 65.5 -38.5t56.5 -45.5l131 50l19 -56l-107 -41q57 -73 82.5 -167.5 t25.5 -226.5q0 -58 -21 -111t-58.5 -93.5t-88 -64.5t-110.5 -24zM314 80q36 0 59 16t35.5 43t17.5 62t5 73q0 35 -5.5 70.5t-20 64t-41 46t-68.5 17.5q-40 0 -63.5 -19t-36 -48.5t-16 -64.5t-3.5 -66q0 -38 6 -73t22 -62t42 -43t67 -16z" />
<glyph unicode="&#xe6;" horiz-adv-x="867" d="M474 244q2 -45 15.5 -73t36.5 -43.5t53.5 -21t66.5 -5.5q28 0 68 2.5t85 13.5l24 -75q-43 -24 -98 -37t-104 -13q-43 0 -79.5 4t-67.5 14t-55 27t-41 43q-19 -16 -41.5 -32t-48 -28.5t-54.5 -20t-60 -7.5q-32 0 -59.5 6.5t-47.5 21.5t-32 39t-12 59q0 45 18.5 76.5 t48.5 51.5t68.5 31.5t77.5 16.5q25 3 52 5t49 3v74q0 21 -4.5 35.5t-17 23t-34.5 12.5t-57 4q-27 0 -62.5 -5t-79.5 -17l-24 95q50 20 97.5 28t95.5 8q22 0 49 -2t53 -8.5t48.5 -20t37.5 -36.5q32 32 72.5 49.5t91.5 17.5q63 0 107 -20.5t71.5 -56.5t40 -84.5t12.5 -104.5 v-35zM688 328q0 32 -4.5 60t-15 48.5t-28.5 32t-45 11.5q-60 0 -90 -45t-33 -123zM352 136q-14 45 -16 103q-20 -2 -45.5 -3.5t-47.5 -6.5q-51 -11 -69.5 -31.5t-18.5 -49.5q0 -19 14.5 -35.5t44.5 -16.5q29 0 64 11t74 29z" />
<glyph unicode="&#x1fd;" horiz-adv-x="867" d="M23 0zM603 760q-32 -24 -61 -44.5t-58 -38.5t-59 -34t-63 -31l-34 52q31 22 58 43t51 42t47.5 43.5t48.5 48.5zM474 244q2 -45 15.5 -73t36.5 -43.5t53.5 -21t66.5 -5.5q28 0 68 2.5t85 13.5l24 -75q-43 -24 -98 -37t-104 -13q-43 0 -79.5 4t-67.5 14t-55 27t-41 43 q-19 -16 -41.5 -32t-48 -28.5t-54.5 -20t-60 -7.5q-32 0 -59.5 6.5t-47.5 21.5t-32 39t-12 59q0 45 18.5 76.5t48.5 51.5t68.5 31.5t77.5 16.5q25 3 52 5t49 3v74q0 21 -4.5 35.5t-17 23t-34.5 12.5t-57 4q-27 0 -62.5 -5t-79.5 -17l-24 95q50 20 97.5 28t95.5 8q22 0 49 -2 t53 -8.5t48.5 -20t37.5 -36.5q32 32 72.5 49.5t91.5 17.5q63 0 107 -20.5t71.5 -56.5t40 -84.5t12.5 -104.5v-35zM688 328q0 32 -4.5 60t-15 48.5t-28.5 32t-45 11.5q-60 0 -90 -45t-33 -123zM352 136q-14 45 -16 103q-20 -2 -45.5 -3.5t-47.5 -6.5q-51 -11 -69.5 -31.5 t-18.5 -49.5q0 -19 14.5 -35.5t44.5 -16.5q29 0 64 11t74 29z" />
<glyph unicode="&#x153;" horiz-adv-x="966" d="M573 253q2 -49 16 -79t36.5 -46t53 -21.5t66.5 -5.5q28 0 68 2.5t85 13.5l24 -75q-43 -24 -98 -37t-104 -13q-82 0 -141.5 16.5t-94.5 64.5q-35 -37 -82 -59t-104 -22q-124 0 -194 67t-70 210q0 55 21.5 106.5t58 92t86.5 65t107 24.5q143 0 208 -86q33 40 80 63t107 23 q63 0 107 -20t71 -55.5t39.5 -83.5t12.5 -104v-41h-359zM786 320q1 71 -22 115.5t-70 44.5q-59 0 -90.5 -44t-33.5 -116h216zM430 280q0 35 -5 69.5t-20 61.5t-41 44t-68 17q-40 0 -63.5 -20t-36 -50.5t-16 -66.5t-3.5 -67q0 -38 6 -72.5t21.5 -60t42 -40.5t67.5 -15 q36 0 58.5 17t35 44.5t17.5 63.5t5 75z" />
<glyph unicode="&#x133;" horiz-adv-x="714" d="M30 0zM35 0q-4 19 -4 56l61 19q14 4 20.5 16t6.5 28l3 154v197h-92v65q20 4 44 8t48.5 7t47 5t40.5 2q24 0 36 -9t12 -35v-240l2 -161q1 -19 5 -26.5t12 -9.5l74 -18q0 -14 -1 -30t-5 -28h-310zM187 636q-8 0 -22.5 11.5t-29 26.5t-25.5 29.5t-11 20.5q0 8 11 22.5t26 29 t29.5 25.5t21.5 11q6 0 20.5 -11t30 -26t27 -29.5t11.5 -21.5q0 -5 -11 -19.5t-26 -29.5t-30 -27t-22 -12zM420 -225q-26 0 -49 4.5t-41 13.5l33 106q16 -8 34.5 -13t41.5 -5q35 0 50.5 23t15.5 77v489h-89v65q20 4 44 8t48 7t46 5t40 2q24 0 35.5 -9t11.5 -35v-240l1 -229 q0 -54 -21 -102.5t-53.5 -85.5t-72 -59t-75.5 -22zM572 636q-7 0 -21.5 11.5t-29 26.5t-25.5 29.5t-11 21.5t11 22t25.5 29.5t29 25.5t21.5 11q6 0 21 -11t30 -26t26.5 -29.5t11.5 -21.5q0 -5 -11 -19.5t-26 -30t-30 -27.5t-22 -12z" />
<glyph unicode="," horiz-adv-x="257" d="M227 25q0 -28 -15 -61t-38.5 -65.5t-52.5 -60.5t-57 -46l-42 38q10 11 22.5 25.5t24 30.5t21 32.5t12.5 31.5q-11 8 -23.5 20.5t-23.5 25.5t-18.5 24t-7.5 16q0 9 12.5 25.5t29 32t33 27.5t23.5 12q9 0 25.5 -12t33 -28.5t29 -35.5t12.5 -32z" />
<glyph unicode="." horiz-adv-x="252" d="M223 35q0 -7 -12 -23.5t-28.5 -33t-32.5 -29t-24 -12.5t-24 12.5t-32 29t-28.5 32.5t-12.5 24t12.5 24t28.5 32t32 28t24 12q7 0 23.5 -12t32.5 -28t28.5 -32t12.5 -24z" />
<glyph unicode=":" horiz-adv-x="286" d="M240 485q0 -7 -12.5 -23.5t-29 -33t-32.5 -29t-24 -12.5t-23.5 12.5t-32 29t-28.5 32.5t-12 24t12.5 24t28.5 32t32 28t23 12t23.5 -12t33 -28t29 -32t12.5 -24zM240 35q0 -7 -12.5 -23.5t-29 -33t-32.5 -29t-24 -12.5t-23.5 12.5t-32 29t-28.5 32.5t-12 24t12.5 24 t28.5 32t32 28t23 12t23.5 -12t33 -28t29 -32t12.5 -24z" />
<glyph unicode=";" horiz-adv-x="289" d="M236 484q0 -7 -12.5 -23.5t-29 -33t-32.5 -29t-24 -12.5t-23.5 12.5t-32 29t-28.5 32.5t-12 24t12.5 24t28.5 32t32 28t23 12t23.5 -12t33 -28t29 -32t12.5 -24zM250 25q0 -28 -15 -61t-39 -65.5t-53 -60.5t-57 -46l-42 38q10 11 23 25.5t24.5 30.5t20.5 32.5t12 31.5 q-11 8 -23.5 20.5t-23 25.5t-18 24t-7.5 16q0 9 12.5 25.5t29 32t32.5 27.5t24 12q9 0 25.5 -12t33 -28.5t29 -35.5t12.5 -32z" />
<glyph unicode="?" horiz-adv-x="379" d="M380 547q0 -44 -15 -77.5t-38 -60t-49.5 -48t-49.5 -40.5t-38 -38.5t-15 -41.5q0 -11 2 -19.5t5 -17.5l-87 -20q-10 21 -18 40q-7 17 -12 33.5t-5 25.5q0 29 15.5 55t38.5 49.5t49.5 45.5t49.5 43t38.5 41.5t15.5 41.5q0 6 -4.5 17t-15.5 21.5t-30 18t-47 7.5 q-20 0 -36.5 -3t-32 -8t-32 -11t-36.5 -12q-20 31 -20 54q0 24 12 39t31.5 23.5t42.5 11.5t46 3q49 0 92 -15t75 -39.5t50 -55.5t18 -63zM238 35q0 -7 -11.5 -22t-27 -30.5t-31 -27t-22.5 -11.5t-22 11.5t-30 26.5t-26.5 30t-11.5 23t11.5 23t26.5 30t30 26t22 11 t22.5 -11.5t31 -26.5t27 -30t11.5 -22z" />
<glyph unicode="&#xbf;" horiz-adv-x="379" d="M324 651q0 -8 -11.5 -23t-26.5 -30t-30 -26.5t-22 -11.5t-22 11.5t-30.5 26.5t-27 30t-11.5 23q0 6 11.5 21t26.5 30.5t30 27.5t23 12q7 0 22 -11.5t30 -27t26.5 -30.5t11.5 -22zM367 43q0 -24 -12.5 -39t-31.5 -23.5t-42.5 -11.5t-45.5 -3q-50 0 -93 15t-75 39.5t-50 55 t-18 62.5q0 44 15.5 77.5t38 60t49.5 48t49.5 40.5t38 38.5t15.5 41.5q0 11 -2.5 20t-4.5 17l87 20q9 -22 17 -41q7 -17 12.5 -33t5.5 -25q0 -29 -15.5 -54.5t-38 -49.5t-49.5 -46t-49.5 -43t-38 -41.5t-15.5 -41.5q0 -6 4.5 -17t15.5 -21.5t29.5 -18t46.5 -7.5 q39 0 68.5 11.5t68.5 23.5q20 -33 20 -54z" />
<glyph unicode="!" horiz-adv-x="284" d="M192 211h-98l-32 494l80 41l81 -41zM231 41q0 -7 -11.5 -22t-27 -30.5t-31 -27t-22.5 -11.5t-21.5 11.5t-29.5 26.5t-26.5 30t-11.5 23t11.5 23t26.5 30t30 26t21 11q7 0 22.5 -11.5t31 -26.5t27 -30t11.5 -22z" />
<glyph unicode="&#xa1;" horiz-adv-x="283" d="M233 655q0 -8 -11.5 -23.5t-26.5 -30.5t-29.5 -26t-21.5 -11q-8 0 -23 11.5t-30.5 26.5t-27 30t-11.5 23q0 6 11.5 21t27 30.5t30.5 27t23 11.5q7 0 22 -11.5t30 -26.5t26 -30t11 -22zM141 -51l-81 41l32 494h98l31 -494z" />
<glyph unicode="&#xad;" horiz-adv-x="433" d="M77 315v73l281 14v-88z" />
<glyph unicode="-" horiz-adv-x="433" d="M77 315v73l281 14v-88z" />
<glyph unicode="&#x2013;" horiz-adv-x="593" d="M76 336v78h440v-78h-440z" />
<glyph unicode="&#x2014;" horiz-adv-x="1037" d="M76 336v78h884v-78h-884z" />
<glyph unicode="_" horiz-adv-x="500" d="M0 -164v79h500v-79h-500z" />
<glyph horiz-adv-x="724" d="M341 -137q-150 0 -229.5 83.5t-79.5 249.5q0 121 34 208t90.5 143t130.5 82t155 26q59 0 109 -15.5t86 -50t56 -89.5t20 -133t-18 -133t-48.5 -89.5t-70.5 -50.5t-84 -16q-17 0 -32 4.5t-26.5 14.5t-17 24t-3.5 34q-20 -29 -50.5 -49.5t-60.5 -20.5q-21 0 -41 8 t-35.5 24.5t-25 42t-9.5 60.5q0 49 17.5 90.5t46.5 71.5t68 46.5t83 16.5q39 0 74.5 -8.5t52.5 -15.5l-26 -229q-6 -45 13 -45q15 0 36 8.5t40 32t32 66t13 111.5q0 67 -16 111.5t-43.5 71t-64 37.5t-78.5 11q-64 0 -124 -19t-106.5 -64.5t-74.5 -120t-28 -185.5 q0 -80 16.5 -133.5t48 -86.5t76.5 -47t103 -14q38 0 78.5 5.5t69.5 12.5l14 -55q-40 -17 -80 -21.5t-91 -4.5zM340 170q26 0 43 12.5t31 24.5l20 167q-3 1 -12.5 2.5t-13.5 1.5q-32 2 -54.5 -9t-36 -31.5t-19.5 -48t-6 -57.5q0 -34 15 -48t33 -14z" />
<glyph unicode="&#x26;" horiz-adv-x="759" d="M785 36q-20 -24 -51 -38t-66 -14q-59 0 -120.5 24.5t-115.5 59.5q-17 -17 -38.5 -31t-46.5 -24.5t-51 -16t-51 -5.5q-38 0 -74.5 9t-65 28.5t-46.5 51.5t-18 78q0 30 11.5 57.5t30.5 50.5t43.5 41.5t49.5 32.5q-23 35 -34.5 76t-11.5 83q0 45 18 84.5t48 69t68 47 t77 17.5q85 0 129 -35.5t44 -98.5q0 -38 -19 -71t-48 -59.5t-63.5 -47t-65.5 -33.5q31 -48 75.5 -96.5t97.5 -88.5q9 16 13 31t4 25q0 27 -14 47.5t-40 37.5q0 11 0.5 21.5t4.5 21.5h188v-27q-7 -21 -21.5 -46t-32 -49.5t-36.5 -46.5t-35 -37q44 -31 89.5 -52t87.5 -26 q17 -5 36.5 -6.5t34.5 1.5zM392 572q0 34 -18.5 54.5t-51.5 20.5q-35 0 -56.5 -24t-21.5 -67q0 -33 13.5 -74t36.5 -73q45 33 71.5 72.5t26.5 90.5zM384 104q-24 18 -48.5 41t-48 48t-44 50.5t-37.5 49.5q-38 -33 -38 -88q0 -34 11 -57.5t29.5 -37.5t41.5 -20.5t47 -6.5 q26 0 47.5 6t39.5 15z" />
<glyph unicode="/" horiz-adv-x="315" d="M84 -62h-90l238 831h88z" />
<glyph unicode="\" horiz-adv-x="315" d="M-5 769h88l237 -831h-89z" />
<glyph unicode="|" horiz-adv-x="245" d="M76 -220v974h92v-974h-92z" />
<glyph unicode="(" horiz-adv-x="296" d="M238 -135q-9 8 -28 27t-42.5 49.5t-48.5 72t-45.5 94.5t-34 117.5t-13.5 140.5t13.5 139t34 113.5t46 89.5t49.5 66.5t43.5 44t28.5 23.5l49 -51q-14 -11 -44.5 -42.5t-61.5 -84t-54.5 -126.5t-23.5 -171q0 -98 24 -175.5t55 -134.5t61.5 -92t43.5 -47l-52 -53v0z" />
<glyph unicode=")" horiz-adv-x="296" d="M270 366q0 -76 -13.5 -140.5t-34 -117.5t-45.5 -94.5t-48.5 -72t-43 -49.5t-28.5 -27l-51 53q13 12 43 47t61.5 92t55.5 134.5t24 175.5q0 64 -11 118.5t-28.5 99.5t-39 79.5t-42 60.5t-37.5 42t-26 24l49 51q9 -7 28.5 -23.5t43.5 -44t49.5 -66.5t46 -89.5t34 -113.5 t13.5 -139z" />
<glyph unicode="[" horiz-adv-x="292" d="M78 -113v937h180v-77h-92v-783h92v-77h-180z" />
<glyph unicode="]" horiz-adv-x="292" d="M33 -112v77h93v782h-93v77h180v-936h-180z" />
<glyph unicode="{" horiz-adv-x="320" d="M285 -111q-40 -1 -78.5 6.5t-68 27t-45 53t-9.5 86.5l20 165q2 16 -2 32t-14 28.5t-27 20t-42 7.5v79q48 0 68.5 27t16.5 62l-20 174q-5 51 10 83.5t43.5 51t66 25t77.5 6.5h35l-1 -71h-32q-60 0 -91 -23.5t-25 -74.5l20 -160q1 -8 1.5 -15t0.5 -13q0 -45 -17 -71.5 t-46 -38.5q28 -13 44 -40.5t16 -70.5v-12.5t-1 -13.5l-21 -158q-5 -48 25 -72t93 -24h32l1 -76h-30z" />
<glyph unicode="}" horiz-adv-x="319" d="M301 315q-25 0 -42 -7.5t-27 -20t-14 -28.5t-2 -32l20 -165q6 -53 -10 -86.5t-45 -53t-67.5 -27t-78.5 -6.5h-30l1 76h32q63 0 93 24t25 72l-21 158q-1 7 -1 13.5v13.5q0 42 15.5 69.5t44.5 40.5q-29 13 -46 39t-17 71q0 6 0.5 13t1.5 15l20 160q5 51 -25.5 74.5 t-90.5 23.5h-32l-1 71h34q40 0 78 -7t66.5 -25t43.5 -50.5t10 -83.5l-20 -174q-4 -35 16.5 -62t68.5 -27v-79v0z" />
<glyph unicode="&#xa7;" horiz-adv-x="524" d="M31 0zM503 712q0 -22 -11 -41t-22 -30q-8 7 -20 16t-25.5 16.5t-27 13t-24.5 5.5q-27 0 -36.5 -18.5t-9.5 -41.5q0 -20 3.5 -40t6.5 -37l69 -350q9 -45 13.5 -86.5t4.5 -73.5q0 -60 -19 -110.5t-55 -86.5t-89 -56t-120 -20q-19 0 -38.5 3.5t-35.5 12.5t-26 23.5t-10 36.5 q0 21 8.5 35t22.5 24q3 -2 13.5 -10t23 -17t24.5 -16t17 -7q13 0 21.5 8.5t12.5 20.5t5.5 25.5t1.5 23.5q0 29 -4 57t-9 56l-68 361q-5 24 -7.5 48.5t-2.5 49.5q0 62 21 112t60 85t93.5 53.5t121.5 18.5q16 0 36 -2t38 -8.5t30.5 -19.5t12.5 -34zM328 12q0 26 -3 50.5 t-8 49.5l-72 397q-4 21 -6 44t-2 46q0 18 2 38t9 38l-2 2q-35 -25 -47 -66t-12 -82q-1 -23 1.5 -44t6.5 -38l73 -407q3 -18 5.5 -38t2.5 -42q0 -21 -3 -44t-12 -46l2 -2q18 12 30 30t20 38t11.5 40t3.5 36z" />
<glyph horiz-adv-x="600" d="M538 712q0 -22 -11 -41t-22 -30q-8 7 -20 16t-25.5 16.5t-27 13t-24.5 5.5q-27 0 -36.5 -18.5t-9.5 -41.5q0 -20 3.5 -40t6.5 -37l69 -350q9 -45 13.5 -86.5t4.5 -73.5q0 -60 -19 -110.5t-55 -86.5t-89 -56t-120 -20q-19 0 -38.5 3.5t-35.5 12.5t-26 23.5t-10 36.5 q0 21 8.5 35t22.5 24q3 -2 13.5 -10t23 -17t24.5 -16t17 -7q13 0 21.5 8.5t12.5 20.5t5.5 25.5t1.5 23.5q0 29 -4 57t-9 56l-68 361q-5 24 -7.5 48.5t-2.5 49.5q0 62 21 112t60 85t93.5 53.5t121.5 18.5q16 0 36 -2t38 -8.5t30.5 -19.5t12.5 -34zM363 12q0 26 -3 50.5 t-8 49.5l-72 397q-4 21 -6 44t-2 46q0 18 2 38t9 38l-2 2q-35 -25 -47 -66t-12 -82q-1 -23 1.5 -44t6.5 -38l73 -407q3 -18 5.5 -38t2.5 -42q0 -21 -3 -44t-12 -46l2 -2q18 12 30 30t20 38t11.5 40t3.5 36z" />
<glyph unicode="&#x2022;" horiz-adv-x="363" d="M327 352q0 -32 -11.5 -58.5t-31 -45.5t-46 -29.5t-56.5 -10.5t-56.5 10.5t-46 30t-31 45.5t-11.5 58q0 31 11.5 58t31 46t46 30t56.5 11t56.5 -11t46 -30t31 -46t11.5 -58z" />
<glyph unicode="&#x2020;" horiz-adv-x="549" d="M493 336l-176 27l27 -391l-69 -22l-70 22l27 391l-176 -27l-22 55l22 57l176 -27l-27 182l69 22l70 -22l-27 -182l176 27l22 -57z" />
<glyph unicode="'" horiz-adv-x="210" d="M48 755h135l-33 -252h-102v252z" />
<glyph unicode="&#x22;" horiz-adv-x="443" d="M48 755h134l-32 -252h-102v252zM281 755h135l-33 -252h-102v252z" />
<glyph unicode="&#x201c;" horiz-adv-x="487" d="M462 711q-9 -10 -21 -23t-22.5 -28t-18.5 -30t-10 -30q10 -8 21.5 -19.5t21.5 -23.5t17 -22.5t7 -15.5q0 -9 -11.5 -24.5t-26.5 -30.5t-30.5 -26t-23.5 -11q-11 0 -27.5 11.5t-31.5 27.5t-25.5 33.5t-10.5 29.5q0 30 13.5 61.5t35 60.5t49 53.5t55.5 41.5zM218 711 q-10 -10 -21.5 -23t-22 -28t-18.5 -30t-10 -30q10 -8 21.5 -19.5t21.5 -23.5t16.5 -22.5t6.5 -15.5q0 -9 -11.5 -24.5t-26.5 -30.5t-30.5 -26t-23.5 -11q-11 0 -27 11.5t-31 27.5t-25.5 33.5t-10.5 29.5q0 30 13.5 61.5t35 60.5t48.5 53.5t55 41.5z" />
<glyph unicode="&#x201d;" horiz-adv-x="491" d="M472 633q0 -30 -13.5 -61.5t-35 -60.5t-48.5 -54t-55 -41l-40 36q10 10 21.5 23t22.5 27.5t19 29.5t10 30q-10 7 -22 19t-22 24t-16.5 22.5t-6.5 15.5q0 10 11.5 25.5t26.5 30.5t30.5 25.5t23.5 10.5q11 0 27 -11t31 -27t25.5 -33.5t10.5 -30.5zM228 633 q0 -30 -13.5 -61.5t-35 -60.5t-49 -54t-55.5 -41l-39 36q10 10 21.5 23t22 27.5t18.5 29.5t10 30q-10 7 -21.5 19t-21.5 24t-17 22.5t-7 15.5q0 10 11.5 25.5t26.5 30.5t30.5 25.5t23.5 10.5q11 0 27.5 -11t31.5 -27t25.5 -33.5t10.5 -30.5z" />
<glyph unicode="&#x2018;" horiz-adv-x="242" d="M218 711q-10 -10 -21.5 -23t-22 -27.5t-18.5 -29.5t-10 -30q10 -8 21.5 -19.5t21.5 -23.5t16.5 -22.5t6.5 -15.5q0 -10 -11.5 -25.5t-26.5 -30.5t-30.5 -25.5t-23.5 -10.5q-11 0 -27 11.5t-31 27.5t-25.5 33.5t-10.5 29.5q0 30 13.5 61.5t35 60.5t48.5 53.5t55 41.5 l40 -36v0z" />
<glyph unicode="&#x2019;" horiz-adv-x="246" d="M228 633q0 -30 -13.5 -61.5t-35 -60.5t-49 -54t-55.5 -41l-39 36q10 10 21.5 23t22 27.5t18.5 29.5t10 30q-10 7 -21.5 19t-21.5 24t-17 22.5t-7 15.5q0 10 11.5 25.5t26.5 30.5t30.5 25.5t23.5 10.5q11 0 27.5 -11t31.5 -27t25.5 -33.5t10.5 -30.5z" />
<glyph unicode="&#x201a;" horiz-adv-x="250" d="M218 32q0 -31 -13.5 -62.5t-35 -60.5t-49 -53.5t-55.5 -40.5l-39 35q9 10 21 23.5t22.5 28t18.5 29.5t10 29q-10 7 -21.5 19t-21.5 24t-17 23t-7 16q0 9 11.5 24.5t26.5 30.5t30.5 26t23.5 11q11 0 27.5 -11.5t31.5 -27.5t25.5 -33.5t10.5 -29.5z" />
<glyph unicode="&#x201e;" horiz-adv-x="495" d="M463 32q0 -30 -13.5 -61.5t-35 -60.5t-49 -54t-55.5 -41l-39 36q9 10 21 23t22.5 27.5t18.5 29.5t10 30q-10 7 -21.5 19t-21.5 24t-17 22.5t-7 15.5q0 10 11.5 25.5t26.5 30.5t30.5 25.5t23.5 10.5q11 0 27.5 -11t31.5 -27t25.5 -33.5t10.5 -30.5zM218 32 q0 -30 -13.5 -61.5t-35 -60.5t-48.5 -54t-55 -41l-40 36q10 10 21.5 23t22.5 27.5t19 29.5t10 30q-10 7 -22 19t-22 24t-16.5 22.5t-6.5 15.5q0 10 11.5 25.5t26.5 30.5t30.5 25.5t23.5 10.5q11 0 27 -11t31 -27t25.5 -33.5t10.5 -30.5z" />
<glyph unicode="&#x203a;" horiz-adv-x="281" d="M246 362q-19 -29 -37.5 -59t-34.5 -60t-29 -58t-21 -52q-11 2 -23.5 5.5t-23.5 5.5q-13 3 -26 5q7 25 16.5 52.5t21 55.5t23.5 55t24 50q-14 21 -27.5 47t-25 54t-22 56.5t-18.5 54.5q11 2 23.5 5t22.5 5q11 3 23 5q20 -48 54.5 -106.5t79.5 -120.5z" />
<glyph unicode="&#x2039;" horiz-adv-x="281" d="M239 574q-8 -26 -18.5 -54.5t-22.5 -56.5t-25 -54t-28 -47q12 -23 24.5 -50t24 -55t21 -55.5t16.5 -52.5q-13 -2 -26 -5q-11 -2 -23.5 -5.5t-23.5 -5.5q-8 24 -21.5 52t-29.5 58t-34.5 60t-36.5 59q45 62 79 120.5t54 106.5q11 -2 23 -5q10 -2 22.5 -5t24.5 -5z" />
<glyph unicode="&#xab;" horiz-adv-x="479" d="M443 560q-17 -52 -38 -104t-50 -94q23 -46 45 -99t36 -103q-13 -2 -26 -5q-11 -2 -23.5 -5.5t-23.5 -5.5q-17 48 -49 104.5t-69 113.5q45 62 77 113.5t52 99.5q11 -2 22 -5q10 -2 22.5 -5t24.5 -5zM238 574q-8 -26 -18.5 -54.5t-22 -56.5t-25 -54t-27.5 -47 q12 -23 24 -50t23.5 -55t21.5 -55.5t17 -52.5q-13 -2 -26 -5q-11 -2 -24 -5.5t-24 -5.5q-8 24 -21 52t-29.5 58t-35 60t-36.5 59q45 62 79.5 120.5t54.5 106.5q11 -2 22 -5q10 -2 22.5 -5t24.5 -5z" />
<glyph unicode="&#xbb;" horiz-adv-x="479" d="M444 363q-19 -29 -37.5 -59t-34.5 -60t-29 -58t-21 -52q-11 2 -24 5t-24 5q-13 3 -26 5q7 25 17 52.5t21.5 55.5t23.5 55t24 50q-29 43 -53 101.5t-41 110.5q26 6 47 11q11 3 23 5q20 -48 54.5 -106.5t79.5 -120.5zM234 363q-38 -57 -69.5 -113.5t-47.5 -104.5 q-11 2 -24 5.5t-24 5.5q-13 3 -26 5q14 49 36 102.5t45 98.5q-29 42 -50.5 94t-38.5 104q26 6 47 11q12 3 24 5q19 -48 51 -99.5t77 -113.5z" />
<glyph unicode="*" horiz-adv-x="399" d="M363 493l-28 -27l-95 52l-7 -110l-34 -10l-35 10v112l-102 -54l-24 24l-9 36l95 57l-95 60l7 36l27 24l102 -55v114l34 10l35 -10l8 -111l94 52l28 -23l6 -36l-99 -58l99 -59z" />
<glyph horiz-adv-x="258" d="M129 269q-8 0 -23.5 12t-31 27.5t-27.5 31t-12 23.5q0 7 12 22.5t27.5 31t31 27.5t23.5 12t23.5 -12t31 -27.5t27 -31t11.5 -22.5t-11.5 -22.5t-27 -31.5t-31 -28t-23.5 -12z" />
<glyph unicode="&#xb7;" horiz-adv-x="245" d="M123 319q-7 0 -21.5 11t-29.5 26t-26 29.5t-11 21.5t11 21.5t26 29t29.5 25.5t21.5 11t22 -11t29 -25.5t25 -29t11 -21.5q0 -6 -11 -20.5t-25 -29.5t-29 -26.5t-22 -11.5z" />
<glyph unicode="+" horiz-adv-x="509" d="M301 259l2 -224h-98l2 224l-193 -2v86l193 -2l-2 224h98l-2 -224l193 2v-86z" />
<glyph unicode="&#x3c;" horiz-adv-x="519" d="M485 121l-42 -79l-438 234v48l438 234l42 -79l-335 -179z" />
<glyph unicode="=" horiz-adv-x="644" d="M82 355v87h480v-87h-480zM82 161v86h480v-86h-480z" />
<glyph unicode="&#x3e;" horiz-adv-x="519" d="M369 300l-335 179l42 79l438 -234v-48l-438 -234l-42 79z" />
<glyph unicode="&#x401;" horiz-adv-x="664" d="M35 0zM234 756q-6 0 -18 9.5t-24 21.5t-21 24t-9 18t9.5 18t21.5 24.5t24 21.5t17 9q6 0 18.5 -9.5t24.5 -22t21.5 -24.5t9.5 -17t-9 -16.5t-21 -24.5t-24.5 -22.5t-19.5 -9.5zM467 756q-6 0 -18 9.5t-24.5 21.5t-21.5 24t-9 18t9.5 18t21.5 24.5t24 21.5t18 9t18 -9.5 t24.5 -22t22 -24.5t9.5 -17t-9 -16.5t-21 -24.5t-24.5 -22.5t-19.5 -9.5zM610 0h-570q-3 15 -4 30.5t0 28.5l52 13q17 5 29.5 15.5t12.5 27.5l3 164v298q0 25 -8 35t-20 15l-63 26v25q1 8 1.5 15t3.5 14h549v-164q-13 -2 -32.5 -3t-30.5 -1q-10 48 -29.5 65t-52.5 17l-178 5 v-230l271 5v-92l-271 5v-36l5 -197l151 4q54 2 90.5 25.5t54.5 73.5l61 -13z" />
<glyph unicode="&#x402;" horiz-adv-x="828" d="M657 522q-5 -2 -13 -2.5t-16.5 -1t-16 -0.5t-11.5 1q-9 47 -30.5 73.5t-63.5 28.5l-118 4v-228q44 17 93.5 30t107.5 13q100 -1 158 -55.5t58 -153.5q0 -74 -21 -141.5t-54.5 -125.5t-75.5 -104.5t-83 -79.5l-60 63q31 35 58 75t46.5 85.5t30.5 96t11 106.5 q0 39 -10.5 66.5t-28 44.5t-40.5 25t-48 8q-29 0 -64.5 -7t-78.5 -28v-46l5 -157q0 -18 3.5 -26t17.5 -11l83 -21v-10.5t-0.5 -16t-1.5 -16t-2 -11.5h-346q-2 11 -3.5 26.5t-0.5 25.5l60 21q25 9 34 33t9 45l3 122v352l-93 -4q-37 -2 -56 -30t-27 -72q-3 -1 -11 -1.5 t-16.5 0t-17 1.5t-13.5 3v185h643v-185z" />
<glyph unicode="&#x406;" horiz-adv-x="403" d="M41 0zM367 61q0 -14 -0.5 -30t-5.5 -31h-314q-6 24 -4 54l43 15q17 6 30 20.5t14 40.5l3 148v294q0 25 -15 41.5t-36 24.5l-37 16q-1 12 -1 25.5t3 27.5h308q2 -17 2 -31.5t-2 -27.5l-43 -10q-23 -6 -31 -24t-8 -39v-297l2 -170q1 -16 6 -22t19 -10l67 -15v0z" />
<glyph unicode="&#x408;" horiz-adv-x="384" d="M0 0zM310 639q-23 -6 -30.5 -14t-7.5 -30v-501q0 -56 -21 -98t-55 -75t-76.5 -57.5t-85.5 -43.5l-44 78q42 26 69.5 48t43.5 49t22 62.5t6 88.5v419q0 25 -12 45.5t-36 28.5l-44 15q0 13 1 29t4 24h310q2 -11 3 -28.5t0 -27.5z" />
<glyph unicode="&#x409;" horiz-adv-x="982" d="M132 189q15 22 25.5 68.5t19 103t14 116t10.5 106.5q2 19 -4 35.5t-24 21.5l-49 19q0 7 1 23.5t3 24.5h558q1 -20 0.5 -34t-3.5 -25l-47 -11q-20 -6 -26.5 -19t-6.5 -30v-174h85q60 0 111.5 -11t89.5 -35t60 -63t22 -96t-22 -97.5t-62 -65.5t-94.5 -36t-119.5 -11l-301 1 q-4 14 -4.5 28t-0.5 29l48 14q18 5 32 18.5t14 36.5l3 152v347h-173l-13 -146q-11 -89 -20 -170t-30 -147t-62.5 -113.5t-117.5 -70.5l-55 143q43 11 82.5 26.5t56.5 41.5zM821 206q0 57 -35.5 91.5t-116.5 35.5l-66 1l2 -254h62q83 1 118.5 32t35.5 94z" />
<glyph unicode="&#x40a;" horiz-adv-x="1108" d="M614 0h-115q-4 15 -4.5 28.5t-0.5 29.5l48 13q18 5 32 18.5t14 36.5l3 153v49h-323v-50l4 -164q0 -20 7.5 -28.5t28.5 -13.5l71 -18q0 -14 -1.5 -29.5t-4.5 -24.5h-327q-2 12 -3.5 25t-1.5 27l50 19q21 8 29 22.5t8 39.5l1 145v312q0 40 -32 51l-22 8l-30 10v24.5t4 23.5 h297q3 -13 4 -24.5t1 -24.5l-51 -15q-17 -5 -24.5 -16.5t-7.5 -34.5v-183h323v172q0 23 -16 40t-35 23l-37 12q0 17 0.5 28.5t2.5 22.5h307q3 -31 -2 -59l-47 -11q-20 -6 -27 -19t-7 -30v-179h86q59 0 110.5 -10.5t89.5 -34.5t60 -62.5t22 -95.5t-22 -97t-62 -64.5 t-94.5 -35t-118.5 -10.5zM794 80q83 1 118.5 30.5t35.5 92.5q0 57 -35 90.5t-117 34.5h-66v-39l2 -209h62z" />
<glyph unicode="&#x40b;" horiz-adv-x="874" d="M657 707v-185q-5 -2 -13 -2.5t-16.5 -1t-16 -0.5t-11.5 1q-9 47 -30.5 73.5t-63.5 28.5l-118 4v-228q44 17 90.5 30t104.5 13q106 -1 159 -44.5t53 -139.5v-144q0 -20 8 -28.5t22 -13.5q13 -3 24 -7q10 -3 19 -6t14 -4q0 -13 -0.5 -27t-4.5 -26h-303q-6 24 -4 50l45 15 q23 7 32.5 27t9.5 44v101q0 34 -9 55.5t-25.5 34.5t-38.5 18t-48 5q-29 0 -67.5 -7t-81.5 -28v-46l5 -157q0 -18 3.5 -26t17.5 -11l83 -21v-10.5t-0.5 -16t-1.5 -16t-2 -11.5h-346q-2 11 -3.5 26.5t-0.5 25.5l60 21q25 9 34 33t9 45l3 122v352l-93 -4q-37 -2 -56 -30 t-27 -72q-3 -1 -11 -1.5t-16.5 0t-17 1.5t-13.5 3v185h643z" />
<glyph unicode="&#x40e;" horiz-adv-x="659" d="M0 0zM142 90q60 19 97 39q20 11 35.5 28t26.5 36l-231 377q-21 32 -38.5 53t-49.5 35v18v18t2 13h287q2 -11 3 -28t1 -28l-51 -19q-8 -3 -11.5 -10.5t-3.5 -15.5q0 -10 3.5 -18.5t8.5 -17.5l149 -254l111 262q4 9 4 22q0 25 -17 34l-43 22v16q0 11 0.5 20.5t2.5 14.5h249 q2 -10 2.5 -25.5t0.5 -25.5q-12 -5 -25 -10t-25 -11.5t-22 -16t-16 -22.5l-222 -477q-29 -65 -69.5 -99t-86.5 -51zM340 764q-39 0 -71.5 11t-56 29t-36.5 41.5t-13 48.5l124 34v-86q7 -12 22.5 -18.5t31.5 -6.5q15 0 31 6.5t22 18.5v86l123 -34q0 -25 -13.5 -48.5 t-37 -41.5t-56 -29t-70.5 -11z" />
<glyph unicode="&#x40f;" horiz-adv-x="851" d="M44 0q-2 12 -3.5 26t-1.5 28l54 18q20 7 27.5 17.5t7.5 35.5l2 153v315q-1 20 -8 31t-24 17l-22 8q-9 3 -17.5 5.5t-13.5 4.5q0 13 0.5 24.5t4.5 23.5h297q3 -13 4 -24.5t1 -24.5l-51 -15q-17 -5 -24.5 -16.5t-7.5 -34.5v-314l4 -194h308l4 195v306q0 47 -37 58l-47 16 q-2 13 -2 25t3 23h296q2 -14 2 -26.5t-1 -22.5l-47 -15q-14 -5 -21.5 -13.5t-7.5 -28.5v-323l4 -154q1 -24 5.5 -34.5t15.5 -13.5l71 -21q0 -16 -0.5 -30t-5.5 -25h-322l4 -183h-135l3 183h-319z" />
<glyph unicode="&#x410;" horiz-adv-x="721" d="M0 0zM710 53q0 -14 -1 -27.5t-5 -25.5h-299q-5 14 -6 27t-1 30l60 20q16 5 24 17t8 28q0 9 -2 16.5t-5 16.5l-39 120h-233l-46 -119q-6 -17 -6 -29q0 -23 12.5 -34.5t29.5 -16.5l66 -19q0 -11 -1 -28t-4 -29h-260q-3 12 -4 26t-1 28q20 17 33 31t23 37l246 575l129 24 l225 -596q8 -20 24 -38.5t33 -33.5zM363 523l-22 83h-7l-27 -81l-66 -174h178z" />
<glyph unicode="&#x411;" horiz-adv-x="679" d="M133 593q0 21 -14.5 32.5t-30.5 16.5l-47 15q0 16 1 27.5t4 22.5h545v-173q-15 -4 -31 -4t-30 1q-9 43 -32 64t-60 23l-166 8v-212h90q59 0 111.5 -10t91.5 -33.5t62 -63t23 -98.5q0 -60 -23 -100t-64 -65t-96.5 -35t-120.5 -10l-304 1q-4 14 -5 28t-1 29l49 14 q17 5 31 18.5t14 36.5l3 152v315zM274 80h66q46 0 76.5 8t49 24t26.5 39t8 55q0 28 -7.5 51.5t-26 40t-49 26t-75.5 9.5l-70 1z" />
<glyph unicode="&#x412;" horiz-adv-x="711" d="M36 0zM676 217q0 -47 -16.5 -86.5t-51.5 -68.5t-88.5 -45.5t-127.5 -16.5h-350q-4 14 -5 28t-1 29l49 14q17 5 31 18.5t14 36.5l3 152v315q0 21 -14.5 32.5t-30.5 16.5l-47 15q0 16 1 27.5t4 22.5h316q124 0 193.5 -42.5t69.5 -136.5q0 -32 -11 -56t-28.5 -41 t-38.5 -28.5t-40 -18.5v-4q19 -2 48 -10.5t56 -27.5t46 -49t19 -76zM473 517q0 59 -31.5 84.5t-102.5 25.5h-67v-224h77q39 0 63 9t37.5 24.5t18.5 36t5 44.5zM524 202q0 63 -43 92t-146 29h-63v-47l4 -195h98q75 0 112.5 29t37.5 92z" />
<glyph unicode="&#x413;" horiz-adv-x="607" d="M43 0q-3 13 -4 27.5t-1 28.5l55 16q16 5 26 20t10 34l3 153v302q0 16 -6 28.5t-23 19.5l-61 22q0 10 0.5 26.5t3.5 29.5h549v-184q-15 -4 -31 -5t-30 1q-9 43 -34 71t-62 29l-166 7v-350l3 -150q1 -17 3.5 -27t18.5 -14l112 -22q0 -14 -1 -31t-6 -32h-359v0z" />
<glyph unicode="&#x414;" horiz-adv-x="758" d="M0 83h72q28 42 48 86t31 79q9 30 17.5 71t15 86t11.5 90t8 82q2 19 -4 35t-23 22l-53 19v10.5t0.5 15.5t1.5 16t2 12h567q2 -14 2.5 -29.5t-1.5 -25.5l-50 -15q-14 -5 -22.5 -13.5t-8.5 -28.5v-317l5 -195h106v-262q-4 -1 -13.5 -1.5t-19.5 -1t-19 -0.5t-12 2 q-5 17 -11.5 46.5t-21 59t-38 51t-60.5 23.5h-326q-31 -1 -52.5 -11.5t-36 -26.5t-23.5 -35.5t-14 -39t-8 -37t-6 -28.5q-5 -2 -15.5 -2.5t-21.5 -0.5q-17 0 -27 2v262zM471 82l4 197v346h-180q-2 -21 -6 -57t-8.5 -73t-9 -66t-5.5 -36q-6 -44 -13 -82.5t-16.5 -76t-23 -75 t-32.5 -77.5h290z" />
<glyph unicode="&#x415;" horiz-adv-x="664" d="M35 0zM610 0h-570q-3 15 -4 30.5t0 28.5l52 13q17 5 29.5 15.5t12.5 27.5l3 164v298q0 25 -8 35t-20 15l-63 26v25q1 8 1.5 15t3.5 14h549v-164q-13 -2 -32.5 -3t-30.5 -1q-10 48 -29.5 65t-52.5 17l-178 5v-230l271 5v-92l-271 5v-36l5 -197l151 4q54 2 90.5 25.5 t54.5 73.5l61 -13z" />
<glyph unicode="&#x416;" horiz-adv-x="1053" d="M1041 -16q-21 0 -47.5 3.5t-55 12.5t-56.5 25t-51 42l-235 269v-55l2 -171q0 -30 28 -37l51 -16q0 -14 -1 -28t-6 -29h-299q-4 28 -3 54l48 15q17 6 27 22t11 39l3 148v61l-236 -272q-23 -26 -50.5 -42t-56 -25t-55.5 -12.5t-47 -3.5l-15 71q48 32 84 66t74 76l170 189 l-291 274v47h255q4 -15 4.5 -27t0.5 -26l-41 -15q-8 -4 -13.5 -13t-5.5 -22q0 -8 4 -18t13 -18l206 -210v237q0 22 -11.5 32t-26.5 16l-45 15q-1 13 -0.5 24t3.5 25h292q2 -17 2 -26.5t-2 -22.5l-43 -17q-20 -8 -25 -28.5t-5 -36.5v-218l206 210q8 8 12.5 18t4.5 18 q0 13 -5.5 22t-13.5 13l-41 15v26t5 27h255v-47l-291 -273l169 -190q38 -42 74.5 -76t84.5 -66l-15 -71v0z" />
<glyph unicode="&#x417;" horiz-adv-x="585" d="M263 -11q-64 0 -124.5 13.5t-110.5 39.5l41 96q36 -20 85.5 -38.5t107.5 -18.5q63 0 97.5 34.5t34.5 87.5q0 23 -9 43.5t-27 35.5t-46 24t-66 9q-19 0 -44.5 -0.5t-51.5 -2.5v95q27 -2 49.5 -2.5t45.5 -0.5q31 0 53.5 9.5t37.5 26t22 38t7 44.5q0 26 -10 45.5t-26.5 32.5 t-38 19.5t-44.5 6.5q-112 0 -139 -116h-58v160q45 23 101.5 34.5t117.5 11.5q30 0 72.5 -7.5t82 -27.5t67 -56.5t27.5 -94.5q0 -31 -10.5 -56t-27 -43.5t-37.5 -31t-42 -19.5v-3q24 -5 49.5 -16.5t47 -31.5t35.5 -49.5t14 -69.5q0 -53 -22.5 -94t-61 -69t-90 -43t-109.5 -15 z" />
<glyph unicode="&#x418;" horiz-adv-x="882" d="M850 55q0 -16 -0.5 -30t-5.5 -25h-320q-2 11 -3.5 23.5t-0.5 29.5l55 20q20 7 29 25t9 37l2 143v194l-347 -327q0 -29 6.5 -47.5t33.5 -25.5l71 -18q0 -14 -1.5 -29.5t-4.5 -24.5h-327q-2 12 -3.5 25t-1.5 27l50 19q21 8 29 22.5t8 39.5l1 145v312q0 40 -32 51l-22 8 l-30 10v24.5t4 23.5h297q3 -13 4 -24.5t1 -24.5l-51 -15q-17 -5 -24.5 -16.5t-7.5 -34.5v-338l347 326v10.5t-1 10.5q-2 20 -11 28.5t-24 13.5l-47 16q-2 13 -2 25t3 23h296q2 -14 2 -26.5t-1 -22.5l-47 -15q-14 -5 -21.5 -13.5t-7.5 -28.5v-323l4 -154q0 -23 5 -34t16 -14 l71 -21v0z" />
<glyph unicode="&#x419;" horiz-adv-x="882" d="M41 0zM447 764q-39 0 -71.5 11t-56 29t-36.5 41.5t-13 48.5l124 34v-86q7 -12 22.5 -18.5t31.5 -6.5q15 0 31 6.5t22 18.5v86l123 -34q0 -25 -13.5 -48.5t-37 -41.5t-56 -29t-70.5 -11zM850 55q0 -16 -0.5 -30t-5.5 -25h-320q-2 11 -3.5 23.5t-0.5 29.5l55 20q20 7 29 25 t9 37l2 143v194l-347 -327q0 -29 6.5 -47.5t33.5 -25.5l71 -18q0 -14 -1.5 -29.5t-4.5 -24.5h-327q-2 12 -3.5 25t-1.5 27l50 19q21 8 29 22.5t8 39.5l1 145v312q0 40 -32 51l-22 8l-30 10v24.5t4 23.5h297q3 -13 4 -24.5t1 -24.5l-51 -15q-17 -5 -24.5 -16.5t-7.5 -34.5 v-338l347 326v10.5t-1 10.5q-2 20 -11 28.5t-24 13.5l-47 16q-2 13 -2 25t3 23h296q2 -14 2 -26.5t-1 -22.5l-47 -15q-14 -5 -21.5 -13.5t-7.5 -28.5v-323l4 -154q0 -23 5 -34t16 -14l71 -21v0z" />
<glyph unicode="&#x41a;" horiz-adv-x="753" d="M37 0zM41 0q-3 14 -3.5 27t0.5 27l47 15q17 6 30 22t14 39l3 148v298q0 23 -14 38.5t-29 21.5l-45 18q-1 13 -1 26t4 27h307q4 -32 0 -57l-46 -14q-21 -6 -28.5 -23t-7.5 -37v-295l2 -171q0 -16 4.5 -22.5t17.5 -9.5l63 -17q0 -14 -1 -30t-6 -31h-311zM746 -16 q-21 0 -50 3.5t-60 12.5t-61.5 25t-53.5 42l-246 270v29l215 202q9 8 13 16.5t4 16.5q0 28 -19 35l-36 15q0 14 0.5 27.5t4.5 28.5h264v-47l-315 -271l183 -189q40 -42 83 -80.5t88 -64.5z" />
<glyph unicode="&#x41b;" horiz-adv-x="734" d="M132 189q15 22 25.5 68.5t19 103t14 116t10.5 106.5q2 19 -4 35.5t-24 21.5l-49 19q0 7 1 23.5t3 24.5h553q2 -17 2 -29t-1 -20l-47 -15q-14 -5 -21.5 -13.5t-7.5 -28.5v-323l4 -154q0 -23 5 -34t16 -14l71 -21q0 -16 -0.5 -30t-5.5 -25h-320q-2 10 -3 22.5t-1 30.5 l55 20q20 7 29 25t9 37l2 143v347h-176l-13 -146q-11 -89 -20 -170t-30 -147t-62.5 -113.5t-117.5 -70.5l-55 143q43 11 82.5 26.5t56.5 41.5z" />
<glyph unicode="&#x41c;" horiz-adv-x="1051" d="M9 0zM959 707q2 -11 3.5 -27t0.5 -26l-49 -13q-18 -5 -30 -23.5t-6 -51.5l81 -451q6 -31 34 -41l51 -22v-10t-0.5 -15t-1.5 -15.5t-2 -11.5h-309q-2 11 -3 25.5t-1 24.5l32 11q14 4 23 15t13.5 24.5t6 28.5t0.5 29q0 2 -1 9t-2 15t-2 15t-1 9l-35 254l-10 85h-5 l-185 -534l-115 -30l-185 569h-6l-9 -81l-55 -354q-5 -28 11 -32l88 -30v-10.5t-0.5 -15.5t-1.5 -15.5t-2 -11.5h-272q-2 11 -3.5 25.5t-0.5 24.5l36 18q21 11 35 33t18 45l82 437q4 17 -5 30.5t-23 18.5l-64 21v10.5t0.5 15.5t1.5 16t2 12h266l123 -374l39 -132h9l43 136 l133 370h253z" />
<glyph unicode="&#x41d;" horiz-adv-x="875" d="M40 0zM844 55q0 -16 -1.5 -30.5t-4.5 -24.5h-320q-2 11 -3.5 23.5t-1.5 29.5l56 20q20 7 29 21.5t9 40.5l2 143v36h-341v-36l3 -164q1 -20 8.5 -28.5t27.5 -13.5l72 -18q0 -14 -1.5 -29.5t-4.5 -24.5h-328q-2 12 -3.5 25t-0.5 27l50 19q21 8 28.5 20.5t8.5 41.5l1 145 v312q0 21 -7.5 33t-25.5 18l-52 18q0 13 0.5 24.5t4.5 23.5h297q6 -23 4 -49l-50 -15q-17 -5 -24.5 -16.5t-7.5 -34.5v-197h341v190q0 28 -9.5 40.5t-27.5 17.5l-47 16q-3 27 1 48h296q2 -14 2 -26.5t-1 -22.5l-46 -15q-14 -5 -21.5 -13.5t-7.5 -28.5v-323l3 -154 q0 -43 22 -48l71 -21v0z" />
<glyph unicode="&#x41e;" horiz-adv-x="821" d="M38 0zM783 382q0 -81 -26.5 -152.5t-76.5 -125.5t-122 -85t-162 -31q-177 0 -267.5 87t-90.5 248q0 84 28.5 156t80 125t123 83.5t158.5 30.5q91 0 158 -23.5t110.5 -67.5t65 -106t21.5 -139zM624 358q0 57 -11.5 106t-36.5 85t-65.5 57t-97.5 21q-61 0 -102 -22 t-66.5 -59.5t-36.5 -87.5t-11 -106q0 -55 10.5 -104t35 -86t64.5 -59t99 -22q63 0 104.5 22t67 59.5t36 88t10.5 107.5z" />
<glyph unicode="&#x41f;" horiz-adv-x="867" d="M835 55q0 -16 -0.5 -30t-5.5 -25h-320q-2 11 -3.5 23.5t-0.5 29.5l55 20q20 7 29 25t9 37l2 143v347h-332v-347l4 -164q0 -20 7.5 -28.5t28.5 -13.5l71 -18q0 -14 -1.5 -29.5t-4.5 -24.5h-327q-2 12 -3.5 25t-1.5 27l50 19q21 8 29 22.5t8 39.5l1 145v312q0 40 -32 51 l-22 8l-30 10v24.5t4 23.5h765q2 -14 2 -26.5t-1 -22.5l-47 -15q-14 -5 -21.5 -13.5t-7.5 -28.5v-323l4 -154q0 -23 5 -34t16 -14l71 -21v0z" />
<glyph unicode="&#x420;" horiz-adv-x="695" d="M39 0zM677 497q0 -51 -19 -94.5t-56 -76t-90 -50.5t-121 -18h-56v72l31 1q83 2 120 40t37 110q0 63 -36 103t-119 42l-95 2v-355l3 -152q0 -17 4 -26.5t18 -11.5l102 -24v-11.5t-1 -17.5t-2 -17.5t-2 -12.5h-352q-2 11 -3 28t0 27l51 14q17 4 27.5 21.5t11.5 40.5l3 142 v315q0 12 -5.5 23.5t-18.5 16.5l-68 26v10t0.5 15t1.5 15.5t3 12.5h389q53 0 97.5 -12t76.5 -37.5t50 -65.5t18 -95z" />
<glyph unicode="&#x421;" d="M37 0zM650 30q-21 -8 -43 -15t-48.5 -12t-58.5 -8t-73 -3q-92 0 -164.5 21t-122.5 64.5t-76.5 111t-26.5 159.5q0 78 28.5 145.5t79.5 117.5t122 78.5t156 28.5q43 0 73.5 -3t55.5 -8.5t46.5 -13.5t45.5 -18v-164q-8 -2 -26 -2.5t-31 1.5q-21 57 -61 88t-107 31 q-50 0 -93 -14.5t-74.5 -47t-49.5 -84t-18 -125.5q0 -64 19 -112t53.5 -80.5t82 -48.5t104.5 -16q59 0 100.5 6.5t78.5 14.5l28 -92v0z" />
<glyph unicode="&#x422;" horiz-adv-x="699" d="M13 0zM686 522q-5 -2 -13 -2.5t-16.5 -1t-16 -0.5t-11.5 1q-9 47 -30.5 73.5t-63.5 28.5l-116 4v-352l5 -159q0 -17 3.5 -25t17.5 -11l89 -18v-11.5t-0.5 -18t-1.5 -18t-2 -12.5h-359q-2 11 -3.5 30.5t-0.5 29.5l68 19q17 5 28.5 27t12.5 42l3 125v352l-125 -4 q-37 -2 -56 -30t-27 -72q-3 -1 -11 -1.5t-16.5 0t-17 1.5t-13.5 3v185h673v-185z" />
<glyph unicode="&#x423;" horiz-adv-x="659" d="M142 90q60 19 97 39q20 11 35.5 28t26.5 36l-231 377q-21 32 -38.5 53t-49.5 35v18v18t2 13h287q2 -11 3 -28t1 -28l-51 -19q-8 -3 -11.5 -10.5t-3.5 -15.5q0 -10 3.5 -18.5t8.5 -17.5l149 -254l111 262q4 9 4 22q0 25 -17 34l-43 22v16q0 11 0.5 20.5t2.5 14.5h249 q2 -10 2.5 -25.5t0.5 -25.5q-12 -5 -25 -10t-25 -11.5t-22 -16t-16 -22.5l-222 -477q-29 -65 -69.5 -99t-86.5 -51z" />
<glyph unicode="&#x424;" horiz-adv-x="818" d="M561 737q2 -11 2.5 -27t-0.5 -26l-41 -9q-27 -6 -34.5 -19t-7.5 -36q73 0 132.5 -14.5t101.5 -43.5t65 -72t23 -100q0 -62 -23 -112t-65 -85t-101.5 -54t-132.5 -19v-9t1 -9q1 -28 24 -32l68 -15q0 -3 -0.5 -10.5t-1 -16t-2 -16.5t-2.5 -12h-311q-4 11 -4.5 23.5 t0.5 22.5l50 19q26 13 32 23.5t6 30.5q-72 0 -131.5 14.5t-102 43t-66.5 72t-24 102.5q0 62 24 111.5t67.5 84t102.5 53.5t130 19q0 25 -9.5 34.5t-40.5 21.5l-37 15q-2 7 -1.5 23t2.5 24h307zM651 379q0 37 -10 69t-31 54.5t-53 35.5t-77 13l1 -362q47 0 79.5 16.5 t52.5 42.5t29 60.5t9 70.5zM167 363q0 -36 10 -67.5t31 -55t53.5 -37.5t77.5 -14l1 362q-45 0 -77.5 -16.5t-54 -43t-31.5 -60t-10 -68.5z" />
<glyph unicode="&#x425;" horiz-adv-x="714" d="M4 0zM709 50v-10t-1 -14.5t-2 -14.5t-2 -11h-294q-2 11 -3 25.5t0 24.5l37 23q14 8 14 21.5t-11 30.5l-106 152l-119 -145q-6 -7 -8.5 -15t-2.5 -16t3 -14.5t10 -9.5l54 -27v-10t-1 -14.5t-2 -14.5t-2 -11h-265q-2 11 -3 25.5t0 24.5l29 18q24 16 43.5 35.5t39.5 42.5 l170 204l-173 222q-21 26 -43.5 46.5t-42.5 37.5q-2 11 -2 25.5t2 25.5h275q2 -11 3 -26t0 -25l-37 -18q-9 -5 -11 -18t11 -30l100 -142l112 136q11 13 10.5 29t-11.5 22l-40 22v10v14.5t0.5 14.5t2.5 11h244q2 -11 2 -25.5t-1 -24.5q-29 -12 -54 -32t-45 -45l-165 -203 l188 -236q11 -14 21.5 -25.5t21.5 -22t24 -21t30 -22.5z" />
<glyph unicode="&#x426;" horiz-adv-x="867" d="M44 0q-2 12 -3.5 26t-1.5 28l54 18q20 7 27.5 17.5t7.5 35.5l2 153v315q-1 20 -8 31t-24 17l-22 8q-9 3 -17.5 5.5t-13.5 4.5q0 13 0.5 24.5t4.5 23.5h297q3 -13 4 -24.5t1 -24.5l-51 -15q-17 -5 -24.5 -16.5t-7.5 -34.5v-314l4 -194h308l4 195v306q0 47 -37 58l-47 16 q-2 13 -2 25t3 23h296q2 -14 2 -26.5t-1 -22.5l-47 -15q-14 -5 -21.5 -13.5t-7.5 -28.5v-323l5 -194h107v-263q-4 -1 -13.5 -2t-19.5 -2t-19 -1.5t-12 1.5q-5 17 -11.5 47t-21 60t-38 52t-60.5 24h-596z" />
<glyph unicode="&#x427;" horiz-adv-x="748" d="M391 0q-2 11 -3.5 23.5t-1.5 29.5l56 20q20 7 29 25t9 37l2 143v42q-45 -16 -92 -29.5t-105 -12.5q-106 1 -159 44t-53 139v129q-1 21 -8 33t-24 18l-22 8q-9 3 -17.5 5.5t-13.5 4.5q0 13 0.5 24.5t4.5 23.5h297q3 -13 4 -24.5t1 -24.5l-51 -15q-17 -5 -24.5 -16.5 t-7.5 -34.5v-111q0 -34 9 -56t25 -35t38 -18t48 -5q29 0 67.5 7t82.5 29v182q0 47 -37 58l-47 16q-2 13 -2 25t3 23h296q2 -14 2 -26.5t-1 -22.5l-46 -15q-14 -5 -21.5 -13.5t-7.5 -28.5v-323l3 -154q0 -23 5 -34t16 -14l72 -21q0 -16 -1 -30t-6 -25h-319v0z" />
<glyph unicode="&#x428;" horiz-adv-x="1123" d="M44 0q-2 12 -3.5 26t-1.5 28l54 18q20 7 27.5 17.5t7.5 35.5l2 153v315q-1 20 -8 31t-24 17l-22 8q-9 3 -17.5 5.5t-13.5 4.5q0 13 0.5 24.5t4.5 23.5h291q3 -13 4 -24.5t1 -24.5l-51 -15q-17 -5 -21.5 -16.5t-4.5 -34.5v-314l4 -194h218l3 194v309q-1 21 -7.5 34.5 t-23.5 21.5q-9 3 -17 7q-7 3 -14 5t-12 4v24.5t3 23.5h281q4 -25 3 -49l-49 -15q-16 -5 -21 -15.5t-5 -34.5v-315l5 -194h217l3 194v307q0 23 -7 38t-24 20l-47 16q-3 27 1 48h290q2 -14 2 -26.5t-1 -22.5l-46 -15q-14 -5 -21.5 -13.5t-7.5 -28.5v-323l3 -158q0 -23 5 -32.5 t19 -13.5l69 -20q0 -17 -0.5 -30t-5.5 -24h-1042v0z" />
<glyph unicode="&#x429;" horiz-adv-x="1139" d="M341 707q3 -13 4 -24.5t1 -24.5l-51 -15q-17 -5 -21.5 -16.5t-4.5 -34.5v-314l4 -194h218l3 194v309q-1 21 -7.5 34.5t-23.5 21.5q-9 3 -17 7q-7 3 -14 5t-12 4v24.5t3 23.5h281q4 -25 3 -49l-49 -15q-16 -5 -21 -15.5t-5 -34.5v-315l5 -194h217l3 194v307q0 23 -7 38 t-24 20l-47 16q-3 27 1 48h290q2 -14 2 -26.5t-1 -22.5l-46 -15q-14 -5 -21.5 -13.5t-7.5 -28.5v-323l5 -194h106v-263q-4 -1 -13.5 -2t-19.5 -2t-18.5 -1.5t-11.5 1.5q-5 17 -12 47t-21 60t-38 52t-61 24h-868q-2 12 -3.5 26t-1.5 28l54 18q20 7 27.5 17.5t7.5 35.5l2 153 v315q-1 20 -8 31t-24 17l-22 8q-9 3 -17.5 5.5t-13.5 4.5q0 13 0.5 24.5t4.5 23.5h291z" />
<glyph unicode="&#x42a;" horiz-adv-x="755" d="M145 0q-4 14 -4.5 28t-0.5 29l48 14q18 5 32 18.5t14 36.5l3 152v347l-73 -6q-37 -2 -58.5 -29.5t-30.5 -70.5q-15 -2 -31 -1t-31 5v184h446q3 -33 0 -59l-49 -12q-20 -5 -27 -18.5t-7 -27.5v-176h85q59 0 110.5 -11t90 -35t60.5 -63t22 -96t-22 -97.5t-62 -65.5 t-94.5 -36t-119.5 -11zM440 80q83 1 118.5 32t35.5 94q0 57 -35.5 91.5t-116.5 35.5l-66 1l2 -254h62z" />
<glyph unicode="&#x42b;" horiz-adv-x="1000" d="M36 0zM964 61q0 -14 -0.5 -30t-5.5 -31h-314q-6 24 -4 54l43 15q17 6 30 20.5t14 40.5l3 148v294q0 25 -15 41.5t-36 24.5l-37 16q-1 12 -1 25.5t3 27.5h308q2 -17 2 -31.5t-2 -27.5l-43 -10q-23 -6 -31 -24t-8 -39v-297l2 -170q1 -16 6 -22t19 -10l67 -15v0zM42 0 q-4 14 -5 28t0 29l48 14q18 5 31.5 18.5t14.5 36.5l2 152v310q-1 23 -15.5 36.5t-31.5 18.5l-46 13q0 17 1 28.5t4 22.5h311q3 -35 -1 -59l-48 -12q-20 -5 -27 -18.5t-7 -27.5v-176h85q59 0 110.5 -11t90 -35t60.5 -63t22 -96t-22 -97.5t-62 -65.5t-94.5 -36t-119.5 -11z M336 80q83 1 118.5 32t35.5 94q0 57 -35 91.5t-117 35.5l-65 1v-42l1 -212h62z" />
<glyph unicode="&#x42c;" horiz-adv-x="651" d="M42 0q-4 14 -5 28t0 29l48 14q18 5 31.5 18.5t14.5 36.5l2 152v310q-1 23 -15.5 36.5t-31.5 18.5l-46 13q0 17 1 28.5t4 22.5h311q3 -35 -1 -59l-48 -12q-20 -5 -27 -18.5t-7 -27.5v-176h85q59 0 110.5 -11t90 -35t60.5 -63t22 -96t-22 -97.5t-62 -65.5t-94.5 -36 t-119.5 -11zM336 80q83 1 118.5 32t35.5 94q0 57 -35 91.5t-117 35.5l-65 1v-42l1 -212h62z" />
<glyph unicode="&#x42d;" horiz-adv-x="694" d="M281 -11q-28 0 -59.5 3.5t-64 11t-64.5 19t-60 28.5l52 100q47 -30 97 -50t104 -20q88 0 146.5 57.5t69.5 177.5l-306 -5v93l307 -6q-5 65 -23.5 109t-48.5 71t-69.5 38.5t-85.5 11.5q-66 0 -109.5 -30.5t-64.5 -87.5q-14 -2 -32 -2t-26 2v165q112 43 240 43 q83 0 151.5 -18t117 -58t75.5 -104.5t27 -156.5q1 -84 -25.5 -156t-76 -124.5t-119 -82t-153.5 -29.5z" />
<glyph unicode="&#x42e;" horiz-adv-x="1181" d="M766 -12q-170 0 -256.5 85t-88.5 243h-153v-38l4 -164q0 -20 7.5 -28.5t28.5 -13.5l71 -18q0 -14 -1.5 -29.5t-4.5 -24.5h-327q-2 12 -3.5 25t-1.5 27l50 19q21 8 29 22.5t8 39.5l1 145v312q0 40 -32 51l-22 8l-30 10v24.5t4 23.5h297q3 -13 4 -24.5t1 -24.5l-51 -15 q-17 -5 -24.5 -16.5t-7.5 -34.5v-195h159q11 70 42 128.5t79 101.5t110.5 67t137.5 24q89 0 154.5 -23.5t108 -67.5t63.5 -106t21 -139q0 -81 -26 -152.5t-74.5 -125.5t-118.5 -85t-158 -31zM988 358q0 57 -11 106t-35.5 85t-64 57t-95.5 21q-59 0 -99.5 -22t-65.5 -59.5 t-35.5 -87.5t-10.5 -106q0 -55 10.5 -104t34.5 -86t63 -59t96 -22q61 0 102 22t66 59.5t35 88t10 107.5z" />
<glyph unicode="&#x42f;" horiz-adv-x="734" d="M3 55q27 10 56.5 30t48.5 41q40 42 68.5 86.5t52.5 87.5q-28 7 -54.5 22t-47 37.5t-33 53t-12.5 68.5q0 57 22.5 99.5t60 70.5t84.5 42t97 14h340q3 -31 -2 -59l-47 -11q-20 -6 -27 -19t-7 -30v-310l4 -163q0 -16 4.5 -23t16.5 -11l70 -20q0 -14 -1 -30t-3 -31h-320 q-4 29 -3 56l44 11q24 7 35 29t11 45l2 135h-71l-25 1q-29 -60 -67.5 -120.5t-86.5 -111.5q-20 -20 -44.5 -31.5t-51 -17.5t-52.5 -8t-48 -3zM463 352v274h-54q-86 0 -130 -38t-43 -105q0 -35 12.5 -59.5t33.5 -40.5t49.5 -23t60.5 -7z" />
<glyph unicode="&#x430;" horiz-adv-x="576" d="M23 0zM570 47q-12 -11 -29 -21t-35.5 -17.5t-36.5 -12t-33 -4.5q-28 0 -46 5.5t-28.5 16t-15.5 26.5t-6 38q-11 -11 -28 -26t-39.5 -28.5t-49.5 -23t-57 -9.5q-63 0 -103 30.5t-40 95.5q0 45 18 76t47.5 51.5t67 32t76.5 17.5q33 5 62.5 8t42.5 4v63q0 42 -23.5 61 t-89.5 19q-27 0 -63.5 -5t-78.5 -16l-24 95q50 19 97.5 27.5t95.5 8.5q21 0 45.5 -0.5t49 -5t47.5 -14t40.5 -26.5t28 -42.5t10.5 -62.5v-135l7 -183h84zM337 239q-7 -1 -32 -3.5t-49 -7.5q-45 -9 -70 -27t-25 -52q0 -22 14.5 -36.5t46.5 -14.5q16 0 33.5 4t33.5 9t29 10 t19 7v111z" />
<glyph unicode="&#x431;" horiz-adv-x="624" d="M590 273q0 -53 -20.5 -103t-57.5 -90t-87.5 -64t-111.5 -24q-50 0 -96.5 14t-82.5 50.5t-57.5 99t-21.5 160.5q0 46 6 95t18 95.5t31 87t45 68.5q15 16 45 30t68.5 26.5t82.5 23.5t86 22q22 5 47 20t49 31l37 -31l-67 -138q-30 -3 -71 -7.5t-80.5 -10.5t-71 -13 t-42.5 -15q-16 -12 -22.5 -47t-13.5 -92q45 28 88 42.5t83 14.5t79 -11.5t70 -39t49.5 -75t18.5 -119.5zM443 279q0 34 -5.5 62.5t-18.5 48.5t-33.5 31.5t-50.5 11.5q-42 0 -76 -11t-64 -27q0 -6 -0.5 -21t-0.5 -32t-0.5 -32t-0.5 -20q0 -109 32 -159.5t100 -50.5 q35 0 58 16t36.5 43t18.5 63t5 77z" />
<glyph unicode="&#x432;" horiz-adv-x="614" d="M36 0q-2 11 -3 25.5t0 27.5l47 18q15 6 21.5 18t6.5 29l3 155v160q0 17 -5.5 27t-20.5 15l-50 18q0 13 0.5 27.5t2.5 25.5h289q43 0 84 -5.5t73 -20.5t51 -41t19 -68q0 -27 -8.5 -48.5t-22 -37.5t-31.5 -27t-36 -16v-4q18 -2 39.5 -9t40 -21t31.5 -35.5t13 -52.5 q0 -45 -19 -75.5t-52 -49.5t-77.5 -27t-95.5 -8h-300zM315 79q51 0 80.5 20t29.5 65q0 42 -30 61t-93 20h-55v-34l1 -132h67zM300 312q54 0 81.5 22t27.5 58q0 22 -9.5 36t-25 22.5t-35.5 12t-41 3.5l-51 1v-155h53z" />
<glyph unicode="&#x433;" horiz-adv-x="546" d="M527 351q-3 -1 -10.5 -1h-16.5h-19t-12 2q-3 14 -9 30.5t-16 31t-26.5 25t-40.5 12.5l-127 9v-186l3 -160q0 -19 3.5 -27.5t11.5 -10.5l81 -18q0 -14 -0.5 -30t-4.5 -28h-311q-2 11 -3.5 25t-0.5 31l54 19q15 5 21.5 17t6.5 29l3 153v159q0 17 -5.5 27t-20.5 15l-50 18 q0 13 0.5 27.5t2.5 25.5h486v-195v0z" />
<glyph unicode="&#x434;" horiz-adv-x="664" d="M8 88h65q19 21 32.5 54t22.5 68.5t14 69.5t7 58q3 12 5.5 30t4 36t1 33t-4.5 21q0 4 -5 8t-12 7.5t-14.5 6.5t-11.5 4l-18 8q0 9 2 27t4 27h506q4 -11 5.5 -24t1.5 -34l-62 -15q-11 -3 -14.5 -11.5t-3.5 -22.5v-188l4 -164h101v-236q-3 -1 -11 -1h-19h-22t-14 2 q-3 13 -10.5 38t-19 49.5t-27 42.5t-34.5 18h-310q-27 0 -44.5 -18t-28 -43t-16 -50t-8.5 -38q-3 -2 -14 -2h-22q-10 0 -18.5 0.5t-11.5 0.5v238zM393 87l1 138l2 234h-142q-3 -32 -6 -66t-7 -66.5t-8.5 -62.5t-10.5 -54q-8 -32 -19 -62t-26 -61h216z" />
<glyph unicode="&#x435;" horiz-adv-x="568" d="M34 0zM176 257q2 -50 16 -80.5t36.5 -48t53.5 -23.5t67 -6q29 0 67.5 3.5t84.5 14.5l23 -75q-52 -28 -103.5 -40.5t-113.5 -12.5q-54 0 -103.5 11t-87 39.5t-60 77.5t-22.5 125q0 69 19 127.5t55 100.5t87 65.5t116 23.5q60 0 102.5 -20t69.5 -55t39.5 -82.5t12.5 -103.5 v-41h-359zM389 324q0 71 -21.5 115t-73.5 44q-28 0 -50 -12.5t-37.5 -34t-24 -50.5t-9.5 -62h216z" />
<glyph unicode="&#x436;" horiz-adv-x="906" d="M885 -21q-41 3 -73.5 11.5t-60 24t-52.5 38.5t-49 54l-129 156v-8l1 -132q1 -17 5.5 -30.5t16.5 -21.5l36 -21q0 -18 -1 -28t-5 -22h-255q-2 11 -3 20.5t0 29.5l38 18q15 8 21.5 21.5t6.5 27.5l4 138v9l-129 -157q-25 -31 -49.5 -54t-52.5 -38.5t-61 -24t-73 -11.5 l-16 68q33 12 69 45t74 81l113 135l-223 191v47h207q3 -11 3.5 -24t0.5 -21l-25 -15q-6 -5 -10.5 -12t-4.5 -15t3 -13.5t11 -12.5l163 -156v165q-1 25 -23 35l-39 20q0 28 3 49h250q4 -12 5 -24t1 -30l-45 -17q-12 -5 -14.5 -17.5t-2.5 -26.5v-153l163 155q7 7 10.5 12.5 t3.5 13.5t-4.5 15t-11.5 12l-24 15v21t4 24h206v-47l-223 -191l113 -135q41 -47 75.5 -80.5t67.5 -45.5l-16 -68v0z" />
<glyph unicode="&#x437;" horiz-adv-x="487" d="M223 -11q-68 0 -120 14t-83 31l39 97q9 -5 25.5 -13t37.5 -16t45 -14t49 -6q45 0 69.5 18.5t24.5 52.5q0 37 -30.5 58t-84.5 21h-54v84h37q50 0 80.5 20.5t30.5 67.5q0 31 -22.5 51t-56.5 20q-38 0 -64.5 -20t-36.5 -64l-52 -3l-15 133q29 15 76.5 26t95.5 11 q36 0 74.5 -6.5t70.5 -23t52.5 -44.5t20.5 -71q0 -32 -10 -55.5t-26 -39.5t-36.5 -26t-40.5 -15q22 -3 46 -10.5t43.5 -22t32 -37.5t12.5 -56q0 -40 -16.5 -70t-46.5 -50.5t-72.5 -31t-94.5 -10.5z" />
<glyph unicode="&#x438;" horiz-adv-x="743" d="M700 546q4 -11 5 -24t1 -33l-61 -15q-10 -3 -13 -13t-3 -23v-165l3 -172q0 -24 15 -28l69 -16q0 -37 -7 -57h-287q-2 14 -2.5 27t1.5 27l46 19q12 5 17.5 18t6.5 25v211l-243 -193l1 -21q0 -14 2 -23.5t13 -13.5l58 -18q0 -19 -0.5 -32.5t-4.5 -25.5h-281q-2 11 -3 25.5 t0 27.5l47 18q15 6 21.5 18t6.5 29l3 155v160q0 17 -5.5 27t-20.5 15l-50 18q0 13 0.5 27.5t2.5 25.5h275q4 -12 4.5 -25.5t0.5 -32.5l-54 -17q-11 -5 -14 -17.5t-3 -26.5v-197l246 194q0 2 -0.5 10t-1.5 10q-1 9 -5 17t-16 13l-42 18q-1 16 0.5 28t3.5 26h268z" />
<glyph unicode="&#x439;" horiz-adv-x="743" d="M32 0zM372 636q-39 0 -71.5 11t-56 29t-36.5 41.5t-13 48.5l124 34v-86q8 -12 23 -18.5t31 -6.5t31.5 7t22.5 18v86l123 -34q0 -25 -13.5 -48.5t-37 -41.5t-56 -29t-71.5 -11zM700 546q4 -11 5 -24t1 -33l-61 -15q-10 -3 -13 -13t-3 -23v-165l3 -172q0 -24 15 -28l69 -16 q0 -37 -7 -57h-287q-2 14 -2.5 27t1.5 27l46 19q12 5 17.5 18t6.5 25v211l-243 -193l1 -21q0 -14 2 -23.5t13 -13.5l58 -18q0 -19 -0.5 -32.5t-4.5 -25.5h-281q-2 11 -3 25.5t0 27.5l47 18q15 6 21.5 18t6.5 29l3 155v160q0 17 -5.5 27t-20.5 15l-50 18q0 13 0.5 27.5 t2.5 25.5h275q4 -12 4.5 -25.5t0.5 -32.5l-54 -17q-11 -5 -14 -17.5t-3 -26.5v-197l246 194q0 2 -0.5 10t-1.5 10q-1 9 -5 17t-16 13l-42 18q-1 16 0.5 28t3.5 26h268z" />
<glyph unicode="&#x43a;" horiz-adv-x="648" d="M631 -21q-44 3 -80 11.5t-66.5 24t-56.5 38t-50 52.5l-127 155l2 -134q1 -17 5 -30.5t16 -21.5l30 -20q0 -19 -1 -30.5t-4 -23.5h-269q-4 15 -4 25.5v27.5l57 18q16 5 22 18t6 31l3 154v164q-1 14 -6.5 23t-19.5 14l-49 18q0 14 0.5 28t2.5 25h269q3 -12 4 -25.5t1 -32.5 l-48 -17q-11 -5 -14 -17.5t-3 -26.5v-150l171 156q14 11 14 26q0 8 -5 15t-11 11l-31 16v21t4 24h213v-47l-226 -195l118 -132q42 -47 82 -78t66 -45z" />
<glyph unicode="&#x43b;" horiz-adv-x="639" d="M309 0q-1 7 -1.5 13.5t-0.5 14.5q-2 12 0 26l52 19q12 5 17.5 18t6.5 25v343h-133q-4 -48 -6.5 -99.5t-8.5 -101t-17.5 -95.5t-32.5 -83q-40 -70 -130 -102l-55 122q38 9 68 24t47 35q16 18 25 58.5t13.5 84.5t6 81.5t1.5 50.5q0 14 -3.5 23.5t-16.5 14.5l-53 17 q0 9 1.5 27.5t5.5 29.5h503q4 -11 5 -24t1 -33l-61 -15q-12 -3 -16.5 -13t-5.5 -23v-165l3 -172q1 -13 5.5 -18.5t15.5 -8.5l69 -16q0 -38 -7 -58h-298v0z" />
<glyph unicode="&#x43c;" horiz-adv-x="860" d="M764 107q2 -29 20 -35l57 -17q0 -37 -7 -55h-256q-2 12 -2.5 26.5t0.5 27.5l34 14q18 7 23 23.5t4 32.5l-20 226l-3 41h-2l-141 -386l-119 -25l-134 414h-2l-3 -34l-35 -243q0 -14 2.5 -24t10.5 -14l67 -21q0 -34 -6 -58h-234q-2 11 -1.5 27t0.5 29l39 15q15 7 24 21.5 t12 32.5l45 308q3 32 -23 41l-51 16q0 11 1 29t3 27h235q1 -3 10 -33.5t21.5 -71t25.5 -83t21 -70.5q3 -12 9 -31.5t13 -41.5t14 -42.5t11 -34.5l9 1q4 12 11 32t14.5 41.5t14.5 42t12 33.5l21 57t29 78t27.5 75t16.5 48h216q7 -20 7 -58l-52 -15q-22 -6 -20 -43z" />
<glyph unicode="&#x43d;" horiz-adv-x="733" d="M36 0q-2 11 -3 25.5t0 27.5l47 18q15 6 21.5 18t6.5 29l3 155v160q0 17 -5.5 27t-20.5 15l-50 18q0 13 0.5 27.5t2.5 25.5h274q4 -12 5 -25.5t1 -32.5l-55 -17q-11 -5 -14 -17.5t-3 -26.5v-102h238v110q-1 12 -5 22.5t-18 16.5l-42 18q-1 16 0.5 28t3.5 26h267 q4 -11 5 -24t1 -33l-61 -15q-10 -3 -13 -13t-3 -23v-165l3 -172q0 -24 15 -28l69 -16q0 -37 -7 -57h-286q-2 14 -2.5 27t0.5 27l46 19q13 5 18.5 18t5.5 25l1 122h-236l2 -125q0 -14 2 -23.5t13 -13.5l59 -18q0 -19 -1 -32.5t-5 -25.5h-280v0z" />
<glyph unicode="&#x43e;" horiz-adv-x="608" d="M33 0zM575 277q0 -54 -21 -106t-58.5 -92.5t-88 -65t-110.5 -24.5q-124 0 -194 67t-70 210q0 55 21.5 107.5t58 93.5t86.5 66.5t107 25.5q269 0 269 -282zM428 274q0 35 -5 70.5t-19 64t-40.5 46.5t-68.5 18q-40 0 -63 -19.5t-35 -48.5t-15.5 -64.5t-3.5 -66.5 q0 -38 6 -73.5t21 -62.5t41 -43t67 -16q36 0 58.5 16t35 43t17 62t4.5 74z" />
<glyph unicode="&#x43f;" horiz-adv-x="728" d="M614 273l3 -172q0 -24 15 -28l69 -16q0 -37 -7 -57h-287q-2 14 -2.5 27t1.5 27l46 19q12 5 17.5 18t6.5 25v131l2 212h-231v-213l2 -133q0 -14 2 -23.5t13 -13.5l58 -18q0 -19 -0.5 -32.5t-4.5 -25.5h-281q-2 11 -3 25.5t0 27.5l47 18q15 6 21.5 18t6.5 29l3 155v160 q0 17 -5.5 27t-20.5 15l-50 18q0 13 0.5 27.5t2.5 25.5h647q4 -11 5 -24t1 -33l-61 -15q-10 -3 -13 -13t-3 -23v-165z" />
<glyph unicode="&#x440;" horiz-adv-x="646" d="M13 0zM610 284q0 -86 -25 -142.5t-66.5 -89.5t-94.5 -46.5t-108 -13.5q-24 0 -39.5 0.5t-29.5 2.5l3 -98q0 -18 8 -27t25 -14l74 -15q0 -15 -1.5 -30t-6.5 -31h-321q-4 17 -5.5 31.5t-1.5 25.5l37 13q23 8 32.5 25t9.5 36l4 360v199h-91v63q15 3 36.5 7t46 7.5t50 6 t49.5 2.5q42 0 42 -41v-19q26 26 61.5 43t74.5 17q55 0 98.5 -13.5t74.5 -45.5t47.5 -84t16.5 -129zM464 265q0 41 -7 77.5t-22 64t-38.5 43.5t-56.5 16q-31 0 -58 -9.5t-41 -16.5v-171l3 -195q7 -2 13.5 -3t14.5 -2.5t19.5 -2t28.5 -0.5q37 0 64.5 15.5t45 42.5t26 63 t8.5 78z" />
<glyph unicode="&#x441;" horiz-adv-x="530" d="M35 0zM502 464q0 -23 -14 -47t-44 -37q-17 19 -33.5 36t-33.5 30t-36 20.5t-41 7.5q-26 0 -48.5 -10.5t-39.5 -33.5t-27 -58.5t-10 -85.5q0 -93 40.5 -141.5t125.5 -48.5q31 0 65 5.5t66 11.5l23 -72q-35 -23 -81.5 -38t-115.5 -15q-72 0 -122.5 18t-81.5 52t-45 82 t-14 107q0 72 19.5 130t57 98.5t92.5 62t127 21.5q26 0 56 -4t55.5 -15t42.5 -29.5t17 -46.5z" />
<glyph unicode="&#x442;" horiz-adv-x="576" d="M555 546v-182q-11 -3 -28.5 -3.5t-27.5 4.5q-4 16 -9 32t-14 29.5t-23.5 22t-36.5 10.5h-60v-186l2 -161q0 -19 4 -26.5t12 -9.5l74 -18q0 -14 -1 -30t-4 -28h-310q-4 19 -4 56l61 19q13 4 19.5 16t7.5 28l3 154v186h-61q-23 -2 -37 -10.5t-23 -22t-14 -29.5t-9 -32 q-11 -5 -28 -4t-28 3v182h535z" />
<glyph unicode="&#x443;" horiz-adv-x="545" d="M0 0zM556 546v-11.5v-18.5t-0.5 -18t-0.5 -10q-17 -10 -31 -28t-29 -54l-215 -513q-20 -49 -55.5 -80t-75.5 -50l-78 112q26 11 51.5 25.5t45.5 31.5q18 14 29.5 28t18.5 28l-157 440q-7 20 -24 32.5t-43 24.5v28.5t5 32.5h260v-13.5v-22t-0.5 -21.5t-0.5 -12h-68 l114 -348l107 288q6 16 1 32.5t-19 22.5q-5 5 -17 7.5t-16 4.5q0 2 -0.5 9.5t-0.5 15.5q0 9 1 19t3 18h195v0z" />
<glyph unicode="&#x444;" horiz-adv-x="811" d="M259 -220q-4 16 -4 26.5v27.5l57 17q16 5 22 16t7 29l2 99q-68 0 -125 12.5t-97.5 43t-63 81.5t-22.5 128q0 75 30 130t76 91.5t100.5 54t102.5 17.5v125h-90v64q17 4 40.5 8t48.5 7t48.5 5t41.5 2q22 0 34.5 -9.5t12.5 -35.5v-165q61 0 117 -11.5t99 -41.5t68 -82.5 t25 -134.5q0 -77 -32.5 -132t-79.5 -90t-100.5 -51t-95.5 -16l1 -100q1 -14 3.5 -24t13.5 -13l74 -20q0 -19 -1.5 -32t-4.5 -26h-308zM480 78q90 0 127 48.5t37 153.5q0 97 -39 144t-125 47v-393zM344 471q-50 0 -81.5 -13.5t-50 -39t-25.5 -63t-7 -86.5q0 -55 12 -91.5 t33.5 -59t52 -32t66.5 -9.5v394z" />
<glyph unicode="&#x445;" horiz-adv-x="600" d="M20 0zM582 60q0 -10 -1 -28t-6 -32h-240q-3 15 -4 29t-1 24l9 5q7 3 12 10.5t5 18.5q0 12 -10 25l-70 92l-86 -113q-5 -8 -5 -12q0 -7 10 -9l53 -12q0 -13 -1.5 -29.5t-6.5 -28.5h-215q-3 15 -4 28t-1 26q7 3 25 14t32 26l153 167l-130 169q-17 21 -31 32.5t-40 24.5 q0 6 -0.5 13t-0.5 14q0 17 3 32h248v-12.5t-0.5 -22.5t-1 -22t-1.5 -12h-52l103 -137l77 92q10 13 10 25q0 13 -11 19l-24 16q0 13 1 26.5t4 27.5h190q0 -15 -0.5 -27t-4.5 -24q-8 -2 -26.5 -16t-33.5 -31l-142 -159l153 -182q7 -9 13.5 -15.5t13 -11t15 -9.5t20.5 -11z" />
<glyph unicode="&#x446;" horiz-adv-x="739" d="M477 87l1 182v166q-1 12 -5 22.5t-18 16.5l-37 16q-2 16 -0.5 29t3.5 27h260q4 -11 5 -24t1 -33l-57 -15q-10 -3 -12.5 -13t-3.5 -23v-170l4 -181h102v-232q-5 -2 -14 -2.5t-19 0t-19 1t-15 2.5q-3 13 -10.5 37.5t-19 48t-26.5 41t-34 17.5h-527q-2 11 -3 25.5t0 27.5 l47 18q15 6 21.5 18t6.5 29l3 155v160q0 17 -5.5 27t-20.5 15l-50 18q0 13 0.5 27.5t2.5 25.5h271q4 -12 4.5 -25t0.5 -31l-50 -17q-11 -5 -14 -18.5t-3 -27.5v-170l1 -170h229z" />
<glyph unicode="&#x447;" horiz-adv-x="671" d="M557 257l3 -156q1 -24 16 -28l68 -16q0 -20 -1 -33t-6 -24h-292q-3 16 -3 37q0 2 4 5t8.5 7t9 7.5t4.5 6.5q2 1 8.5 5t13.5 9t12.5 9.5t5.5 7.5q4 2 6 8.5t3.5 15t2 16t0.5 10.5v86q-34 -15 -80.5 -28.5t-104.5 -13.5q-86 0 -125 38.5t-39 115.5v91q0 17 -5 27t-21 15 l-49 18q0 13 0.5 27.5t2.5 25.5h275q3 -12 4 -25.5t1 -32.5l-54 -17q-11 -5 -14.5 -17.5t-3.5 -26.5v-62q0 -82 94 -82q40 0 70 7.5t51 18.5v126q-1 12 -5 22.5t-18 16.5l-42 18q-2 16 -0.5 28t4.5 26h267q7 -20 7 -57l-61 -15q-11 -3 -13.5 -13t-3.5 -23v-181z" />
<glyph unicode="&#x448;" horiz-adv-x="973" d="M552 268l3 -181h167l1 182v173q0 10 -3 18.5t-14 13.5l-38 15q-1 14 0 29t4 28h261q4 -12 5.5 -23.5t0.5 -32.5l-60 -17q-12 -6 -15.5 -15.5t-4.5 -24.5v-165l3 -167q1 -24 16 -28l65 -16q0 -37 -7 -57h-903q-2 11 -2.5 25.5t-0.5 27.5l51 18q16 6 22 18t6 29l3 155v168 q0 15 -4 22.5t-16 11.5l-56 15q0 12 1 29t3 27h262q3 -14 4.5 -25.5t0.5 -31.5l-37 -19q-14 -8 -18 -20t-4 -27v-166l1 -170h165l2 188v162q0 28 -22 37l-35 15q-1 14 0 29t4 28h246q3 -12 4.5 -23.5t1.5 -32.5l-43 -17q-13 -6 -16.5 -15.5t-3.5 -24.5v-165z" />
<glyph unicode="&#x449;" horiz-adv-x="986" d="M552 268l3 -181h167l1 183v172q0 10 -3 18.5t-14 13.5l-38 15q-1 14 0 29t4 28h261q4 -12 5.5 -23.5t0.5 -32.5l-60 -17q-12 -6 -15.5 -15.5t-4.5 -24.5v-165l4 -181h102v-232q-5 -2 -14 -2.5t-18.5 0t-18.5 1t-15 2.5q-3 13 -10.5 37.5t-19 48t-26.5 41t-34 17.5h-776 q-2 11 -2.5 25.5t-0.5 27.5l51 18q16 6 22 18t6 29l3 155v168q0 15 -4 22.5t-16 11.5l-56 15q0 12 1 29t3 27h262q3 -14 4.5 -25.5t0.5 -31.5l-37 -19q-14 -8 -18 -20t-4 -27v-154l1 -182h165l2 186v164q0 28 -22 37l-35 15q-1 14 0 29t4 28h246q3 -12 4.5 -23.5t1.5 -32.5 l-43 -17q-13 -6 -16.5 -15.5t-3.5 -24.5v-165z" />
<glyph unicode="&#x44a;" horiz-adv-x="675" d="M20 546h409q3 -12 4 -25.5t1 -32.5l-54 -17q-11 -5 -14.5 -17.5t-3.5 -26.5v-83h66q44 0 86.5 -10t76 -31t54 -54t20.5 -79q0 -45 -19.5 -77.5t-53.5 -53t-78.5 -30t-95.5 -9.5h-267q-2 11 -2.5 25.5t-0.5 27.5l47 18q16 6 22 18t6 29l3 155v193l-57 -9q-24 -3 -40 -13.5 t-26.5 -25t-16 -30.5t-9.5 -30q-11 -5 -28.5 -4t-28.5 3v189zM363 78h49q54 1 83.5 23t29.5 68q0 43 -26.5 69t-83.5 27l-52 1v-188z" />
<glyph unicode="&#x44b;" horiz-adv-x="884" d="M839 546q5 -11 6 -24t1 -33l-57 -15q-10 -3 -13 -13t-3 -23v-165l3 -172q0 -24 15 -28l65 -16q0 -37 -7 -57h-293q-2 11 -2.5 25.5t-0.5 27.5l54 18q13 5 19.5 16.5t7.5 28.5l3 148v171q-1 17 -6.5 26t-19.5 14l-50 18q0 13 0.5 27.5t2.5 25.5h275zM250 344h66 q44 0 86.5 -10t76 -31t54 -54t20.5 -79q0 -45 -19.5 -77.5t-53.5 -53t-78.5 -30t-95.5 -9.5h-273q-2 11 -3 26.5t0 29.5l49 17q32 13 32 45l3 155v160q0 31 -29 41l-49 16q0 14 0.5 29.5t2.5 26.5h284q4 -12 4.5 -25.5t0.5 -32.5l-60 -17q-11 -5 -14.5 -17.5t-3.5 -26.5v-83 zM251 78h49q54 1 83.5 23t29.5 68q0 43 -26.5 68.5t-83.5 27.5l-52 1v-188z" />
<glyph unicode="&#x44c;" horiz-adv-x="564" d="M250 344h66q44 0 86.5 -10t76 -31t54 -54t20.5 -79q0 -45 -19.5 -77.5t-53.5 -53t-78.5 -30t-95.5 -9.5h-273q-2 11 -3 26.5t0 29.5l49 17q32 13 32 45l3 155v160q0 31 -29 41l-49 16q0 14 0.5 29.5t2.5 26.5h284q4 -12 4.5 -25.5t0.5 -32.5l-60 -17q-11 -5 -14.5 -17.5 t-3.5 -26.5v-83zM251 78h49q54 1 83.5 23t29.5 68q0 43 -26.5 68.5t-83.5 27.5l-52 1v-188z" />
<glyph unicode="&#x44d;" horiz-adv-x="533" d="M349 322q-5 75 -42 116t-92 41q-31 0 -51.5 -8t-33.5 -21.5t-20 -31t-12 -35.5l-50 -4l-17 139q51 23 99 32t96 9q71 0 122.5 -19t85 -55t49.5 -88.5t16 -119.5q0 -55 -21 -106.5t-58.5 -91t-88.5 -63.5t-111 -24q-63 0 -108.5 14t-79.5 33l42 91q21 -12 61.5 -28 t92.5 -16q33 0 55.5 12t37 32t21.5 46t8 55h-191v91h190z" />
<glyph unicode="&#x44e;" horiz-adv-x="930" d="M896 277q0 -54 -21 -105.5t-58.5 -91.5t-88 -64t-110.5 -24q-118 0 -186.5 59.5t-76.5 187.5h-114l2 -126q0 -14 2 -23.5t13 -13.5l58 -18q0 -19 -0.5 -32.5t-4.5 -25.5h-275q-2 11 -3 25.5t0 27.5l47 18q15 6 21.5 18t6.5 29l3 155v160q0 17 -5.5 27t-20.5 15l-50 18 q0 13 0.5 27.5t2.5 25.5h269q4 -12 4.5 -25.5t0.5 -32.5l-54 -17q-11 -5 -14 -17.5t-3 -26.5v-103h120q10 46 34 88.5t59.5 74.5t79.5 51t93 19q269 0 269 -280zM749 274q0 35 -5 70t-19 63.5t-40.5 46.5t-68.5 18q-40 0 -63 -19t-35 -48.5t-15.5 -64.5t-3.5 -66 q0 -38 6 -73t21 -62t41 -43t67 -16q36 0 58.5 16t35 42.5t17 61.5t4.5 74z" />
<glyph unicode="&#x44f;" horiz-adv-x="621" d="M6 49q24 9 42.5 19.5t29.5 19.5q26 22 50 55.5t55 80.5q-21 8 -41.5 21t-36.5 31.5t-26 43t-10 55.5q0 46 20 78.5t53 53t75 30t86 9.5h281q2 -10 3 -27t1 -29l-56 -15q-14 -4 -18 -13.5t-4 -26.5l-2 -178l1 -152q0 -16 4 -23t16 -10l60 -16q0 -12 -0.5 -29t-2.5 -27 h-279q-3 14 -4 25t-1 31l46 20q13 5 18 20.5t5 29.5l1 77h-65q-17 -30 -36.5 -62.5t-41 -61.5t-44.5 -51t-47 -30q-23 -8 -55 -14t-61 -7zM372 280v185h-55q-51 0 -78.5 -23.5t-27.5 -66.5q0 -44 27 -68.5t85 -25.5z" />
<glyph unicode="&#x451;" horiz-adv-x="568" d="M34 0zM178 643q-6 0 -18 9.5t-24 21.5t-21 24t-9 18t9.5 18t21.5 24.5t24 21.5t17 9q6 0 18.5 -9.5t24.5 -21.5t21.5 -24t9.5 -18q0 -5 -9 -16.5t-21 -24.5t-24.5 -22.5t-19.5 -9.5zM406 643q-6 0 -18 9.5t-24 21.5t-21 24t-9 18t9.5 18t21.5 24.5t24 21.5t17 9 q6 0 18 -9.5t24.5 -21.5t22 -24t9.5 -18q0 -5 -9 -16.5t-21 -24.5t-24.5 -22.5t-19.5 -9.5zM176 257q2 -50 16 -80.5t36.5 -48t53.5 -23.5t67 -6q29 0 67.5 3.5t84.5 14.5l23 -75q-52 -28 -103.5 -40.5t-113.5 -12.5q-54 0 -103.5 11t-87 39.5t-60 77.5t-22.5 125 q0 69 19 127.5t55 100.5t87 65.5t116 23.5q60 0 102.5 -20t69.5 -55t39.5 -82.5t12.5 -103.5v-41h-359zM389 324q0 71 -21.5 115t-73.5 44q-28 0 -50 -12.5t-37.5 -34t-24 -50.5t-9.5 -62h216z" />
<glyph unicode="&#x452;" horiz-adv-x="652" d="M99 622v58h-87v63q20 4 44.5 8t49 7t47 5t40.5 2q22 0 30.5 -8.5t8.5 -26.5v-108h191v-71h-191v-125q15 11 33 23t41 22.5t51 17t62 6.5q57 0 94 -22.5t58.5 -58.5t29.5 -80.5t8 -89.5q0 -68 -18.5 -134t-48.5 -125.5t-69 -111.5t-81 -93l-65 54q64 76 103 172.5 t39 206.5q0 40 -5 73.5t-17.5 57.5t-35 37.5t-57.5 13.5q-34 0 -66.5 -9.5t-52.5 -18.5v-93l3 -158q0 -16 3 -25.5t14 -14.5l58 -18q0 -19 -1 -32.5t-4 -25.5h-284q-3 15 -3.5 25.5t0.5 27.5l48 18q27 9 27 50l3 153v277h-87v71h87z" />
<glyph unicode="&#x456;" horiz-adv-x="363" d="M30 0zM35 0q-4 19 -4 56l61 19q14 4 20.5 16t6.5 28l3 154v197h-92v65q20 4 44 8t48.5 7t47 5t40.5 2q24 0 36 -9t12 -35v-240l2 -161q1 -19 5 -26.5t12 -9.5l74 -18q0 -14 -1 -30t-5 -28h-310zM187 636q-8 0 -22.5 11.5t-29 26.5t-25.5 29.5t-11 20.5q0 8 11 22.5t26 29 t29.5 25.5t21.5 11q6 0 20.5 -11t30 -26t27 -29.5t11.5 -21.5q0 -5 -11 -19.5t-26 -29.5t-30 -27t-22 -12z" />
<glyph unicode="&#x458;" horiz-adv-x="312" d="M0 0zM18 -225q-26 0 -49 4.5t-41 13.5l33 106q16 -8 34.5 -13t41.5 -5q35 0 50.5 23t15.5 77v489h-89v65q20 4 44 8t48 7t46 5t40 2q24 0 35.5 -9t11.5 -35v-240l1 -229q0 -54 -21 -102.5t-53.5 -85.5t-72 -59t-75.5 -22zM170 636q-7 0 -21.5 11.5t-29 26.5t-25.5 29.5 t-11 21.5t11 22t25.5 29.5t29 25.5t21.5 11q6 0 21 -11t30 -26t26.5 -29.5t11.5 -21.5q0 -5 -11 -19.5t-26 -30t-30 -27.5t-22 -12z" />
<glyph unicode="&#x459;" horiz-adv-x="833" d="M0 100q38 9 67.5 24t46.5 35q16 18 25 58.5t14 84.5t6.5 81.5t1.5 50.5q0 14 -3.5 23.5t-16.5 14.5l-53 17q-1 9 1 27.5t5 29.5h494q4 -12 4.5 -25.5t0.5 -32.5l-56 -17q-11 -5 -14.5 -17.5t-3.5 -26.5v-83h66q44 0 86.5 -10t76 -31t54 -54t20.5 -79q0 -45 -19.5 -77.5 t-53.5 -53t-78.5 -30t-95.5 -9.5h-273q-2 11 -2.5 26.5t-0.5 29.5l50 17q32 13 32 45l3 155v186h-134q-4 -48 -7 -98t-8.5 -99t-16 -94t-30.5 -82q-41 -76 -133 -108zM569 78q54 1 83.5 23t29.5 68q0 43 -26.5 68.5t-83.5 27.5l-52 1v-188h49z" />
<glyph unicode="&#x45a;" horiz-adv-x="927" d="M680 336q44 0 86.5 -9.5t76 -30t54 -53t20.5 -77.5t-19.5 -77t-53.5 -52t-78.5 -28.5t-95.5 -8.5h-256q-2 14 -2.5 27t1.5 27l39 19q14 6 19.5 19t5.5 25l1 131h-231l2 -135q0 -14 2 -23.5t13 -13.5l58 -18q0 -19 -0.5 -32.5t-4.5 -25.5h-281q-2 11 -3 25.5t0 27.5l47 18 q15 6 21.5 18t6.5 29l3 155v160q0 17 -5.5 27t-20.5 15l-50 18q0 13 0.5 27.5t2.5 25.5h275q4 -12 4.5 -25.5t0.5 -32.5l-54 -17q-11 -5 -14 -17.5t-3 -26.5v-92h232v100q-1 12 -5 22.5t-18 16.5l-41 18q-2 16 -0.5 28t3.5 26h268q4 -11 5 -24t1 -33l-61 -15 q-10 -3 -12.5 -13t-3.5 -23v-102h65zM615 80h50q54 2 83 20.5t29 63.5q0 87 -110 90l-52 1v-175z" />
<glyph unicode="&#x45b;" horiz-adv-x="695" d="M232 550v-124q15 11 33.5 23t42.5 22.5t52.5 17t62.5 6.5q64 0 100 -13.5t53 -37.5t21 -57.5t4 -72.5v-56l3 -157q1 -13 4 -19.5t12 -8.5l63 -15q0 -38 -7 -58h-271q-2 14 -3.5 27t0.5 29l38 17q13 6 18 20t5 25l2 157q0 27 -2 49t-11 38t-26.5 24.5t-48.5 8.5 q-20 0 -40.5 -2.5t-40 -7t-35.5 -9.5t-26 -9v-93l3 -158q0 -16 3 -25.5t14 -14.5l58 -18q0 -19 -1 -32.5t-4 -25.5h-284q-3 15 -3.5 25.5t0.5 27.5l48 18q27 9 27 50l3 153v276h-87v72h87v58h-87v63q20 4 44.5 8t49 7t47 5t40.5 2q22 0 30.5 -8.5t8.5 -26.5v-108h191v-72 h-191z" />
<glyph unicode="&#x45e;" horiz-adv-x="545" d="M0 0zM556 546v-11.5v-18.5t-0.5 -18t-0.5 -10q-17 -10 -31 -28t-29 -54l-215 -513q-20 -49 -55.5 -80t-75.5 -50l-78 112q26 11 51.5 25.5t45.5 31.5q18 14 29.5 28t18.5 28l-157 440q-7 20 -24 32.5t-43 24.5v28.5t5 32.5h260v-13.5v-22t-0.5 -21.5t-0.5 -12h-68 l114 -348l107 288q6 16 1 32.5t-19 22.5q-5 5 -17 7.5t-16 4.5q0 2 -0.5 9.5t-0.5 15.5q0 9 1 19t3 18h195v0zM297 636q-39 0 -71.5 11t-56 29t-36.5 41.5t-13 48.5l124 34v-86q8 -12 23 -18.5t31 -6.5t31.5 7t22.5 18v86l123 -34q0 -25 -13.5 -48.5t-37 -41.5t-56 -29 t-71.5 -11z" />
<glyph unicode="&#x45f;" horiz-adv-x="726" d="M477 87l1 186v162q-1 12 -5 22.5t-18 16.5l-37 16q-2 16 -0.5 29t3.5 27h260q4 -11 5 -24t1 -33l-57 -15q-10 -3 -12.5 -13t-3.5 -23v-167l4 -173q0 -12 2.5 -17.5t10.5 -7.5l67 -16q0 -20 -1 -33t-5 -24h-269l3 -145h-119l4 145h-275q-2 11 -3 25.5t0 27.5l47 18 q15 6 21.5 18t6.5 29l3 155v160q0 17 -5.5 27t-20.5 15l-50 18q0 13 0.5 27.5t2.5 25.5h271q4 -12 4.5 -25t0.5 -31l-50 -17q-11 -5 -14 -18.5t-3 -27.5v-156l1 -184h229z" />
<glyph horiz-adv-x="619" d="M549 626q0 -26 -10 -50t-27 -45t-39 -39t-47 -31q75 -9 119 -58t44 -141q0 -49 -20 -97.5t-58 -86.5t-93 -62t-124 -24q-50 0 -93 17t-74.5 57.5t-50 109t-18.5 170.5v64q0 77 23 142.5t64.5 113.5t98 75t123.5 27q45 0 79 -12t57 -32t34.5 -45.5t11.5 -52.5zM198 310 q0 -60 7 -102.5t22 -69.5t38 -39t56 -12q28 0 50.5 13.5t38 36t23.5 51t8 59.5q0 25 -6.5 49t-20 43t-34.5 30t-49 11q-12 0 -24 -2.5t-26 -4.5l-25 62q73 26 113.5 69t40.5 95q0 38 -25 63t-70 25q-55 0 -86 -49.5t-31 -159.5v-168z" />
<glyph horiz-adv-x="466" d="M185 -13q-22 0 -47.5 10t-48 27.5t-38 40t-17.5 47.5q-2 28 8.5 50t33 44t57.5 48t83 63q18 13 34.5 32t14.5 39q-2 27 -20 47.5t-40 20.5q-68 0 -139 -41l-37 55q25 19 55 35.5t60 28.5t58 18.5t49 6.5t49.5 -11t54.5 -30.5t44.5 -45t20.5 -53.5q1 -19 -4 -35.5 t-14.5 -31t-21.5 -25.5t-23 -20q-48 -38 -78.5 -61.5t-48 -39t-23.5 -27t-5 -23.5t8 -24t16.5 -21.5t20.5 -15t21 -5.5q34 0 71.5 15.5t69.5 37.5l40 -51q-19 -20 -46.5 -38.5t-62 -33.5t-74 -24t-81.5 -9z" />
<glyph horiz-adv-x="607" d="M539 57q0 -57 -25.5 -109t-66.5 -92t-93 -64t-106 -24q-50 0 -101.5 13t-96.5 36l51 122q34 -21 83.5 -37.5t97.5 -16.5q60 0 87 22t31 79q0 3 0.5 13.5t0.5 23v23.5v15q-12 -11 -27.5 -23t-34 -22t-39 -16t-41.5 -6q-41 0 -81 10t-71.5 38.5t-51 81t-19.5 138.5 q0 69 22.5 123.5t61 92.5t90 58t110.5 20q61 0 116 -8t103 -23v-468zM402 463q-16 4 -35.5 8.5t-48.5 4.5q-41 0 -67.5 -15.5t-43 -44t-23 -67.5t-6.5 -86q0 -88 31 -125t92 -37q30 0 55 5t45 13z" />
<glyph horiz-adv-x="906" d="M885 -21q-41 3 -73.5 11.5t-60 24t-52.5 38.5t-49 54l-129 156v-8l1 -132q1 -17 5.5 -30.5t16.5 -21.5l36 -21q0 -18 -1 -28t-5 -22h-255q-2 11 -3 20.5t0 29.5l38 18q15 8 21.5 21.5t6.5 27.5l4 138v9l-129 -157q-25 -31 -49.5 -54t-52.5 -38.5t-61 -24t-73 -11.5 l-16 68q33 12 69 45t74 81l113 135l-223 191v47h207q3 -11 3.5 -24t0.5 -21l-25 -15q-6 -5 -10.5 -12t-4.5 -15q0 -15 14 -26l163 -156v401h-90v64q17 4 40 8t47.5 7t48 5t41.5 2q23 0 35.5 -9.5t12.5 -35.5v-441l163 155q14 11 14 26q0 8 -4.5 15t-11.5 12l-24 15v21t4 24 h206v-47l-223 -191l113 -135q41 -47 75.5 -80.5t67.5 -45.5z" />
<glyph horiz-adv-x="475" d="M194 -213q-33 0 -63.5 4.5t-57 11.5t-48 15t-35.5 16l39 102q38 -20 83 -36t88 -16q24 0 44.5 6t35 19.5t23 36.5t8.5 58q0 28 -11 53t-31 44t-47.5 30t-59.5 12h-27t-33 -1v83q14 -2 31 -2h28q28 0 49.5 11.5t35.5 31.5t21 46t7 56q0 53 -28 80.5t-68 27.5 q-42 0 -66 -21t-35 -67h-58l-6 127q35 18 85.5 30t98.5 12t87.5 -12t68 -35.5t44.5 -58t16 -79.5q0 -57 -32 -101.5t-80 -66.5v-2q28 -6 54 -18t46.5 -33t32.5 -51.5t12 -72.5q0 -40 -23 -82.5t-59 -77.5t-81 -57.5t-89 -22.5z" />
<glyph d="M14 0zM680 33q-27 -14 -65 -27t-83 -13q-38 0 -60 18t-24 62q-38 -35 -82 -59.5t-99 -24.5q-60 0 -94 13.5t-50.5 37t-20 55t-3.5 66.5v309h-85v60q41 9 82.5 17.5t76.5 8.5q30 0 46.5 -13t16.5 -42v-210l1 -104q0 -22 3 -39.5t10 -30t19.5 -19t32.5 -6.5q34 0 71 13 t69 30l4 138v197h-83v60q35 11 77 18.5t78 7.5q29 0 46.5 -13t17.5 -42v-229l5 -181h83z" />
<glyph d="M14 0zM337 636q-39 0 -71.5 11t-56 29t-36.5 41.5t-13 48.5l124 34v-86q8 -12 23 -18.5t31 -6.5t31.5 7t22.5 18v86l123 -34q0 -25 -13.5 -48.5t-37 -41.5t-56 -29t-71.5 -11zM680 33q-27 -14 -65 -27t-83 -13q-38 0 -60 18t-24 62q-38 -35 -82 -59.5t-99 -24.5 q-60 0 -94 13.5t-50.5 37t-20 55t-3.5 66.5v309h-85v60q41 9 82.5 17.5t76.5 8.5q30 0 46.5 -13t16.5 -42v-210l1 -104q0 -22 3 -39.5t10 -30t19.5 -19t32.5 -6.5q34 0 71 13t69 30l4 138v197h-83v60q35 11 77 18.5t78 7.5q29 0 46.5 -13t17.5 -42v-229l5 -181h83z" />
<glyph horiz-adv-x="631" d="M16 0zM615 -17q-43 2 -78.5 10t-65.5 23t-56 38t-50 56l-123 163l2 -147q1 -17 5.5 -30.5t16.5 -21.5l30 -20q0 -19 -1 -30.5t-5 -23.5h-269q-3 15 -3.5 25.5t0.5 27.5l56 18q17 5 23 18t6 31l3 154v404h-90v65q20 4 44 8t48 7t46.5 4.5t40.5 1.5q23 0 35 -9t12 -35v-403 v-28l157 144q14 11 14 26q0 8 -4 15.5t-12 9.5l-37 17q0 8 0.5 21t3.5 24h218v-47l-210 -180l113 -142q38 -48 76 -80.5t68 -43.5z" />
<glyph horiz-adv-x="554" d="M6 0q-1 4 -3 22t0 31q13 13 28.5 33.5t29.5 55.5l173 400l103 31l165 -453q8 -20 18.5 -32.5t28.5 -25.5q0 -35 -6 -62h-237q-3 15 -3.5 32t0.5 30l36 14q25 8 18 30l-98 297l-111 -274q-6 -15 -0.5 -32t13.5 -21q6 -5 19 -8.5t17 -4.5q0 -15 1 -31.5t-4 -31.5h-188z" />
<glyph horiz-adv-x="711" d="M29 0zM698 57q0 -20 -1 -33t-5 -24h-268q-2 14 -3.5 27t0.5 29l32 17q14 8 18.5 19.5t4.5 24.5l3 157v63q0 27 -2 49.5t-11 38t-27 24t-49 8.5q-19 0 -39 -2.5t-39 -6.5t-34.5 -9t-25.5 -10v-155l2 -161q0 -14 2 -23.5t13 -13.5l62 -18q0 -19 -0.5 -32.5t-4.5 -25.5h-285 q-2 11 -3 25.5t0 27.5l47 18q15 6 21.5 18t6.5 29l3 156v196h-87v65q20 4 44.5 8t49 7t47 4.5t40.5 1.5q22 0 30 -8.5t8 -27.5v-31q15 11 33 23t41.5 22.5t51.5 17t62 6.5q64 0 100.5 -13.5t53.5 -37.5t21 -57.5t4 -72.5v-103l3 -176q1 -12 3 -17.5t11 -7.5l66 -16v0z" />
<glyph horiz-adv-x="1061" d="M30 0zM1049 57q0 -37 -7 -57h-270q-6 25 -4 57l36 17q22 12 22 43l3 156v65q0 27 -2 49.5t-10.5 38t-26 24t-48.5 8.5q-36 0 -74 -8t-61 -17v-10.5t0.5 -16.5t0.5 -17v-12v-103l3 -172q0 -25 14 -29l70 -16q0 -20 -1 -33t-5 -24h-272q-2 14 -3.5 27t-0.5 29l36 16 q11 6 15.5 17t5.5 22l3 162v65q0 27 -2 49.5t-10.5 38t-25.5 24t-48 8.5q-39 0 -77 -9.5t-58 -19.5v-155l2 -159q0 -14 2.5 -25t12.5 -13l63 -18q0 -19 -1 -33t-4 -26h-287q-4 14 -4 25v28l47 17q14 5 22 16t8 32l2 156v196h-85v65q20 4 44 8t48 7t46.5 4.5t40.5 1.5 q22 0 30.5 -8.5t8.5 -27.5v-31q15 11 32.5 23t40 22.5t50 17t61.5 6.5q77 0 113.5 -19t49.5 -52q15 11 34 23.5t43 23t52.5 17.5t63.5 7q64 0 99.5 -13.5t53 -37.5t21 -57.5t3.5 -72.5v-103l3 -172q0 -14 3 -20.5t13 -8.5l65 -16v0z" />
<glyph horiz-adv-x="720" d="M718 -138l-96 -55l-31 5l23 194q-18 -6 -39 -9.5t-46 -3.5q-37 0 -58.5 18t-23.5 62q-17 -14 -36 -29t-41 -27t-46.5 -20t-52.5 -8q-60 0 -95 13.5t-52 37t-21.5 55t-4.5 66.5v310h-85v60q41 9 82.5 17.5t76.5 8.5q30 0 46.5 -13t16.5 -42v-200l1 -115q0 -22 3 -39.5 t10 -30t19.5 -19t32.5 -6.5q17 0 36.5 4.5t39 11.5t36.5 14.5t28 12.5l4 138v198h-83v60q38 11 78.5 18.5t76.5 7.5q29 0 46.5 -13t17.5 -42v-230l5 -189h132v-221z" />
<glyph horiz-adv-x="1036" d="M271 -11q-60 0 -95 13.5t-52.5 37t-22 55t-4.5 66.5v310h-85v60q41 9 82.5 17.5t77.5 8.5q62 0 62 -55l1 -315q1 -44 13 -69.5t52 -25.5q17 0 37 4.5t40 11.5t37.5 14.5t29.5 12.5l3 116v220h-82v60q36 9 76.5 17.5t78.5 8.5q28 0 45.5 -12.5t17.5 -42.5v-315 q1 -44 14.5 -69.5t54.5 -25.5q17 0 36 4.5t37.5 11.5t35 14.5t28.5 12.5l4 138v198h-83v60q38 11 78.5 18.5t76.5 7.5q29 0 46 -13t17 -42v-230l5 -181h84l9 -58q-27 -14 -64.5 -27t-82.5 -13q-38 0 -60 18t-24 62q-17 -14 -35.5 -29t-40 -27t-45.5 -20t-51 -8 q-81 0 -118.5 24t-49.5 63q-17 -14 -37.5 -29.5t-44.5 -28.5t-49.5 -21t-52.5 -8z" />
<glyph horiz-adv-x="1067" d="M583 187q1 -44 14.5 -69.5t54.5 -25.5q17 0 36 4.5t37.5 11.5t35 14.5t28.5 12.5l4 138v198h-83v60q38 11 78.5 18.5t76.5 7.5q29 0 46 -13t17 -42v-230l5 -188l132 -1v-221l-95 -55l-31 5l22 194q-14 -5 -36 -9t-46 -4q-40 0 -61 18t-23 62q-17 -14 -35.5 -29t-40 -27 t-45.5 -20t-51 -8q-81 0 -118.5 24t-49.5 63q-17 -14 -37.5 -29.5t-44.5 -28.5t-49.5 -21t-52.5 -8q-60 0 -95 13.5t-52.5 37t-22 55t-4.5 66.5v310h-85v60q41 9 82.5 17.5t77.5 8.5q62 0 62 -55l1 -315q1 -44 13 -69.5t52 -25.5q17 0 37 4.5t40 11.5t37.5 14.5t29.5 12.5 l3 116v220h-82v60q36 9 76.5 17.5t78.5 8.5q28 0 45.5 -12.5t17.5 -42.5v-315z" />
<glyph horiz-adv-x="700" d="M16 546h343v-172q6 3 20.5 10.5t33.5 15t38.5 13.5t35.5 6q95 0 144 -45.5t49 -147.5q0 -40 -19.5 -82t-53.5 -76t-80 -55.5t-99 -21.5q-59 0 -98.5 12.5t-63.5 37t-34 60t-10 82.5l1 283l-57 -9q-24 -3 -40 -13.5t-26.5 -25t-16.5 -30.5t-9 -30q-11 -5 -28.5 -4t-29.5 3 v189zM359 174q0 -46 22.5 -72.5t62.5 -26.5q28 0 46.5 11t29.5 29t15.5 42t4.5 51q0 21 -3.5 42.5t-12.5 39t-25.5 28t-42.5 10.5q-14 0 -28.5 -3t-28 -7.5t-24 -8.5t-16.5 -7v-128z" />
<glyph horiz-adv-x="575" d="M304 -9q-59 0 -98.5 12.5t-63.5 37t-34 60.5t-10 82v288h-92v66q21 5 45.5 9t49 6.5t47 4t40.5 1.5q23 0 35 -9t12 -35v-140q6 3 20.5 10.5t33.5 15t38.5 13.5t35.5 6q95 0 144 -45.5t49 -146.5q0 -41 -19.5 -82.5t-53.5 -76t-80 -56t-99 -21.5zM320 75q28 1 46.5 11.5 t29.5 28.5t15.5 42.5t4.5 51.5q0 21 -3.5 42.5t-12.5 38.5t-25.5 27.5t-42.5 10.5q-14 0 -28.5 -3t-28 -7.5t-24 -8.5t-16.5 -7v-127q0 -47 22.5 -73.5t62.5 -26.5z" />
<glyph horiz-adv-x="917" d="M607 -8q-118 0 -187 59.5t-77 187.5h-113l2 -126q0 -14 2 -23.5t12 -13.5l59 -18q0 -19 -1 -32.5t-4 -25.5h-276q-2 11 -2.5 25.5t-0.5 27.5l48 18q15 6 21 18t6 29l3 155v405h-90v64q17 4 39.5 8t46.5 7t46.5 5t40.5 2q22 0 34.5 -9.5t12.5 -35.5v-395h120 q10 46 34.5 88.5t59.5 74.5t79 51t94 19q268 0 268 -280q0 -54 -21 -105.5t-58 -91.5t-87.5 -64t-110.5 -24zM738 274q0 35 -5 70t-19.5 63.5t-40.5 46.5t-68 18q-40 0 -63.5 -19t-35.5 -48.5t-15.5 -64.5t-3.5 -66q0 -38 6 -73t21 -62t41.5 -43t67.5 -16q36 0 58 16 t35 42.5t17.5 61.5t4.5 74z" />
<glyph horiz-adv-x="546" d="M28 0zM527 351q-3 -1 -10.5 -1h-16.5h-19t-12 2q-3 14 -9 30.5t-16 31t-26.5 25t-40.5 12.5l-127 9v-186l3 -160q0 -19 3.5 -27.5t11.5 -10.5l81 -18q0 -14 -0.5 -30t-4.5 -28h-311q-2 11 -3.5 25t-0.5 31l54 19q15 5 21.5 17t6.5 29l3 153v159q0 17 -5.5 27t-20.5 15 l-50 18q0 13 0.5 27.5t2.5 25.5h486v-195v0z" />
<glyph horiz-adv-x="601" d="M574 274q0 -60 -23.5 -112t-63 -89.5t-92 -59t-109.5 -21.5t-104 17.5t-80.5 50t-51.5 79t-18 104.5q0 93 48.5 156t129.5 91q-21 12 -40 25.5t-33 29.5t-22.5 36t-8.5 45q0 31 21 60t52.5 50.5t67.5 34.5t67 13q51 0 90 -6t63 -6q11 0 26 6t29 14q17 9 34 21q2 -2 8 -5 t12 -8q7 -5 15 -11l-74 -132q-14 3 -42.5 9t-60.5 12t-63.5 10.5t-51.5 4.5q-15 0 -29 -2t-25.5 -7t-18.5 -13.5t-7 -21.5q0 -22 26.5 -42.5t65.5 -43t85.5 -49t85.5 -60.5t65.5 -78t26.5 -102zM427 253q0 40 -11.5 70t-31.5 53t-47.5 41t-59.5 36q-30 -15 -49.5 -32.5 t-30.5 -39t-15.5 -49t-4.5 -61.5q0 -35 5.5 -69t20.5 -61t41.5 -43.5t67.5 -16.5q34 0 56 15t35 39t18.5 55t5.5 63z" />
<glyph horiz-adv-x="664" d="M8 0zM8 88h65q19 21 32.5 54t22.5 68.5t14 69.5t7 58q3 12 5.5 30t4 36t1 33t-4.5 21q0 4 -5 8t-12 7.5t-14.5 6.5t-11.5 4l-18 8q0 9 2 27t4 27h506q4 -11 5.5 -24t1.5 -34l-62 -15q-11 -3 -14.5 -11.5t-3.5 -22.5v-188l4 -164h101v-236q-3 -1 -11 -1h-19h-22t-14 2 q-3 13 -10.5 38t-19 49.5t-27 42.5t-34.5 18h-310q-27 0 -44.5 -18t-28 -43t-16 -50t-8.5 -38q-3 -2 -14 -2h-22q-10 0 -18.5 0.5t-11.5 0.5v238zM393 87l1 138l2 234h-142q-3 -32 -6 -66t-7 -66.5t-8.5 -62.5t-10.5 -54q-8 -32 -19 -62t-26 -61h216z" />
<glyph horiz-adv-x="728" d="M32 0zM614 273l3 -172q0 -24 15 -28l69 -16q0 -37 -7 -57h-287q-2 14 -2.5 27t1.5 27l46 19q12 5 17.5 18t6.5 25v131l2 212h-231v-213l2 -133q0 -14 2 -23.5t13 -13.5l58 -18q0 -19 -0.5 -32.5t-4.5 -25.5h-281q-2 11 -3 25.5t0 27.5l47 18q15 6 21.5 18t6.5 29l3 155 v160q0 17 -5.5 27t-20.5 15l-50 18q0 13 0.5 27.5t2.5 25.5h647q4 -11 5 -24t1 -33l-61 -15q-10 -3 -13 -13t-3 -23v-165z" />
<glyph horiz-adv-x="576" d="M20 0zM555 546v-182q-11 -3 -28.5 -3.5t-27.5 4.5q-4 16 -9 32t-14 29.5t-23.5 22t-36.5 10.5h-60v-186l2 -161q0 -19 4 -26.5t12 -9.5l74 -18q0 -14 -1 -30t-4 -28h-310q-4 19 -4 56l61 19q13 4 19.5 16t7.5 28l3 154v186h-61q-23 -2 -37 -10.5t-23 -22t-14 -29.5 t-9 -32q-11 -5 -28 -4t-28 3v182h535z" />
<glyph unicode="&#xb4;" horiz-adv-x="573" d="M434 759q-32 -24 -61 -44.5t-58 -38.5t-59 -34t-63 -31l-34 52q31 22 58 43t51 42t47.5 43.5t48.5 48.5z" />
<glyph unicode="`" horiz-adv-x="573" d="M223 839q25 -26 49 -48.5t48.5 -43.5t51.5 -41.5t59 -42.5l-34 -52q-67 30 -123.5 65t-119.5 82z" />
<glyph unicode="&#x2c6;" horiz-adv-x="556" d="M87 660q58 45 105 90.5t89 93.5q18 -20 40.5 -44.5t47 -49t48.5 -46.5t44 -37l-48 -54q-39 23 -77.5 53t-66.5 55q-25 -21 -62.5 -50t-79.5 -58z" />
<glyph unicode="&#xa8;" horiz-adv-x="512" d="M142 643q-6 0 -18 9.5t-24 21.5t-21 24t-9 18t9.5 18t21.5 24.5t24 21.5t17 9q6 0 18.5 -9.5t24.5 -21.5t21.5 -24t9.5 -18q0 -5 -9 -16.5t-21 -24.5t-24.5 -22.5t-19.5 -9.5zM370 643q-6 0 -18 9.5t-24 21.5t-21 24t-9 18t9.5 18t21.5 24.5t24 21.5t17 9q6 0 18 -9.5 t24.5 -21.5t22 -24t9.5 -18q0 -5 -9 -16.5t-21 -24.5t-24.5 -22.5t-19.5 -9.5z" />
<glyph unicode="&#x2dc;" horiz-adv-x="556" d="M470 731l-22 -28t-25 -26t-31.5 -19.5t-40.5 -7.5q-15 0 -39.5 6t-49.5 13.5t-48 14t-35 6.5q-20 0 -37 -5.5t-33 -19.5l-29 36q12 13 24.5 27.5t27 26.5t32.5 19.5t40 7.5q19 0 44 -6t50 -13t45.5 -13t30.5 -6q17 0 29 3t20 7q10 4 17 10l30 -33v0z" />
<glyph unicode="&#x2da;" horiz-adv-x="536" d="M382 736q0 -27 -12.5 -48.5t-31.5 -36t-41.5 -22.5t-42.5 -8q-19 0 -41.5 4t-42 15.5t-32.5 32t-13 52.5q0 28 11 50t29.5 37.5t41.5 23.5t47 8q20 0 42.5 -4t41.5 -15.5t31.5 -33t12.5 -55.5zM308 732q0 29 -14.5 46.5t-40.5 17.5q-29 0 -41.5 -16.5t-12.5 -45.5t14 -47 t41 -18q29 0 41.5 17t12.5 46z" />
<glyph unicode="&#xb8;" horiz-adv-x="453" d="M360 -169q0 -23 -12 -45.5t-31.5 -40.5t-44.5 -29t-52 -11q-49 0 -101 34l40 71q20 -14 45 -21.5t46 -7.5q18 0 30 6t12 18q0 15 -11 25t-30.5 17.5t-45 13t-53.5 10.5l59 138h72l-42 -75q60 -14 89.5 -36t29.5 -67z" />
<glyph unicode="&#x2c7;" horiz-adv-x="523" d="M449 787q-58 -45 -104.5 -90.5t-89.5 -93.5q-18 20 -40.5 44.5t-47 49t-48.5 46.5t-44 37l49 53q38 -23 76.5 -53t67.5 -54q24 20 61.5 49t80.5 58l39 -46v0z" />
<glyph horiz-adv-x="833" d="M310 806q67 23 133 50t128 62l43 -96q-29 -12 -63.5 -23.5t-72 -21.5t-76 -19t-74.5 -16z" />
<glyph horiz-adv-x="825" d="M618 891q-29 -18 -53.5 -35t-47.5 -34.5t-45 -36.5t-46 -41q-38 36 -85 72t-92 65l40 61q39 -17 79.5 -38t70.5 -42q29 18 66 39t82 41z" />
<glyph horiz-adv-x="825" d="M243 785q29 18 53.5 34.5t47 34t44.5 36t46 41.5q38 -35 85 -71t92 -66l-39 -61q-40 17 -80 38.5t-70 42.5q-29 -18 -66.5 -39.5t-82.5 -41.5z" />
<glyph horiz-adv-x="623" d="M197 756q-6 0 -18 9.5t-24 21.5t-21 24t-9 18t9.5 18t21.5 24.5t24 21.5t17 9q6 0 18.5 -9.5t24.5 -22t21.5 -24.5t9.5 -17t-9 -16.5t-21 -24.5t-24.5 -22.5t-19.5 -9.5zM430 756q-6 0 -18 9.5t-24.5 21.5t-21.5 24t-9 18t9.5 18t21.5 24.5t24 21.5t18 9t18 -9.5 t24.5 -22t22 -24.5t9.5 -17t-9 -16.5t-21 -24.5t-24.5 -22.5t-19.5 -9.5z" />
<glyph horiz-adv-x="817" d="M550 742q-36 7 -74.5 16t-76 19t-72.5 21.5t-64 23.5l44 96q62 -35 128 -62t133 -50l-18 -64v0z" />
<glyph horiz-adv-x="828" d="M511 753q-15 0 -40.5 6t-52.5 13.5t-51 14t-37 6.5q-20 0 -36.5 -6.5t-33.5 -17.5l-28 35q12 13 24.5 27.5t27 26.5t32 19.5t39.5 7.5q19 0 45.5 -6t52.5 -13t48 -13t33 -6q29 0 45 7.5t21 12.5l29 -33q-9 -14 -20 -28.5t-25 -26t-32 -19t-41 -7.5z" />
<glyph horiz-adv-x="582" d="M415 843q0 -25 -11.5 -44t-28.5 -31.5t-37.5 -19t-39.5 -6.5q-10 0 -30.5 2.5t-41.5 13t-36.5 30.5t-15.5 56q0 27 10.5 47t27 33t38 19.5t44.5 6.5q19 0 40.5 -4.5t39.5 -16.5t29.5 -33t11.5 -53zM347 845q0 26 -14 42.5t-39 16.5q-27 0 -39 -15t-12 -42t13.5 -44 t39.5 -17q27 0 39 15.5t12 43.5z" />
<glyph horiz-adv-x="675" d="M328 764q-39 0 -71.5 11t-56 29t-36.5 41.5t-13 48.5l124 34v-86q7 -12 22.5 -18.5t31.5 -6.5q15 0 31 6.5t22 18.5v86l123 -34q0 -25 -13.5 -48.5t-37 -41.5t-56 -29t-70.5 -11z" />
<glyph horiz-adv-x="511" d="M249 636q-39 0 -71.5 11t-56 29t-36.5 41.5t-13 48.5l124 34v-86q8 -12 23 -18.5t31 -6.5t31.5 7t22.5 18v86l123 -34q0 -25 -13.5 -48.5t-37 -41.5t-56 -29t-71.5 -11z" />
<glyph unicode="&#x30a;" horiz-adv-x="0" d="M-176 737q0 -27 -12.5 -48.5t-31.5 -36t-41.5 -22.5t-42.5 -8q-19 0 -41.5 4t-42 15.5t-32.5 32t-13 52.5q0 28 11 50.5t29.5 38t41.5 23.5t47 8q21 0 43.5 -4t41 -16t31 -33.5t12.5 -55.5zM-250 733q0 29 -14.5 46.5t-40.5 17.5q-29 0 -41.5 -16.5t-12.5 -45.5t14 -47 t41 -18q29 0 41.5 17t12.5 46z" />
<glyph unicode="0" horiz-adv-x="636" d="M582 363q0 -74 -14.5 -141.5t-46.5 -118.5t-84 -81.5t-127 -30.5q-80 0 -129.5 28t-77.5 76t-38 112t-10 136q0 67 13.5 133t45.5 118.5t84 85.5t129 33q85 0 135.5 -31t77 -81t34.5 -112.5t8 -125.5zM429 350q0 42 -3.5 89.5t-16 88t-36.5 67.5t-64 27q-42 0 -64 -27.5 t-31.5 -68t-10.5 -86t-1 -82.5q0 -46 4 -94.5t17 -89t38 -66.5t66 -26q35 0 55.5 21t30.5 52.5t13 68t3 67.5v59z" />
<glyph unicode="1" horiz-adv-x="463" d="M452 65q0 -19 -1 -35.5t-5 -29.5h-401q-3 12 -4.5 32t-0.5 31l91 28q14 4 25 17t13 35l5 136v324h-138v72l278 50v-447l2 -151q0 -33 38 -40l98 -22v0z" />
<glyph unicode="2" horiz-adv-x="546" d="M49 0l-21 78q15 16 42.5 44t59.5 63.5t65 76.5t60 83t44 82.5t17 75.5q0 88 -107 88q-43 0 -74 -6.5t-62 -16.5l-30 86q16 10 37.5 20.5t47.5 19.5t55 15t60 6q65 0 109.5 -13t72 -38.5t39.5 -62t12 -83.5q0 -60 -27.5 -114.5t-71 -104t-97.5 -95t-106 -88.5l329 19v-135 h-454z" />
<glyph unicode="3" horiz-adv-x="526" d="M481 222q0 -54 -24.5 -97t-63.5 -73t-88 -46.5t-98 -16.5q-57 0 -99.5 9t-82.5 24l28 100q35 -14 72 -23.5t80 -9.5q57 0 91 24t34 81q0 34 -13 58t-35 39t-52 23t-64 12l-11 63q27 4 53 15.5t46 29t32.5 40.5t12.5 51q0 50 -29.5 69t-71.5 19q-35 0 -67 -7.5t-59 -17.5 l-27 77q37 23 89.5 37.5t106.5 14.5q42 0 79 -8.5t64.5 -28t44 -50.5t16.5 -76q0 -27 -13 -53t-32.5 -47t-41 -36t-39.5 -22q25 -4 53.5 -18.5t52.5 -37t40 -52.5t16 -66z" />
<glyph unicode="4" horiz-adv-x="584" d="M449 176l5 -176h-148l4 176h-255l-44 81l211 450h78l-186 -419h197v419h137v-419h101v-112h-100z" />
<glyph unicode="5" horiz-adv-x="542" d="M502 238q0 -49 -23 -94t-62 -79.5t-90 -55t-107 -20.5q-62 0 -107 8.5t-89 24.5l28 100q41 -14 83.5 -24.5t90.5 -10.5q60 0 90.5 22.5t30.5 79.5q0 31 -13 54t-35 38.5t-50.5 25t-59.5 15t-62 8.5t-58 5l37 372h375l-9 -131l-283 23l-11 -131q57 -5 114.5 -17.5t104 -38 t76 -68t29.5 -106.5z" />
<glyph unicode="6" horiz-adv-x="597" d="M566 252q0 -52 -20 -99.5t-54 -83.5t-80.5 -57.5t-98.5 -21.5q-77 0 -128 21.5t-81 61t-42.5 97t-12.5 129.5q0 79 25.5 155t73 135.5t115.5 96t153 36.5q25 0 53 -3t48 -10l-26 -99q-17 5 -44 9t-48 4q-68 0 -108.5 -29.5t-61.5 -75.5t-27 -102.5t-6 -110.5 q0 -30 4.5 -69.5t18.5 -75.5t38.5 -60.5t65.5 -24.5q30 0 49.5 13.5t30.5 34.5t15.5 46.5t4.5 49.5q0 27 -7 52.5t-21.5 46t-36.5 32.5t-51 12q-11 0 -23.5 -1t-25.5 -3l-12 77q26 8 52 13.5t60 5.5q100 0 154 -50t54 -152z" />
<glyph unicode="7" horiz-adv-x="509" d="M144 -45l-105 48l326 586l-333 -12v130h448l29 -58z" />
<glyph unicode="8" horiz-adv-x="607" d="M561 207q0 -48 -21 -88.5t-57 -69t-84.5 -44.5t-103.5 -16q-53 0 -98 12t-78.5 36t-52.5 60t-19 83q0 29 9.5 54.5t26 46.5t38.5 38.5t47 31.5q-41 30 -68.5 70t-27.5 96q0 32 16 67.5t46 65t72 49t93 19.5q52 0 95.5 -11.5t75 -33.5t49.5 -54t18 -72q0 -61 -35 -100 t-88 -66q27 -15 53.5 -32.5t47.5 -38.5t33.5 -46.5t12.5 -56.5zM411 535q0 15 -6 33t-19 34.5t-34 27.5t-52 11q-48 0 -74.5 -26t-26.5 -68q0 -23 15 -42.5t38 -36t52 -31.5t58 -29q26 25 37.5 54.5t11.5 72.5zM420 167q0 24 -17.5 42.5t-45 36t-62.5 34t-70 35.5 q-22 -27 -36 -58t-14 -69q0 -21 9 -42.5t26 -39t40.5 -28t53.5 -10.5q60 0 88 26.5t28 72.5z" />
<glyph unicode="9" horiz-adv-x="597" d="M548 407q0 -79 -25.5 -154.5t-73 -134t-115.5 -94.5t-153 -36q-25 0 -53 3t-48 10l26 100q18 -6 44.5 -10t48.5 -4q68 0 108.5 29.5t61.5 76t27 102.5t6 110q0 30 -4.5 70t-18.5 75.5t-39 60t-66 24.5q-30 0 -49.5 -13.5t-30.5 -34.5t-15.5 -46.5t-4.5 -49.5 q0 -27 7 -52.5t21.5 -46t36.5 -32.5t51 -12q11 0 23.5 1t25.5 3l12 -77q-25 -8 -51 -13.5t-60 -5.5q-100 0 -154.5 51.5t-54.5 153.5q0 51 20 98t54.5 83t80.5 57t99 21q77 0 127.5 -22t80.5 -62.5t42.5 -98.5t12.5 -130z" />
<glyph unicode="&#x2122;" horiz-adv-x="897" d="M760 348l-32 193l-10 71l-18 -66l-61 -198h-97l-45 188l-13 66l-12 -66l-38 -188h-79l83 359h92l50 -206l19 -83l22 86l63 203h94l69 -359h-87zM380 632l-121 11v-152l5 -143h-89l4 143v152l-121 -11v75h322v-75z" />
<glyph unicode="&#xae;" horiz-adv-x="548" d="M513 531q0 -54 -18.5 -96t-50.5 -70.5t-75.5 -43t-92.5 -14.5q-40 0 -82.5 11.5t-78 37.5t-58 69t-22.5 106q0 55 18.5 97.5t51 72t76.5 44.5t94 15q43 0 85.5 -12.5t76.5 -39.5t55 -70.5t21 -106.5zM460 531q0 48 -15.5 82.5t-41.5 57t-59 33.5t-68 11q-38 0 -71.5 -10 t-59 -32t-40.5 -56t-15 -82q0 -59 21 -95t51 -55.5t62.5 -26t56.5 -6.5q38 0 71 11.5t57 34.5t37.5 56t13.5 77zM394 411q-29 1 -48 6t-36 20q-16 14 -26.5 32.5t-21.5 38.5q-2 -1 -6.5 -1h-9.5l2 -91h-70l2 100v150l98 1q42 0 67.5 -19.5t25.5 -60.5q0 -47 -42 -69 q5 -8 15.5 -23t19.5 -23q8 -8 15.5 -13.5t21.5 -11.5zM304 586q0 20 -8 31t-34 11h-16v-85h13q26 0 35.5 11.5t9.5 31.5z" />
<glyph unicode="&#xa9;" horiz-adv-x="918" d="M845 352q0 -87 -30 -155t-81.5 -114.5t-121.5 -70.5t-150 -24q-65 0 -133.5 18.5t-125.5 61t-93.5 112t-36.5 172.5q0 88 30 157t82.5 116.5t123 72t151.5 24.5q69 0 138 -20t124 -64t89 -114.5t34 -171.5zM784 352q0 83 -27.5 143.5t-72.5 99.5t-103 58t-119 19 q-66 0 -125 -17.5t-103.5 -55.5t-70.5 -97.5t-26 -143.5q0 -69 17 -119.5t45 -86t63.5 -58t72.5 -35t72.5 -17t62.5 -4.5q67 0 124.5 20.5t99.5 60t66 98t24 135.5zM613 165q-34 -12 -65 -17.5t-71 -5.5q-112 0 -172 52.5t-60 165.5q0 48 16.5 89.5t46.5 72t72 48t94 17.5 q22 0 38.5 -1.5t31.5 -4.5t30 -8t35 -12v-102q-7 -1 -17.5 -1t-21.5 1q-13 34 -35.5 52t-62.5 18q-61 0 -95.5 -38t-34.5 -128q0 -78 38.5 -114t107.5 -36q29 0 54.5 3.5t54.5 9.5z" />
<glyph horiz-adv-x="523" d="M39 151l63 63q-17 20 -28 48.5t-11 60.5t10 60.5t28 49.5l-62 62l49 49l69 -69q22 11 48.5 18.5t54.5 7.5t54.5 -6t49.5 -19l68 69l50 -50l-62 -63q18 -20 28 -48.5t10 -60.5t-10.5 -60.5t-29.5 -49.5l64 -62l-50 -50l-68 69q-23 -11 -49.5 -17.5t-54.5 -6.5 q-58 0 -101 25l-70 -69zM260 237q47 0 67 25.5t20 60.5t-20.5 61.5t-66.5 26.5q-45 0 -66 -26.5t-21 -61.5t21.5 -60.5t65.5 -25.5z" />
<glyph unicode="&#x20ac;" horiz-adv-x="671" d="M431 -9q-78 0 -133 19t-91.5 51t-56.5 75.5t-29 92.5h-87v63h79q-1 14 -1 26.5v26.5q0 17 1 34.5t4 34.5h-83v63h96q15 48 40 91.5t61.5 76.5t85 52.5t110.5 19.5q44 0 81.5 -6.5t65 -19t43 -30t15.5 -38.5q0 -17 -5.5 -30.5t-14.5 -24.5t-19.5 -19t-19.5 -13 q-23 18 -41.5 35t-36 30t-34.5 20.5t-36 7.5q-41 0 -69 -10.5t-46.5 -30t-29 -48t-15.5 -63.5h225v-63h-230q-1 -16 -1 -32v-33q0 -14 0.5 -28.5t1.5 -28.5h229v-63h-220q15 -72 57 -107.5t122 -35.5q21 0 42 8t39.5 19.5t34 23t25.5 18.5q21 -20 32.5 -53t13.5 -62 q-35 -21 -82.5 -35t-122.5 -14z" />
<glyph unicode="$" horiz-adv-x="612" d="M39 0zM579 207q0 -52 -20 -90t-53 -64t-76 -40.5t-88 -20.5v-92h-59v89q-34 0 -70 4.5t-68.5 11.5t-60 16.5t-45.5 20.5l14 177h30h21.5t13.5 -1q3 -33 17.5 -59.5t37 -45.5t51 -30t59.5 -12v201q-38 16 -76.5 35t-70 44.5t-51.5 60t-20 82.5q0 44 18.5 81.5t49 66 t69.5 47t81 23.5v87h59v-86q58 -2 110.5 -13.5t89.5 -28.5v-149h-56q-12 51 -52.5 76.5t-91.5 30.5v-202q40 -16 82.5 -35t76.5 -44.5t56 -59.5t22 -81zM283 627q-38 -5 -62 -26.5t-24 -63.5q0 -28 24 -47.5t62 -36.5v174zM433 159q0 31 -26 51t-65 38v-173q38 8 64.5 27 t26.5 57z" />
<glyph unicode="&#xa2;" horiz-adv-x="539" d="M33 0zM501 562q0 -39 -14 -59t-44 -35q-12 14 -28 30.5t-34 30.5t-36 23.5t-34 9.5q-33 0 -58.5 -10t-43 -33t-27 -61t-9.5 -95q0 -79 40 -128t125 -49q31 0 65.5 4t66.5 11l23 -73q-32 -18 -69.5 -31.5t-85.5 -17.5v-179h-61v178q-67 2 -113.5 19.5t-75.5 52.5t-42 88 t-13 127q0 48 16.5 95t48 85.5t76.5 65t103 33.5v154h61v-152q28 -1 57 -6t52.5 -15t38.5 -25.5t15 -37.5z" />
<glyph unicode="&#xa3;" horiz-adv-x="597" d="M560 78q-7 -15 -18 -29t-25.5 -25t-33.5 -17.5t-41 -6.5h-409q-3 27 -3 56l48 15q24 8 31.5 23.5t9.5 42.5l23 213h-74v66h81l16 148q4 41 25.5 78t53.5 65.5t72 45t81 16.5q28 0 55.5 -3t49.5 -11t35.5 -22t13.5 -36q0 -26 -16 -45.5t-36 -30.5q-11 9 -23 21t-24 22.5 t-23.5 17.5t-21.5 7q-53 0 -76 -30t-28 -76l-17 -167h156v-66h-162l-26 -250l198 9q18 1 29.5 7t22.5 17l56 -55v0z" />
<glyph unicode="&#xa5;" horiz-adv-x="671" d="M39 0zM617 629q-36 -4 -47 -17q-18 -22 -41.5 -57t-48 -73t-46.5 -74t-36 -60h196v-59h-197v-63l1 -30h196v-59h-194l7 -137h-162l6 137h-174v59h177l2 32v61h-179v59h178q-12 22 -31 55.5t-39.5 68.5t-41 67.5t-36.5 53.5q-11 15 -24.5 22.5t-38.5 14.5l-5 55 q41 12 84 19.5t72 7.5q8 -9 20 -29.5t26.5 -47t30 -57t30 -60.5t27 -56.5t21.5 -44.5q16 27 37.5 67t45 82.5t46.5 82t41 64.5q21 -2 52 -8t66 -20z" />
<glyph unicode="&#xa4;" horiz-adv-x="538" d="M47 131zM47 181l63 63q-17 20 -28 48.5t-11 60.5t10 60.5t28 49.5l-62 62l49 49l69 -69q22 11 48.5 18.5t54.5 7.5t54.5 -6t49.5 -19l68 69l50 -50l-62 -63q18 -20 28 -48.5t10 -60.5t-10.5 -60.5t-29.5 -49.5l64 -62l-50 -50l-68 69q-23 -11 -49.5 -17.5t-54.5 -6.5 q-58 0 -101 25l-70 -69zM268 267q47 0 67 25.5t20 60.5t-20.5 61.5t-66.5 26.5q-45 0 -66 -26.5t-21 -61.5t21.5 -60.5t65.5 -25.5z" />
<glyph horiz-adv-x="600" d="M572 207q0 -52 -20 -90t-53 -64t-76 -40.5t-88 -20.5v-92h-59v89q-34 0 -70 4.5t-68.5 11.5t-60 16.5t-45.5 20.5l14 177h30h21.5t13.5 -1q3 -33 17.5 -59.5t37 -45.5t51 -30t59.5 -12v201q-38 16 -76.5 35t-70 44.5t-51.5 60t-20 82.5q0 44 18.5 81.5t49 66t69.5 47 t81 23.5v87h59v-86q58 -2 110.5 -13.5t89.5 -28.5v-149h-56q-12 51 -52.5 76.5t-91.5 30.5v-202q40 -16 82.5 -35t76.5 -44.5t56 -59.5t22 -81zM276 627q-38 -5 -62 -26.5t-24 -63.5q0 -28 24 -47.5t62 -36.5v174zM426 159q0 31 -26 51t-65 38v-173q38 8 64.5 27t26.5 57z " />
<glyph horiz-adv-x="600" d="M532 562q0 -39 -14 -59t-44 -35q-12 14 -28 30.5t-34 30.5t-36 23.5t-34 9.5q-33 0 -58.5 -10t-43 -33t-27 -61t-9.5 -95q0 -79 40 -128t125 -49q31 0 65.5 4t66.5 11l23 -73q-32 -18 -69.5 -31.5t-85.5 -17.5v-179h-61v178q-67 2 -113.5 19.5t-75.5 52.5t-42 88t-13 127 q0 48 16.5 95t48 85.5t76.5 65t103 33.5v154h61v-152q28 -1 57 -6t52.5 -15t38.5 -25.5t15 -37.5z" />
<glyph horiz-adv-x="600" d="M582 629q-36 -4 -47 -17q-18 -22 -41.5 -57t-48 -73t-46.5 -74t-36 -60h196v-59h-197v-63l1 -30h196v-59h-194l7 -137h-162l6 137h-174v59h177l2 32v61h-179v59h178q-12 22 -31 55.5t-39.5 68.5t-41 67.5t-36.5 53.5q-11 15 -24.5 22.5t-38.5 14.5l-5 55q41 12 84 19.5 t72 7.5q8 -9 20 -29.5t26.5 -47t30 -57t30 -60.5t27 -56.5t21.5 -44.5q16 27 37.5 67t45 82.5t46.5 82t41 64.5q21 -2 52 -8t66 -20z" />
<glyph horiz-adv-x="600" d="M447 140l-14 -240h-83l12 240h-145l-13 -240h-84l13 240h-88v84h93l12 240h-105v82h109l12 217h84l-12 -217h145l13 217h84l-13 -217h87v-82h-91l-12 -240h103v-84h-107zM234 464l-12 -240h145l12 240h-145z" />
<glyph unicode="#" horiz-adv-x="587" d="M40 0zM442 140l-14 -240h-83l12 240h-145l-13 -240h-84l13 240h-88v84h93l12 240h-105v82h109l12 217h84l-12 -217h145l13 217h84l-13 -217h87v-82h-91l-12 -240h103v-84h-107zM229 464l-12 -240h145l12 240h-145z" />
<glyph unicode="@" horiz-adv-x="750" d="M43 0zM352 -44q-150 0 -229.5 83.5t-79.5 249.5q0 121 34 208t90.5 143t130.5 82t155 26q59 0 109 -15.5t86 -50t56 -89.5t20 -133t-18 -133t-48.5 -89.5t-70.5 -50.5t-84 -16q-17 0 -32 4.5t-26.5 14.5t-17 24t-3.5 34q-20 -29 -50.5 -49.5t-60.5 -20.5q-21 0 -41 8 t-35.5 24.5t-25 42t-9.5 60.5q0 49 17.5 90.5t46.5 71.5t68 46.5t83 16.5q39 0 74.5 -8.5t52.5 -15.5l-26 -229q-6 -45 13 -45q15 0 36 8.5t40 32t32 66t13 111.5q0 67 -16 111.5t-43.5 71t-64 37.5t-78.5 11q-64 0 -124 -19t-106.5 -64.5t-74.5 -120t-28 -185.5 q0 -80 16.5 -133.5t48 -86.5t76.5 -47t103 -14q38 0 78.5 5.5t69.5 12.5l14 -55q-40 -17 -80 -21.5t-91 -4.5zM351 263q26 0 43 12.5t31 24.5l20 167q-3 1 -12.5 2.5t-13.5 1.5q-32 2 -54.5 -9t-36 -31.5t-19.5 -48t-6 -57.5q0 -34 15 -48t33 -14z" />
<glyph unicode="%" horiz-adv-x="762" d="M190 387q-32 0 -59.5 8t-47.5 27t-32 49t-12 75q0 40 14.5 72t37.5 54.5t53 34.5t61 12t59.5 -8t50 -26.5t34 -50t12.5 -79.5q0 -41 -14.5 -72.5t-38.5 -52.5t-54.5 -32t-63.5 -11zM201 454q37 0 54 26.5t17 74.5q0 46 -17 72t-57 26q-32 0 -51 -24t-19 -81 q0 -47 17.5 -70.5t55.5 -23.5zM558 -15q-32 0 -59.5 8t-48 27t-32.5 49t-12 75q0 40 14.5 72t38 54.5t53.5 34.5t61 12t59.5 -8t50 -26.5t34 -50t12.5 -79.5q0 -41 -14.5 -72.5t-38.5 -52.5t-55 -32t-63 -11zM568 52q37 0 54.5 26.5t17.5 74.5q0 46 -17 72t-57 26 q-32 0 -51 -24t-19 -81q0 -47 17 -70.5t55 -23.5zM82 104l539 538l52 -55l-538 -539z" />
<glyph unicode="&#x2030;" horiz-adv-x="1128" d="M195 387q-32 0 -59.5 8t-47.5 27t-32 49t-12 75q0 40 14.5 72t37.5 54.5t53 34.5t61 12t59.5 -8t50 -26.5t34 -50t12.5 -79.5q0 -41 -14.5 -72.5t-38.5 -52.5t-54.5 -32t-63.5 -11zM206 454q37 0 54 26.5t17 74.5q0 46 -17 72t-57 26q-32 0 -51 -24t-19 -81 q0 -47 17.5 -70.5t55.5 -23.5zM563 -15q-32 0 -59.5 8t-48 27t-32.5 49t-12 75q0 40 14.5 72t38 54.5t53.5 34.5t61 12t59.5 -8t50 -26.5t34 -50t12.5 -79.5q0 -41 -14.5 -72.5t-38.5 -52.5t-55 -32t-63 -11zM573 52q37 0 54.5 26.5t17.5 74.5q0 46 -17 72t-57 26 q-32 0 -51 -24t-19 -81q0 -47 17 -70.5t55 -23.5zM929 -15q-31 0 -58.5 8t-48 27t-32.5 49t-12 75q0 40 14.5 72t37.5 54.5t53 34.5t62 12q31 0 59 -8t49.5 -26.5t34 -50t12.5 -79.5q0 -41 -14.5 -72.5t-38.5 -52.5t-54.5 -32t-63.5 -11zM940 52q37 0 54 26.5t17 74.5 q0 46 -17 72t-57 26q-32 0 -51 -24t-19 -81q0 -47 17.5 -70.5t55.5 -23.5zM87 104l539 538l52 -55l-538 -539z" />
<glyph unicode="&#x2116;" horiz-adv-x="1270" d="M1228 478q0 -41 -16 -75.5t-43 -59.5t-62.5 -39.5t-74.5 -14.5q-42 0 -76.5 8.5t-59.5 27.5t-39 49t-14 73q0 40 16 75t43 60t62 39.5t73 14.5t72.5 -9t61 -28.5t42 -49.5t15.5 -71zM1119 464q0 45 -24.5 70t-65.5 25q-37 0 -57.5 -26t-20.5 -69q0 -52 24 -75.5t63 -23.5 q41 0 61 25.5t20 73.5zM850 114v80h368v-80h-368zM774 638q-17 -8 -29 -27t-12 -42v-563l-108 -29l-397 552h-7l6 -80v-176l3 -155q0 -18 3.5 -25.5t20.5 -12.5l85 -25v-10.5t-1 -16t-2 -16.5t-2 -12h-293q-2 11 -3.5 27t-0.5 26l51 15q23 6 35 32t13 55l2 118v308 q0 17 -8 30.5t-21 20.5l-61 27v23.5t2 24.5h221l374 -512h7l-7 105v268q0 23 -11 39.5t-26 24.5l-63 27q0 7 0.5 23.5t3.5 24.5h274q2 -11 3 -23.5t1 -22.5z" />
<glyph horiz-adv-x="80" d="M0 0z" />
</font>
</defs>
</svg>
